<svg width="39" height="39" viewBox="0 0 39 39" fill="none" xmlns="http://www.w3.org/2000/svg">
<g clip-path="url(#clip0_241_7360)">
<path d="M33.6467 38.2674H19.4839C19.0666 38.2674 18.6663 38.1016 18.3712 37.8065C18.0761 37.5114 17.9103 37.1111 17.9103 36.6938V33.5465C17.9103 33.1291 18.0761 32.7289 18.3712 32.4337C18.6663 32.1386 19.0666 31.9728 19.4839 31.9728H33.6467C34.0641 31.9728 34.4643 32.1386 34.7594 32.4337C35.0546 32.7289 35.2204 33.1291 35.2204 33.5465V36.6938C35.2204 37.1111 35.0546 37.5114 34.7594 37.8065C34.4643 38.1016 34.0641 38.2674 33.6467 38.2674Z" fill="#F26A7E"/>
<path d="M33.6467 0.5H5.32108C4.90372 0.5 4.50346 0.665793 4.20834 0.960908C3.91323 1.25602 3.74744 1.65629 3.74744 2.07364V5.22093C3.74744 5.63829 3.91323 6.03855 4.20834 6.33367C4.50346 6.62878 4.90372 6.79457 5.32108 6.79457H33.6467C34.064 6.79457 34.4643 6.62878 34.7594 6.33367C35.0545 6.03855 35.2203 5.63829 35.2203 5.22093V2.07364C35.2203 1.65629 35.0545 1.25602 34.7594 0.960908C34.4643 0.665793 34.064 0.5 33.6467 0.5Z" fill="#A9ACCB"/>
<path d="M33.6467 9.94189H5.32108C4.90372 9.94189 4.50346 10.1077 4.20834 10.4028C3.91323 10.6979 3.74744 11.0982 3.74744 11.5155V27.252C3.74744 27.6693 3.91323 28.0696 4.20834 28.3647C4.50346 28.6598 4.90372 28.8256 5.32108 28.8256H33.6467C34.064 28.8256 34.4643 28.6598 34.7594 28.3647C35.0545 28.0696 35.2203 27.6693 35.2203 27.252V11.5155C35.2203 11.0982 35.0545 10.6979 34.7594 10.4028C34.4643 10.1077 34.064 9.94189 33.6467 9.94189Z" fill="#404366"/>
</g>
<defs>
<clipPath id="clip0_241_7360">
<rect width="37.7674" height="37.7674" fill="white" transform="translate(0.598877 0.5)"/>
</clipPath>
</defs>
</svg>
