<svg width="38" height="38" viewBox="0 0 38 38" fill="none" xmlns="http://www.w3.org/2000/svg">
<path d="M7.86537 1.6781H3.14444C2.72709 1.6781 2.32682 1.84389 2.03171 2.13901C1.73659 2.43412 1.5708 2.83439 1.5708 3.25174V34.7246C1.5708 35.142 1.73659 35.5422 2.03171 35.8373C2.32682 36.1325 2.72709 36.2983 3.14444 36.2983H7.86537V1.6781Z" fill="#A9ACCB"/>
<path d="M11.0132 36.2983H26.7496V1.6781H11.0132V36.2983ZM18.8814 30.0037C18.464 30.0037 18.0638 29.8379 17.7687 29.5428C17.4736 29.2477 17.3078 28.8474 17.3078 28.43C17.3078 28.0127 17.4736 27.6124 17.7687 27.3173C18.0638 27.0222 18.464 26.8564 18.8814 26.8564C19.2988 26.8564 19.699 27.0222 19.9941 27.3173C20.2893 27.6124 20.455 28.0127 20.455 28.43C20.455 28.8474 20.2893 29.2477 19.9941 29.5428C19.699 29.8379 19.2988 30.0037 18.8814 30.0037ZM18.8814 7.97267C19.2988 7.97267 19.699 8.13847 19.9941 8.43358C20.2893 8.7287 20.455 9.12896 20.455 9.54632C20.455 9.96367 20.2893 10.3639 19.9941 10.6591C19.699 10.9542 19.2988 11.12 18.8814 11.12C18.464 11.12 18.0638 10.9542 17.7687 10.6591C17.4736 10.3639 17.3078 9.96367 17.3078 9.54632C17.3078 9.12896 17.4736 8.7287 17.7687 8.43358C18.0638 8.13847 18.464 7.97267 18.8814 7.97267ZM18.8814 17.4145C19.2988 17.4145 19.699 17.5803 19.9941 17.8754C20.2893 18.1706 20.455 18.5708 20.455 18.9882C20.455 19.4055 20.2893 19.8058 19.9941 20.1009C19.699 20.396 19.2988 20.5618 18.8814 20.5618C18.464 20.5618 18.0638 20.396 17.7687 20.1009C17.4736 19.8058 17.3078 19.4055 17.3078 18.9882C17.3078 18.5708 17.4736 18.1706 17.7687 17.8754C18.0638 17.5803 18.464 17.4145 18.8814 17.4145Z" fill="#F26A7E"/>
<path d="M34.6177 1.6781H29.8967V36.2983H34.6177C35.035 36.2983 35.4353 36.1325 35.7304 35.8373C36.0255 35.5422 36.1913 35.142 36.1913 34.7246V3.25174C36.1913 2.83439 36.0255 2.43412 35.7304 2.13901C35.4353 1.84389 35.035 1.6781 34.6177 1.6781Z" fill="#A9ACCB"/>
</svg>
