<svg width="39" height="38" viewBox="0 0 39 38" fill="none" xmlns="http://www.w3.org/2000/svg">
<path d="M14.7613 15.8409H3.74576C3.32841 15.8409 2.92814 15.6751 2.63303 15.38C2.33791 15.0849 2.17212 14.6846 2.17212 14.2672V3.25174C2.17212 2.83439 2.33791 2.43412 2.63303 2.13901C2.92814 1.84389 3.32841 1.6781 3.74576 1.6781H14.7613C15.1786 1.6781 15.5789 1.84389 15.874 2.13901C16.1691 2.43412 16.3349 2.83439 16.3349 3.25174V14.2672C16.3349 14.6846 16.1691 15.0849 15.874 15.38C15.5789 15.6751 15.1786 15.8409 14.7613 15.8409Z" fill="#F26A7E"/>
<path d="M14.7613 36.2982H3.74576C3.32841 36.2982 2.92814 36.1324 2.63303 35.8373C2.33791 35.5422 2.17212 35.1419 2.17212 34.7246V23.7091C2.17212 23.2917 2.33791 22.8915 2.63303 22.5963C2.92814 22.3012 3.32841 22.1354 3.74576 22.1354H14.7613C15.1786 22.1354 15.5789 22.3012 15.874 22.5963C16.1691 22.8915 16.3349 23.2917 16.3349 23.7091V34.7246C16.3349 35.1419 16.1691 35.5422 15.874 35.8373C15.5789 36.1324 15.1786 36.2982 14.7613 36.2982Z" fill="#F26A7E"/>
<path d="M21.0558 3.25171H36.7922V6.399H21.0558V3.25171Z" fill="#A9ACCB"/>
<path d="M36.7922 23.7091H21.0558V26.8564H36.7922V23.7091Z" fill="#A9ACCB"/>
<path d="M36.7922 31.5773H21.0558V34.7246H36.7922V31.5773Z" fill="#A9ACCB"/>
<path d="M36.7922 11.1199H21.0558V14.2672H36.7922V11.1199Z" fill="#A9ACCB"/>
</svg>
