<svg width="37" height="37" viewBox="0 0 37 37" fill="none" xmlns="http://www.w3.org/2000/svg">
<path d="M1.92212 29.552V18.5C1.92212 14.1033 3.66872 9.88664 6.77768 6.77768C9.88664 3.66872 14.1033 1.92212 18.5 1.92212C22.8968 1.92212 27.1134 3.66872 30.2224 6.77768C33.3314 9.88664 35.078 14.1033 35.078 18.5V29.552" stroke="white" stroke-width="3.68398" stroke-linecap="round" stroke-linejoin="round"/>
<path d="M35.078 31.3939C35.078 32.371 34.6898 33.308 33.999 33.9989C33.3081 34.6898 32.371 35.0779 31.394 35.0779H29.552C28.5749 35.0779 27.6379 34.6898 26.947 33.9989C26.2561 33.308 25.868 32.371 25.868 31.3939V25.8679C25.868 24.8909 26.2561 23.9539 26.947 23.263C27.6379 22.5721 28.5749 22.184 29.552 22.184H35.078V31.3939ZM1.92212 31.3939C1.92212 32.371 2.31025 33.308 3.00113 33.9989C3.69201 34.6898 4.62905 35.0779 5.6061 35.0779H7.44809C8.42515 35.0779 9.36218 34.6898 10.0531 33.9989C10.7439 33.308 11.1321 32.371 11.1321 31.3939V25.8679C11.1321 24.8909 10.7439 23.9539 10.0531 23.263C9.36218 22.5721 8.42515 22.184 7.44809 22.184H1.92212V31.3939Z" stroke="white" stroke-width="3.68398" stroke-linecap="round" stroke-linejoin="round"/>
</svg>
