<svg width="517" height="517" viewBox="0 0 517 517" fill="none" xmlns="http://www.w3.org/2000/svg">
<path d="M373.532 375.125C368.07 371.705 361.898 369.583 355.488 368.921C352.541 368.611 349.284 368.704 346.947 370.482C346.677 370.642 346.453 370.871 346.298 371.145C346.144 371.419 346.065 371.729 346.068 372.044C346.216 372.477 346.513 372.844 346.906 373.078C354.247 378.682 365.353 379.385 373.532 375.146" fill="#E0E0E0"/>
<path d="M373.067 374.618C368.888 371.549 364.989 368.117 361.414 364.361C357.823 360.583 355.3 355.92 354.104 350.847C353.794 349.316 353.7 347.548 354.683 346.328C363.989 353.566 371.227 362.965 373.067 374.618Z" fill="#E0E0E0"/>
<path d="M373.428 375.063C372.574 369.991 372.647 364.806 373.645 359.76C374.814 354.765 377.533 349.978 381.803 347.135C383.406 350.888 382.713 355.21 381.586 359.129C379.834 365.201 377.103 370.946 373.5 376.138" fill="#E0E0E0"/>
<path d="M382.58 391.379C377.058 392.051 372.24 394.957 368.104 398.7C363.957 402.477 361.07 407.436 359.832 412.907C365.261 412.576 369.862 408.771 373.191 404.459C376.521 400.147 378.837 395.474 382.497 391.462" fill="#E0E0E0"/>
<path d="M384.513 393.954C382.341 388.427 381.582 382.445 382.304 376.55C383.026 370.655 385.207 365.034 388.649 360.194C391.803 371.402 390.645 384.048 384.513 393.954Z" fill="#E0E0E0"/>
<path d="M396.55 408.316C391.5 408.008 386.47 409.189 382.084 411.713C377.699 414.237 374.15 417.992 371.879 422.513C371.569 423.123 371.3 423.899 371.713 424.447C371.925 424.655 372.185 424.808 372.47 424.893C372.755 424.977 373.056 424.991 373.347 424.933C378.207 424.612 382.519 421.696 386.076 418.356C389.632 415.017 392.734 411.18 396.664 408.296" fill="#E0E0E0"/>
<path d="M396.167 407.531C393.578 399.19 393.42 390.284 395.712 381.856C396.611 378.558 398.131 375.073 401.181 373.533C401.305 373.451 401.444 373.395 401.589 373.368C401.735 373.342 401.885 373.345 402.029 373.378C402.276 373.511 402.464 373.733 402.557 373.998C403.584 376.309 404.028 378.837 403.849 381.36C403.665 383.872 403.277 386.365 402.691 388.815C401.729 393.375 401.212 398.266 398.72 402.195C398.129 403.144 397.597 404.128 397.128 405.142C396.652 406.176 396.652 406.486 396.218 407.282" fill="#E0E0E0"/>
<path d="M428.015 412.276C425.657 403.301 428.159 392.424 433.815 385.062C434.239 384.524 434.787 383.935 435.47 384.028C436.504 384.121 436.783 385.506 436.731 386.551C436.307 395.782 433.286 404.707 428.015 412.297" fill="#E0E0E0"/>
<path d="M430.889 414.241C441.797 417.074 454.298 414.324 463.377 407.634C457.944 404.901 451.732 404.137 445.799 405.473C439.926 406.817 434.559 409.454 430.899 414.241" fill="#E0E0E0"/>
<path d="M433.309 408.265C439.42 398.307 451.124 391.803 462.788 391.214C461.444 395.96 457.546 399.651 453.151 401.874C448.757 404.098 443.845 405.08 438.996 406.01C437.114 406.372 434.529 406.776 433.309 408.254" fill="#E0E0E0"/>
<path d="M428.623 379.261C430.277 373.595 431.942 367.887 432.397 361.993C432.852 356.099 432.004 349.968 428.954 344.922C423.246 355.954 422.667 368.859 428.447 379.861" fill="#E0E0E0"/>
<path d="M447.826 369.552C454.506 357.433 468.113 347.745 481.886 346.39C476.571 359.615 462.085 369.841 447.826 369.552Z" fill="#E0E0E0"/>
<path d="M443.637 371.93C453.584 373.45 462.063 379.799 471.358 383.655C473.307 384.595 475.467 385.008 477.624 384.855C478.631 384.85 479.611 384.535 480.432 383.953C481.253 383.372 481.876 382.552 482.214 381.604C482.553 380.656 482.592 379.628 482.326 378.657C482.06 377.687 481.501 376.822 480.726 376.18C479.411 374.962 477.864 374.023 476.177 373.419C466.043 369.2 455.186 369.097 444.516 371.651" fill="#E0E0E0"/>
<path d="M437.879 378.91C440.133 379.551 440.898 380.719 442.687 382.239C448.769 387.411 455.963 391.109 463.708 393.044C464.504 393.241 465.559 393.323 465.962 392.589C466.366 391.855 465.869 391.193 465.414 390.625C462.036 386.666 457.653 383.69 452.727 382.012C447.867 380.202 443.669 378.031 437.879 378.496" fill="#E0E0E0"/>
<path d="M431.375 336.763C435.46 340.515 440.282 343.373 445.535 345.153C450.788 346.934 456.354 347.598 461.878 347.103C462.389 347.108 462.885 346.929 463.274 346.597C464.039 345.77 463.119 344.477 462.24 343.784C453.275 336.784 442.408 333.889 431.396 336.722" fill="#E0E0E0"/>
<path d="M439.078 333.982C444.481 330.01 450.745 327.371 457.362 326.28C463.978 325.189 470.758 325.678 477.15 327.706C472.352 332.431 465.704 334.944 459.003 335.667C452.314 336.277 445.57 335.706 439.078 333.982Z" fill="#E0E0E0"/>
<path d="M436.017 314.574C435.138 305.619 435.707 298.557 435.086 289.561C435.086 288.848 434.89 287.979 434.218 287.721C433.277 287.359 432.501 288.517 432.15 289.468C430.858 293.634 430.533 298.039 431.202 302.348C431.87 306.658 433.513 310.758 436.006 314.336" fill="#E0E0E0"/>
<path d="M435.375 315.567C441.445 311.813 445.994 306.912 450.203 301.153C453.129 297.151 455.6 292.343 454.938 287.431C450.802 287.349 446.914 289.613 444.236 292.736C441.684 295.979 439.829 299.714 438.787 303.707C437.598 307.646 436.771 311.699 435.375 315.567Z" fill="#E0E0E0"/>
<path d="M449.946 311.513C463.295 306.574 475.653 299.287 486.436 289.995C482.083 288.248 477.13 289.292 472.725 291.029C462.778 295.052 454.64 301.835 449.76 311.399" fill="#E0E0E0"/>
<path d="M439.449 320.457C446.191 321.202 453.026 321.677 459.716 320.561C466.406 319.444 472.496 316.859 478.627 314.274C479.164 314.121 479.624 313.775 479.92 313.302C480.014 313.016 480.021 312.708 479.938 312.419C479.855 312.129 479.686 311.871 479.455 311.679C478.982 311.307 478.43 311.049 477.842 310.924C471.172 309.063 463.965 309.89 457.399 312.144C451.145 314.271 445.129 317.043 439.449 320.416" fill="#E0E0E0"/>
<path d="M401.005 337.084C396.414 327.778 396.703 316.973 400.674 307.418C403.476 311.668 403.776 317.097 403.3 322.163C402.825 327.23 401.232 332.452 401.15 337.539" fill="#E0E0E0"/>
<path d="M382.641 327.778C376.888 327.703 371.182 328.83 365.889 331.086C360.596 333.342 355.831 336.677 351.9 340.879C357.629 341.779 363.523 340.3 368.734 337.777C373.945 335.254 378.578 331.666 383.158 328.119" fill="#E0E0E0"/>
<path d="M370.306 323.642C364.692 323.187 359.284 322.484 353.886 324.138C348.489 325.793 343.546 329.546 341.375 334.747C346.654 335.188 351.956 334.21 356.73 331.914C361.492 329.565 366.035 326.797 370.306 323.642Z" fill="#E0E0E0"/>
<path d="M388.576 323.87C383.53 320.561 378.34 317.19 372.467 315.825C366.593 314.46 359.769 315.463 355.664 319.899C360.431 322.691 366.201 323.001 371.722 323.001C377.244 323.001 384.006 322.939 389.207 324.779" fill="#E0E0E0"/>
<path d="M388.607 324.138C379.973 315.66 376.706 300.429 380.17 288.838C386.989 299.271 389.971 311.749 388.607 324.138Z" fill="#E0E0E0"/>
<path d="M412.348 300.118C413.971 296.334 415.119 292.353 416.577 288.507C417.909 284.596 419.957 280.967 422.615 277.805C425.312 274.624 429.153 272.633 433.307 272.262C431.98 278.103 429.449 283.603 425.876 288.411C422.302 293.218 417.765 297.226 412.554 300.18" fill="#E0E0E0"/>
<path d="M408.057 305.123C405.327 301.411 402.225 296.375 398.586 293.656C394.946 290.937 390.179 289.22 385.723 290.285C388.033 294.332 391.254 297.784 395.131 300.369C399.008 302.953 403.433 304.599 408.057 305.175" fill="#E0E0E0"/>
<path d="M408.916 300.429C407.148 295.941 405.37 291.402 404.656 286.635C403.943 281.868 404.377 276.771 406.817 272.604C411.553 281.569 413.073 291.216 409.154 300.522" fill="#E0E0E0"/>
<path d="M412.391 272.604C415.079 263.722 423.206 257.187 431.985 254.188C433.074 253.741 434.255 253.564 435.428 253.671C436.004 253.733 436.55 253.962 436.998 254.329C437.446 254.696 437.777 255.186 437.951 255.739C438.272 257.249 437.031 258.603 435.883 259.606C429.023 265.472 421.04 269.881 412.422 272.562" fill="#E0E0E0"/>
<path d="M412.492 265.345C412.834 259.617 413.185 253.806 415.046 248.388C416.908 242.969 420.506 237.872 425.728 235.494C426.606 241.274 424.063 247.033 420.982 252.038C417.9 257.042 414.199 261.716 412.348 267.258" fill="#E0E0E0"/>
<path d="M412.348 269.285C410.125 262.812 409.897 254.591 406.02 248.956C403.311 245.017 398.978 242.328 396.642 238.151C395.233 242.156 395.429 246.551 397.19 250.414C398.955 254.232 401.381 257.707 404.355 260.682C407.23 263.784 409.68 266.048 412.348 269.285Z" fill="#E0E0E0"/>
<path d="M412.39 459.882C412.225 459.882 412.07 416.712 412.059 363.461C412.049 310.21 412.173 267.031 412.349 267.031C412.524 267.031 412.669 310.2 412.68 363.461C412.69 416.723 412.566 459.882 412.39 459.882Z" fill="#E0E0E0"/>
<path d="M450.121 330.549C449.6 330.803 449.057 331.008 448.498 331.159L444.031 332.669C440.267 333.951 435.087 335.771 429.472 338.118C423.857 340.465 418.667 342.44 415.678 345.025C414.488 346.018 413.54 347.27 412.907 348.686C412.483 349.72 412.411 350.319 412.349 350.309C412.324 350.162 412.324 350.012 412.349 349.864C412.414 349.435 412.518 349.013 412.659 348.603C413.228 347.098 414.159 345.756 415.368 344.694C417.174 343.171 419.19 341.918 421.355 340.972C423.744 339.855 426.401 338.697 429.213 337.539C434.849 335.223 440.06 333.403 443.876 332.255C445.778 331.656 447.329 331.221 448.404 330.932C448.965 330.755 449.539 330.627 450.121 330.549Z" fill="#E0E0E0"/>
<path d="M462.487 300.18C462.354 300.359 462.202 300.522 462.033 300.666L460.647 301.928L455.477 306.633L438.261 321.987C431.54 327.974 425.739 333.682 421.717 337.994C419.711 340.134 418.119 341.923 417.033 343.164L415.782 344.591C415.645 344.766 415.489 344.926 415.316 345.066C415.419 344.866 415.543 344.679 415.689 344.508C415.947 344.167 416.33 343.65 416.847 343.009C417.881 341.716 419.421 339.907 421.396 337.694C426.592 332.035 432.084 326.654 437.847 321.574C444.589 315.608 450.731 310.252 455.187 306.384C457.369 304.503 459.168 302.962 460.492 301.835C461.081 301.339 461.526 300.946 461.95 300.615C462.108 300.446 462.289 300.3 462.487 300.18Z" fill="#E0E0E0"/>
<path d="M431.013 328.067C430.837 327.995 432.233 324.748 433.639 320.654C435.046 316.559 435.707 313.095 435.894 313.126C435.757 315.769 435.213 318.374 434.281 320.85C433.688 322.611 432.998 324.337 432.213 326.02C431.912 326.756 431.508 327.445 431.013 328.067Z" fill="#E0E0E0"/>
<path d="M412.431 354.207C412.047 353.839 411.701 353.434 411.397 352.997L408.74 349.606C406.516 346.721 403.435 342.74 399.982 338.397C396.528 334.054 393.354 330.125 391.058 327.313L388.339 323.963C387.984 323.569 387.672 323.139 387.408 322.68C387.817 323.015 388.191 323.389 388.525 323.797C389.218 324.552 390.2 325.658 391.389 327.034C393.778 329.784 397.014 333.651 400.468 338.004C403.921 342.357 406.951 346.39 409.091 349.378C410.125 350.857 411.014 352.056 411.593 352.904C411.915 353.31 412.195 353.746 412.431 354.207Z" fill="#E0E0E0"/>
<path d="M404.16 343.588C402.494 341.738 401.305 339.508 400.696 337.094C400.043 334.977 399.777 332.76 399.91 330.549H400.179C400.055 331.045 399.972 331.304 399.921 331.304C399.869 331.304 399.921 331.014 399.921 330.497H400.2C400.329 332.655 400.7 334.792 401.306 336.867C402.413 340.775 404.294 343.474 404.16 343.588Z" fill="#E0E0E0"/>
<path d="M393.477 330.146C392.731 329.581 391.918 329.109 391.058 328.74C388.879 328.098 386.589 327.918 384.337 328.212C382.057 328.391 379.795 328.754 377.574 329.298C376.663 329.583 375.734 329.807 374.793 329.97C375.618 329.473 376.514 329.103 377.45 328.874C379.677 328.19 381.973 327.756 384.295 327.582C386.632 327.274 389.008 327.532 391.223 328.336C392.161 328.661 392.957 329.301 393.477 330.146Z" fill="#E0E0E0"/>
<path d="M390.945 326.889C390.945 326.992 389.538 326.331 387.243 325.545C381.237 323.492 374.807 323.001 368.559 324.118C366.17 324.542 364.722 324.997 364.691 324.893C364.995 324.701 365.326 324.558 365.674 324.469C366.589 324.154 367.521 323.892 368.465 323.684C374.779 322.308 381.357 322.811 387.388 325.131C388.295 325.474 389.179 325.874 390.035 326.331C390.362 326.474 390.668 326.662 390.945 326.889Z" fill="#E0E0E0"/>
<path d="M412.348 313.126C411.252 310.056 410.35 306.921 409.649 303.737C408.315 298.505 407.374 294.225 407.581 294.183C407.788 294.142 408.956 298.319 410.28 303.582C411.604 308.845 412.565 313.085 412.348 313.126Z" fill="#E0E0E0"/>
<path d="M412.566 313.126C412.38 313.188 411.594 310.376 409.568 307.501C408.3 305.799 406.816 304.27 405.152 302.952C405.782 303.107 406.367 303.408 406.858 303.831C408.11 304.743 409.197 305.862 410.074 307.139C411.411 308.884 412.27 310.948 412.566 313.126Z" fill="#E0E0E0"/>
<path d="M412.39 436.865C412.328 436.865 412.194 435.831 411.708 434.001C410.998 431.419 410.031 428.915 408.823 426.525C405.845 420.424 400.417 412.7 393.52 404.956C390.097 401.047 386.789 397.366 383.966 393.84C381.444 390.737 379.163 387.446 377.141 383.997C375.785 381.664 374.633 379.218 373.698 376.686C373.378 375.787 373.15 375.084 373.016 374.618C372.932 374.377 372.873 374.127 372.84 373.874C372.902 373.874 373.212 374.856 373.926 376.624C374.943 379.1 376.146 381.495 377.524 383.79C379.585 387.189 381.89 390.434 384.421 393.499C387.243 396.994 390.563 400.654 393.985 404.563C400.903 412.328 406.321 420.156 409.226 426.349C410.404 428.781 411.315 431.332 411.946 433.96C412.117 434.675 412.245 435.4 412.328 436.131C412.375 436.373 412.396 436.619 412.39 436.865Z" fill="#E0E0E0"/>
<path d="M446.492 398.359C445.918 398.741 445.321 399.086 444.703 399.393C443.084 400.315 441.532 401.352 440.06 402.495C437.894 404.186 435.861 406.042 433.981 408.047C431.84 410.312 429.638 412.928 427.394 415.74C422.906 421.375 418.708 426.359 416.185 430.34C414.914 432.315 413.983 433.98 413.373 435.138C413.091 435.762 412.763 436.363 412.391 436.937C412.42 436.733 412.479 436.534 412.566 436.348C412.701 436.027 412.887 435.552 413.166 434.952C413.953 433.257 414.841 431.61 415.824 430.02C418.274 425.946 422.441 420.889 426.918 415.265C429.172 412.452 431.396 409.826 433.577 407.572C435.485 405.562 437.56 403.718 439.781 402.06C441.308 400.945 442.927 399.963 444.62 399.124C445.21 398.834 445.654 398.648 446.016 398.514C446.166 398.438 446.326 398.386 446.492 398.359Z" fill="#E0E0E0"/>
<path d="M447.153 410.85C445.911 411.128 444.649 411.312 443.379 411.398C440.346 411.711 437.348 412.303 434.424 413.166C431.531 414.105 428.818 415.528 426.4 417.374C424.55 418.801 423.681 419.98 423.588 419.918C423.73 419.6 423.922 419.307 424.157 419.049C424.743 418.314 425.401 417.639 426.121 417.033C428.526 415.03 431.297 413.513 434.279 412.566C437.243 411.677 440.3 411.136 443.389 410.953C444.638 410.802 445.898 410.768 447.153 410.85Z" fill="#E0E0E0"/>
<path d="M424.695 418.542C424.499 418.429 426.205 415.833 427.518 412.338C428.831 408.844 429.048 405.711 429.276 405.752C429.367 406.44 429.346 407.138 429.214 407.82C429.013 409.439 428.632 411.031 428.076 412.566C427.505 414.101 426.77 415.571 425.884 416.95C425.576 417.541 425.175 418.079 424.695 418.542Z" fill="#E0E0E0"/>
<path d="M457.525 364.816C457.341 364.951 457.139 365.059 456.925 365.136L455.146 365.943C454.371 366.284 453.43 366.708 452.365 367.266C451.3 367.825 450.049 368.383 448.756 369.159L446.688 370.327C445.975 370.741 445.261 371.227 444.517 371.702C442.997 372.623 441.477 373.77 439.843 374.918C436.393 377.527 433.14 380.389 430.113 383.48C427.114 386.616 424.349 389.968 421.841 393.509C420.735 395.174 419.659 396.725 418.791 398.276C418.346 399.052 417.881 399.765 417.498 400.499L416.392 402.567C415.658 403.891 415.13 405.152 414.624 406.238C414.117 407.324 413.704 408.306 413.404 409.061C413.104 409.816 412.856 410.395 412.659 410.87C412.58 411.083 412.479 411.287 412.359 411.48C412.391 411.257 412.45 411.038 412.535 410.829C412.701 410.333 412.918 409.723 413.176 408.978C413.503 407.998 413.88 407.035 414.303 406.093C414.789 404.997 415.286 403.715 415.999 402.371L417.033 400.241C417.405 399.496 417.86 398.762 418.305 397.987C419.153 396.415 420.228 394.833 421.324 393.148C426.25 385.924 432.369 379.592 439.419 374.422C441.074 373.274 442.614 372.147 444.155 371.237C444.92 370.772 445.633 370.286 446.357 369.883L448.425 368.745C449.738 367.98 451 367.442 452.096 366.915C453.192 366.388 454.164 365.995 454.929 365.695L456.759 364.992C457.005 364.898 457.263 364.839 457.525 364.816Z" fill="#E0E0E0"/>
<path d="M430.547 382.901C430.795 382.026 431.313 381.252 432.025 380.688C433.696 379.267 435.809 378.474 438.002 378.444C440.161 378.439 442.3 378.857 444.299 379.675C445.144 379.942 445.946 380.332 446.677 380.833C445.817 380.659 444.973 380.414 444.154 380.099C442.183 379.412 440.11 379.063 438.023 379.065C435.957 379.11 433.959 379.809 432.315 381.06C431.682 381.631 431.091 382.246 430.547 382.901Z" fill="#E0E0E0"/>
<path d="M426.514 387.057C426.338 386.964 427.858 384.731 428.21 381.536C428.561 378.341 427.641 375.828 427.827 375.776C428.013 375.725 428.241 376.335 428.53 377.379C428.891 378.758 428.992 380.192 428.83 381.608C428.67 383.024 428.242 384.396 427.569 385.651C427.041 386.613 426.576 387.099 426.514 387.057Z" fill="#E0E0E0"/>
<path d="M382.58 443.059C383.511 459.551 388.484 476.333 396.136 493.301H429.389C436.679 476.508 441.311 459.747 442.138 443.059H382.58Z" fill="#E0E0E0"/>
<path d="M436.73 469.756C436.73 469.932 425.78 470.067 412.276 470.067C398.772 470.067 387.822 469.932 387.822 469.756C387.822 469.581 398.772 469.446 412.276 469.446C425.78 469.446 436.73 469.581 436.73 469.756Z" fill="#FAFAFA"/>
<path d="M435.997 475.733C435.997 475.909 425.729 476.044 413.062 476.044C400.396 476.044 390.139 475.909 390.139 475.733C390.139 475.558 400.406 475.423 413.062 475.423C425.719 475.423 435.997 475.558 435.997 475.733Z" fill="#FAFAFA"/>
<path d="M396.662 453.926C397.076 459.026 397.076 464.151 396.662 469.25C396.487 469.25 396.342 465.828 396.342 461.588C396.342 457.349 396.487 453.926 396.662 453.926Z" fill="#FAFAFA"/>
<path d="M414.478 453.926C414.654 453.926 414.788 457.483 414.788 461.867C414.788 466.251 414.654 469.798 414.478 469.798C414.302 469.798 414.168 466.241 414.168 461.867C414.168 457.494 414.302 453.926 414.478 453.926Z" fill="#FAFAFA"/>
<path d="M431.177 453.75C431.591 459.14 431.591 464.553 431.177 469.943C431.002 469.943 430.867 466.313 430.867 461.846C430.867 457.38 431.033 453.75 431.177 453.75Z" fill="#FAFAFA"/>
<path d="M441.073 453.926C441.073 454.102 428.231 454.247 412.39 454.247C396.549 454.247 383.707 454.102 383.707 453.926C383.707 453.75 396.539 453.616 412.39 453.616C428.241 453.616 441.073 453.719 441.073 453.926Z" fill="#FAFAFA"/>
<path d="M473.635 61.947H393.955V145.008H473.635V61.947Z" fill="#E0E0E0"/>
<path d="M468.237 61.947H388.557V145.008H468.237V61.947Z" fill="#FAFAFA"/>
<path d="M468.267 145.039H388.535V61.9263H468.267V145.039ZM388.576 145.039H468.194V61.9676H388.576V145.039Z" fill="#E0E0E0"/>
<path d="M457.535 73.1143H399.27V133.841H457.535V73.1143Z" fill="white"/>
<path d="M399.268 134.255C398.852 134.861 398.37 135.419 397.831 135.919C396.9 136.953 395.587 138.236 394.129 139.673C392.671 141.11 391.317 142.403 390.324 143.323C389.821 143.855 389.255 144.324 388.639 144.719C389.045 144.108 389.524 143.549 390.066 143.054C390.996 142.072 392.309 140.738 393.778 139.29C395.246 137.843 396.6 136.56 397.593 135.64C398.091 135.11 398.654 134.645 399.268 134.255Z" fill="#E0E0E0"/>
<path d="M457.525 134.1C458.138 134.511 458.701 134.993 459.2 135.537C460.183 136.467 461.517 137.781 462.954 139.239C464.391 140.697 465.684 142.051 466.604 143.044C467.136 143.547 467.605 144.113 468 144.729C467.389 144.323 466.83 143.844 466.335 143.302C465.353 142.372 464.019 141.058 462.571 139.59C461.124 138.122 459.842 136.767 458.921 135.775C458.391 135.274 457.923 134.711 457.525 134.1Z" fill="#E0E0E0"/>
<path d="M457.369 73.2796C457.781 72.6665 458.263 72.1043 458.806 71.6045C459.737 70.5705 461.04 69.2884 462.508 67.8511C463.976 66.4138 465.3 65.142 466.334 64.2114C466.835 63.6747 467.402 63.2023 468.019 62.8052C467.613 63.4159 467.134 63.9749 466.592 64.4699C465.662 65.4522 464.349 66.7861 462.88 68.2337C461.412 69.6813 460.058 70.9634 459.065 71.8837C458.555 72.4121 457.986 72.8804 457.369 73.2796Z" fill="#E0E0E0"/>
<path d="M399.125 73.4142C398.509 73.0069 397.946 72.524 397.45 71.9769C396.467 71.0463 395.134 69.7435 393.696 68.2752C392.259 66.8069 390.967 65.4627 390.046 64.4701C389.514 63.967 389.046 63.4011 388.65 62.7847C389.261 63.1911 389.82 63.6702 390.315 64.2116C391.297 65.1422 392.631 66.4554 394.079 67.9236C395.526 69.3919 396.809 70.7465 397.729 71.7391C398.256 72.2429 398.724 72.8048 399.125 73.4142Z" fill="#E0E0E0"/>
<path d="M457.369 133.841C457.369 133.841 457.369 133.737 457.369 133.551C457.369 133.365 457.369 133.065 457.369 132.703C457.369 131.938 457.369 130.842 457.369 129.426C457.369 126.551 457.369 122.363 457.307 117.018C457.307 106.378 457.245 91.2297 457.194 73.083L457.421 73.3105H399.331L399.589 73.052C399.589 95.345 399.589 116.201 399.589 133.779L399.372 133.562L441.446 133.675L453.254 133.737H456.356H457.442C457.356 133.747 457.269 133.747 457.183 133.737H456.397H453.295L441.529 133.8L399.321 133.913H399.104V133.686C399.104 116.108 399.104 95.252 399.104 72.9589V72.7004H399.372H457.462H457.69V72.9279C457.638 91.1263 457.597 106.336 457.576 117.007C457.576 122.301 457.524 126.468 457.514 129.333C457.514 130.739 457.514 131.814 457.514 132.569C457.514 132.921 457.514 133.189 457.514 133.386C457.482 133.542 457.434 133.695 457.369 133.841Z" fill="#E0E0E0"/>
<path d="M438.117 93.7632H418.678V113.202H438.117V93.7632Z" fill="#EBEBEB"/>
<path d="M126.428 168.366H35.4355V300.263H126.428V168.366Z" fill="#E0E0E0"/>
<path d="M121.867 168.366H30.875V300.263H121.867V168.366Z" fill="#F5F5F5"/>
<path d="M110.566 182.646H42.1875V285.963H110.566V182.646Z" fill="white"/>
<path d="M110.567 285.973C110.567 285.973 110.567 285.798 110.567 285.467C110.567 285.136 110.567 284.64 110.567 283.998C110.567 282.706 110.567 280.803 110.567 278.332C110.567 273.379 110.567 266.162 110.505 257.052C110.505 238.833 110.443 213.035 110.391 182.604L110.618 182.832H42.2502L42.4984 182.584C42.4984 221.566 42.4984 257.497 42.4984 285.911L42.3019 285.715L92.0787 285.818H105.831H109.44C110.256 285.818 110.68 285.818 110.68 285.818H109.481H105.903L92.1924 285.87L42.3019 285.973H42.1055V285.777C42.1055 257.363 42.1055 221.431 42.1055 182.449V182.201H42.364H110.732H110.96V182.429C110.96 212.88 110.877 238.73 110.846 256.98C110.846 266.079 110.846 273.276 110.794 278.218C110.794 280.659 110.794 282.551 110.794 283.833C110.794 284.464 110.794 284.939 110.794 285.281C110.794 285.622 110.567 285.973 110.567 285.973Z" fill="#E0E0E0"/>
<path d="M122.126 168.366C121.665 169.202 121.125 169.992 120.513 170.724C119.479 172.13 117.948 174.053 116.242 176.132C114.536 178.21 112.923 180.061 111.744 181.364C111.139 182.112 110.468 182.804 109.738 183.432C110.25 182.624 110.831 181.863 111.475 181.157L115.86 175.842L120.233 170.527C120.806 169.758 121.438 169.035 122.126 168.366Z" fill="#E0E0E0"/>
<path d="M110.918 285.643C114.316 291.05 118.32 296.052 122.85 300.553L110.918 285.643Z" fill="white"/>
<path d="M122.849 300.553C122.094 299.998 121.401 299.363 120.781 298.661C117.606 295.434 114.772 291.89 112.323 288.083C111.782 287.317 111.318 286.499 110.938 285.643C111.552 286.347 112.112 287.097 112.613 287.886C113.647 289.293 115.032 291.216 116.676 293.284C118.32 295.352 119.892 297.141 121.04 298.454C121.689 299.112 122.294 299.813 122.849 300.553Z" fill="#E0E0E0"/>
<path d="M30.8652 300.15L42.7873 285.446L30.8652 300.15Z" fill="white"/>
<path d="M42.7873 285.446C40.991 288.043 39.0654 290.549 37.0175 292.953C35.098 295.474 33.0443 297.89 30.8652 300.191C32.6597 297.572 34.5854 295.046 36.635 292.622C38.5595 290.125 40.613 287.729 42.7873 285.446Z" fill="#E0E0E0"/>
<path d="M30.875 168.366C32.9323 170.562 34.8655 172.872 36.6654 175.284C38.596 177.596 40.3978 180.012 42.0629 182.522C40.0091 180.322 38.0761 178.013 36.2725 175.604C34.3459 173.289 32.5442 170.873 30.875 168.366Z" fill="#E0E0E0"/>
<path d="M89.256 203.626H66.3633V268.633H89.256V203.626Z" fill="#E0E0E0"/>
<path d="M78.4289 77.1984C69.2761 80.9584 61.9883 88.1949 58.1638 97.3209C54.3394 106.447 54.2905 116.717 58.028 125.879L81.2 182.439L91.54 178.189L68.3784 121.619C65.7567 115.216 65.7861 108.033 68.4602 101.651C71.1342 95.2698 76.2339 90.2118 82.6372 87.5901C89.0406 84.9684 96.2232 84.9979 102.605 87.6719C108.986 90.346 114.045 95.4456 116.666 101.849L127.058 97.5889C123.3 88.4471 116.072 81.1678 106.957 77.3457C97.8414 73.5237 87.583 73.4707 78.4289 77.1984Z" fill="#F26A7E"/>
<g opacity="0.3">
<path opacity="0.3" d="M78.4289 77.1984C69.2761 80.9584 61.9883 88.1949 58.1638 97.3209C54.3394 106.447 54.2905 116.717 58.028 125.879L81.2 182.439L91.54 178.189L68.3784 121.619C65.7567 115.216 65.7861 108.033 68.4602 101.651C71.1342 95.2698 76.2339 90.2118 82.6372 87.5901C89.0406 84.9684 96.2232 84.9979 102.605 87.6719C108.986 90.346 114.045 95.4456 116.666 101.849L127.058 97.5889C123.3 88.4471 116.072 81.1678 106.957 77.3457C97.8414 73.5237 87.583 73.4707 78.4289 77.1984Z" fill="black"/>
</g>
<path d="M146.431 126.344L64.4559 159.914C61.3855 161.172 59.9158 164.68 61.1732 167.751L81.0795 216.36C82.3369 219.43 85.8452 220.9 88.9156 219.642L170.891 186.072C173.961 184.815 175.431 181.306 174.174 178.236L154.267 129.627C153.01 126.556 149.502 125.087 146.431 126.344Z" fill="#F26A7E"/>
<g opacity="0.5">
<path opacity="0.5" d="M122.251 162.028C121.663 160.577 120.682 159.319 119.418 158.395C118.154 157.472 116.657 156.92 115.097 156.801C113.536 156.682 111.973 157.002 110.584 157.724C109.194 158.445 108.034 159.541 107.234 160.886C106.434 162.231 106.025 163.773 106.054 165.339C106.083 166.904 106.548 168.43 107.398 169.745C108.247 171.06 109.447 172.111 110.862 172.781C112.277 173.451 113.85 173.713 115.406 173.536L120.162 185.169L124.412 183.432L119.645 171.799C121.085 170.677 122.119 169.115 122.589 167.351C123.06 165.587 122.941 163.718 122.251 162.028Z" fill="black"/>
</g>
<path d="M85.9874 214.224C85.7703 214.317 81.5206 204.422 76.4953 192.138C71.4701 179.854 67.5512 169.824 67.7684 169.731C67.9855 169.638 72.2353 179.533 77.2605 191.828C82.2857 204.122 86.1943 214.141 85.9874 214.224Z" fill="#FAFAFA"/>
<path d="M112.459 177.693C112.081 177.719 111.701 177.67 111.342 177.548C110.338 177.281 109.38 176.866 108.498 176.318C107.002 175.436 105.719 174.233 104.743 172.796C103.766 171.36 103.12 169.725 102.85 168.009C102.58 166.293 102.693 164.538 103.182 162.871C103.671 161.204 104.522 159.666 105.676 158.367C106.336 157.559 107.122 156.861 108.002 156.299C108.623 155.917 109.036 155.772 109.036 155.813C107.999 156.7 107.031 157.664 106.141 158.698C105.116 159.966 104.369 161.435 103.947 163.01C103.525 164.585 103.438 166.231 103.691 167.841C103.944 169.452 104.533 170.991 105.418 172.36C106.303 173.73 107.465 174.898 108.829 175.79C109.99 176.515 111.203 177.151 112.459 177.693Z" fill="#FAFAFA"/>
<path d="M46.4693 187.888L46.976 186.42L47.9376 187.64C48.711 188.601 49.7448 189.319 50.9155 189.708L52.3838 190.215L51.1637 191.176C50.2081 191.955 49.4913 192.987 49.0957 194.154L48.5993 195.654L47.5653 194.444C46.7852 193.485 45.7489 192.768 44.5771 192.376L43.1191 191.869L44.3289 190.907C45.3176 190.128 46.0606 189.079 46.4693 187.888Z" fill="#F26A7E"/>
<path d="M95.5427 130.201L95.8322 129.353L96.3906 130.056C96.837 130.634 97.4399 131.072 98.1277 131.318L98.9756 131.607L98.2725 132.176C97.7049 132.621 97.2777 133.221 97.042 133.903L96.7525 134.751L96.1631 134.006C95.7201 133.439 95.1194 133.014 94.4363 132.786L93.5781 132.486L94.2916 131.928C94.8647 131.483 95.2988 130.884 95.5427 130.201Z" fill="#F26A7E"/>
<path d="M36.532 137.388L37.3799 134.916L39.0033 136.984C40.2965 138.62 42.0342 139.848 44.0078 140.521L46.4688 141.368L44.4008 142.992C42.7651 144.287 41.5344 146.024 40.8541 147.996L40.0063 150.457L38.3932 148.389C37.1006 146.751 35.3631 145.519 33.3887 144.843L30.9277 143.995L32.9957 142.382C34.6256 141.087 35.8523 139.355 36.532 137.388Z" fill="#F26A7E"/>
<path d="M321.637 496.217L169.008 496.124C160.192 496.118 151.74 492.612 145.508 486.377C139.276 480.141 135.775 471.686 135.775 462.87L135.848 80.2177C135.849 75.8499 136.711 71.5252 138.384 67.4906C140.057 63.4559 142.509 59.7904 145.598 56.7034C148.688 53.6163 152.356 51.1682 156.392 49.499C160.429 47.8297 164.754 46.9719 169.122 46.9746L321.751 47.0573C330.566 47.0628 339.019 50.5687 345.251 56.8044C351.483 63.04 354.983 71.495 354.983 80.3108L354.911 462.974C354.91 467.341 354.048 471.666 352.375 475.701C350.702 479.735 348.25 483.401 345.16 486.488C342.07 489.575 338.403 492.023 334.366 493.692C330.33 495.362 326.005 496.219 321.637 496.217Z" fill="#263238"/>
<path d="M321.576 60.5923H292.003C291.038 60.6125 290.087 60.8227 289.203 61.211C288.319 61.5994 287.521 62.1582 286.853 62.8554C286.186 63.5527 285.662 64.3747 285.313 65.2745C284.964 66.1743 284.795 67.1342 284.817 68.0992V73.4139C284.859 75.3621 284.125 77.2471 282.777 78.6547C281.43 80.0623 279.579 80.8773 277.631 80.9208H219.954C218.985 80.9046 218.028 80.6971 217.139 80.3102C216.25 79.9233 215.446 79.3645 214.773 78.6661C214.101 77.9676 213.573 77.1431 213.22 76.24C212.867 75.3369 212.696 74.373 212.716 73.4036V68.0475C212.738 67.0819 212.57 66.1216 212.22 65.2212C211.871 64.3208 211.348 63.4981 210.68 62.8C210.013 62.1019 209.215 61.5422 208.331 61.1527C207.447 60.7633 206.495 60.5518 205.53 60.5303H169.267C163.1 60.5275 157.183 62.9708 152.814 67.3243C148.444 71.6778 145.98 77.5862 145.961 83.7539L145.889 457.255C145.889 463.429 148.341 469.351 152.705 473.717C157.07 478.084 162.99 480.538 169.164 480.541L321.493 480.634C324.552 480.637 327.582 480.036 330.409 478.867C333.236 477.698 335.804 475.983 337.968 473.821C340.132 471.658 341.848 469.09 343.018 466.263C344.189 463.437 344.79 460.408 344.789 457.348L344.861 83.8573C344.856 77.6852 342.4 71.7677 338.034 67.4052C333.667 63.0428 327.748 60.5923 321.576 60.5923Z" fill="white"/>
<path d="M231.235 452.116C231.241 452.695 231.076 453.263 230.759 453.747C230.443 454.232 229.99 454.612 229.457 454.839C228.925 455.066 228.337 455.13 227.769 455.023C227.2 454.916 226.675 454.643 226.262 454.238C225.848 453.833 225.564 453.315 225.445 452.749C225.326 452.182 225.378 451.593 225.594 451.056C225.81 450.519 226.18 450.058 226.658 449.732C227.135 449.405 227.699 449.227 228.278 449.221C229.053 449.216 229.799 449.517 230.353 450.059C230.907 450.602 231.224 451.341 231.235 452.116Z" fill="#263238"/>
<path d="M247.612 451.982C247.618 452.561 247.452 453.129 247.135 453.614C246.819 454.099 246.365 454.479 245.832 454.706C245.299 454.932 244.711 454.996 244.142 454.888C243.573 454.781 243.048 454.506 242.635 454.1C242.222 453.695 241.939 453.175 241.821 452.608C241.703 452.041 241.756 451.452 241.974 450.915C242.191 450.378 242.563 449.918 243.042 449.592C243.521 449.267 244.086 449.091 244.665 449.087C245.439 449.081 246.184 449.383 246.737 449.926C247.289 450.468 247.604 451.208 247.612 451.982Z" fill="#263238"/>
<path d="M264.003 451.858C264.009 452.437 263.843 453.005 263.526 453.49C263.209 453.975 262.756 454.355 262.223 454.582C261.69 454.808 261.101 454.872 260.532 454.764C259.963 454.657 259.439 454.382 259.026 453.976C258.613 453.571 258.329 453.051 258.212 452.484C258.094 451.917 258.147 451.328 258.364 450.791C258.582 450.254 258.953 449.794 259.433 449.468C259.912 449.143 260.477 448.967 261.056 448.963C261.83 448.957 262.575 449.259 263.127 449.802C263.68 450.344 263.994 451.084 264.003 451.858Z" fill="#263238"/>
<path d="M322.484 98.3127C322.484 98.3954 318.628 98.4988 313.882 98.5402C309.136 98.5815 305.289 98.5402 305.289 98.4471C305.289 98.3541 309.167 98.23 313.882 98.23C318.597 98.23 322.474 98.23 322.484 98.3127Z" fill="#263238"/>
<path d="M322.516 102.707C322.516 102.8 318.669 102.904 313.923 102.945C309.177 102.986 305.32 102.945 305.32 102.852C305.32 102.759 309.167 102.656 313.923 102.614C318.68 102.573 322.516 102.614 322.516 102.707Z" fill="#263238"/>
<path d="M322.609 107.102C322.609 107.195 318.753 107.298 314.007 107.339C309.261 107.381 305.414 107.339 305.414 107.246C305.414 107.153 309.261 107.06 314.007 107.019C318.753 106.978 322.547 107.019 322.609 107.102Z" fill="#263238"/>
<path d="M166.113 112.127H166.465H167.499L171.18 112.044L171.087 112.137C171.087 111.331 171.087 110.442 171.087 109.48C171.061 108.97 171.061 108.459 171.087 107.95C171.141 107.658 171.288 107.391 171.506 107.19C171.724 106.989 172.001 106.864 172.297 106.833C172.886 106.833 173.413 106.833 174.054 106.833C174.388 106.883 174.692 107.052 174.91 107.308C175.129 107.565 175.247 107.892 175.243 108.229C175.243 109.47 175.243 110.772 175.243 112.117L175.088 111.962H179.721L179.566 112.117C179.566 110.255 179.566 108.322 179.566 106.347C179.566 105.861 179.566 105.313 179.566 104.879C179.557 104.666 179.493 104.459 179.379 104.279C179.235 104.097 179.076 103.928 178.904 103.772C178.221 103.1 177.549 102.428 176.836 101.777L174.882 99.8534C174.571 99.5329 174.251 99.2227 173.941 98.9125C173.63 98.6023 173.362 98.2714 172.969 98.199C172.792 98.1561 172.607 98.1524 172.429 98.1881C172.25 98.2239 172.082 98.2981 171.935 98.4058C171.656 98.6436 171.356 98.9745 171.076 99.2537L169.412 100.929C168.378 101.963 167.282 102.997 166.486 103.948C166.255 104.496 166.177 105.096 166.258 105.685C166.258 106.264 166.258 106.802 166.258 107.319C166.258 108.353 166.258 109.201 166.258 109.945C166.258 110.69 166.258 111.186 166.258 111.631C166.258 112.075 166.258 112.23 166.258 112.23C166.258 112.23 166.258 112.044 166.258 111.672C166.258 111.3 166.258 110.638 166.258 110.018C166.258 109.397 166.258 108.384 166.206 107.371C166.206 106.843 166.206 106.337 166.206 105.706C166.206 105.406 166.206 105.106 166.206 104.796C166.205 104.458 166.294 104.126 166.465 103.834C167.323 102.8 168.347 101.859 169.401 100.732L171.045 99.0469C171.345 98.7574 171.593 98.4575 171.935 98.1576C172.123 98.0168 172.341 97.9205 172.572 97.8757C172.803 97.8309 173.041 97.8389 173.269 97.8991C173.7 98.0539 174.08 98.3261 174.365 98.685L175.316 99.6156L177.28 101.539L179.348 103.534C179.539 103.703 179.712 103.89 179.865 104.093C180.01 104.323 180.092 104.586 180.103 104.858C180.103 105.354 180.103 105.892 180.103 106.337C180.103 108.312 180.103 110.245 180.103 112.106V112.261H179.938H175.306H175.161V112.106C175.161 110.762 175.161 109.47 175.161 108.229C175.165 107.956 175.071 107.69 174.897 107.479C174.722 107.269 174.479 107.128 174.209 107.081C173.672 107.081 173.041 107.081 172.524 107.081C172.276 107.1 172.042 107.2 171.855 107.364C171.669 107.528 171.541 107.748 171.49 107.991C171.49 108.467 171.49 109.025 171.49 109.47C171.49 110.431 171.49 111.32 171.49 112.137V112.23H171.397H167.664H166.475C166.351 112.209 166.23 112.175 166.113 112.127Z" fill="#263238"/>
<path d="M205.219 200.803C205.219 204.391 202.531 206.624 198.229 206.624H194.993V211.05H191.291V194.971H198.25C202.531 194.971 205.219 197.204 205.219 200.803ZM201.445 200.803C201.445 199.035 200.297 198.001 198.022 198.001H194.993V203.584H198.022C200.297 203.584 201.445 202.55 201.445 200.803Z" fill="#263238"/>
<path d="M218.423 203.998V211.05H215.073V209.509C214.658 210.108 214.09 210.584 213.428 210.888C212.766 211.192 212.034 211.312 211.309 211.236C208.414 211.236 206.688 209.633 206.688 207.493C206.688 205.352 208.228 203.791 211.992 203.791H214.846C214.846 202.25 213.926 201.361 211.992 201.361C210.713 201.35 209.466 201.753 208.435 202.509L207.142 200.007C208.732 198.987 210.59 198.465 212.478 198.507C216.242 198.528 218.423 200.255 218.423 203.998ZM214.846 207.151V205.89H212.385C210.71 205.89 210.182 206.5 210.182 207.327C210.182 208.154 210.937 208.868 212.199 208.868C212.766 208.905 213.33 208.759 213.807 208.449C214.284 208.14 214.649 207.685 214.846 207.151Z" fill="#263238"/>
<path d="M220.471 209.902L221.67 207.327C222.966 208.106 224.449 208.521 225.961 208.527C227.616 208.527 228.236 208.093 228.236 207.4C228.236 205.332 220.771 207.4 220.771 202.509C220.771 200.162 222.839 198.507 226.489 198.507C228.139 198.475 229.772 198.848 231.245 199.593L230.056 202.137C228.966 201.527 227.737 201.21 226.489 201.216C224.886 201.216 224.193 201.723 224.193 202.375C224.193 204.443 231.659 202.437 231.659 207.307C231.659 209.602 229.518 211.236 225.827 211.236C223.955 211.274 222.106 210.814 220.471 209.902Z" fill="#263238"/>
<path d="M232.65 209.902L233.839 207.327C235.14 208.105 236.626 208.519 238.141 208.527C239.795 208.527 240.416 208.093 240.416 207.4C240.416 205.332 232.95 207.4 232.95 202.509C232.95 200.162 235.018 198.507 238.668 198.507C240.319 198.476 241.951 198.849 243.425 199.593L242.225 202.137C241.14 201.525 239.914 201.207 238.668 201.217C237.055 201.217 236.373 201.723 236.373 202.375C236.373 204.443 243.838 202.437 243.838 207.307C243.838 209.602 241.698 211.236 238.007 211.236C236.134 211.276 234.285 210.815 232.65 209.902Z" fill="#263238"/>
<path d="M265.677 198.693L261.2 211.101H257.757L254.975 203.429L252.101 211.101H248.658L244.201 198.693H247.582L250.498 207.058L253.528 198.693H256.557L259.504 207.058L262.513 198.693H265.677Z" fill="#263238"/>
<path d="M266.102 204.877C266.102 201.154 268.966 198.507 272.895 198.507C276.824 198.507 279.678 201.154 279.678 204.877C279.678 208.599 276.824 211.236 272.895 211.236C268.966 211.236 266.102 208.599 266.102 204.877ZM276.049 204.877C275.998 204.264 275.771 203.679 275.394 203.194C275.016 202.708 274.506 202.343 273.925 202.143C273.343 201.943 272.716 201.917 272.12 202.068C271.524 202.218 270.985 202.539 270.568 202.991C270.152 203.443 269.876 204.007 269.774 204.613C269.673 205.22 269.75 205.842 269.997 206.405C270.244 206.968 270.65 207.447 271.164 207.784C271.679 208.12 272.28 208.299 272.895 208.299C273.338 208.314 273.778 208.233 274.187 208.062C274.596 207.892 274.964 207.636 275.265 207.312C275.567 206.988 275.796 206.603 275.936 206.183C276.077 205.763 276.126 205.317 276.08 204.877H276.049Z" fill="#263238"/>
<path d="M289.739 198.528V201.837C289.439 201.837 289.211 201.837 288.932 201.837C286.957 201.837 285.644 202.871 285.644 205.28V211.112H282.066V198.704H285.489V200.337C285.998 199.714 286.65 199.223 287.39 198.908C288.131 198.593 288.937 198.462 289.739 198.528Z" fill="#263238"/>
<path d="M304.349 194.01V211.05H300.895V209.633C300.416 210.176 299.82 210.602 299.152 210.88C298.484 211.157 297.761 211.279 297.039 211.236C295.395 211.17 293.841 210.47 292.702 209.284C291.562 208.098 290.926 206.517 290.926 204.872C290.926 203.227 291.562 201.646 292.702 200.459C293.841 199.273 295.395 198.574 297.039 198.507C297.726 198.473 298.412 198.59 299.05 198.849C299.688 199.108 300.261 199.503 300.73 200.007V194.01H304.349ZM300.833 204.877C300.783 204.262 300.554 203.675 300.174 203.189C299.795 202.703 299.281 202.338 298.697 202.14C298.113 201.941 297.483 201.918 296.886 202.073C296.289 202.228 295.75 202.554 295.336 203.011C294.921 203.468 294.65 204.036 294.554 204.646C294.459 205.255 294.543 205.879 294.798 206.441C295.053 207.003 295.466 207.479 295.987 207.809C296.508 208.139 297.115 208.309 297.731 208.299C298.167 208.302 298.599 208.212 298.997 208.037C299.396 207.861 299.754 207.604 300.046 207.281C300.339 206.958 300.56 206.577 300.696 206.163C300.832 205.748 300.878 205.31 300.833 204.877Z" fill="#263238"/>
<path d="M331.914 224.378C331.914 224.523 293.656 224.647 246.413 224.647C199.169 224.647 160.891 224.523 160.891 224.378C160.891 224.233 199.149 224.109 246.413 224.109C293.677 224.109 331.914 224.202 331.914 224.378Z" fill="#E0E0E0"/>
<path d="M327.934 381.784C327.934 381.939 289.676 382.053 242.422 382.053C195.168 382.053 156.91 381.939 156.91 381.784C156.91 381.629 195.168 381.515 242.422 381.515C289.676 381.515 327.934 381.639 327.934 381.784Z" fill="#E0E0E0"/>
<path d="M289.252 393.613C289.252 393.758 267.983 393.882 241.75 393.882C215.517 393.882 194.248 393.758 194.248 393.613C194.248 393.468 215.507 393.344 241.75 393.344C267.993 393.344 289.252 393.458 289.252 393.613Z" fill="#E0E0E0"/>
<path d="M176.297 270.184L179.533 271.932L178.076 274.372L174.808 272.438L174.87 276.037H172.078V272.407L168.801 274.372L167.405 271.942L170.61 270.184L167.363 268.395L168.79 265.966L172.068 267.92V264.301H174.86L174.798 267.92L178.065 265.966L179.523 268.395L176.297 270.184Z" fill="#F26A7E"/>
<path d="M213.439 270.184L216.676 271.932L215.218 274.372L211.971 272.438V276.078H209.169V272.449L205.901 274.413L204.547 271.942L207.835 270.184L204.599 268.395L206.025 265.966L209.293 267.92V264.301H211.971L211.909 267.92L215.176 265.966L216.634 268.395L213.439 270.184Z" fill="#F26A7E"/>
<path d="M249.588 270.184L252.824 271.932L251.366 274.372L248.099 272.438L248.161 276.078H245.369V272.449L242.091 274.413L240.695 271.942L243.942 270.194L240.695 268.406L242.122 265.976L245.4 267.93V264.311H248.161L248.099 267.93L251.366 265.976L252.824 268.406L249.588 270.184Z" fill="#F26A7E"/>
<path d="M284.609 270.184L287.846 271.932L286.419 274.372L283.151 272.438L283.213 276.037H280.422V272.407L277.154 274.372L275.717 271.942L278.964 270.194L275.717 268.406L277.144 265.976L280.411 267.93V264.311H283.203L283.141 267.93L286.408 265.976L287.866 268.406L284.609 270.184Z" fill="#F26A7E"/>
<path d="M319.351 270.184L322.608 271.942L321.15 274.382L317.883 272.449L317.934 276.047H315.142V272.418L311.875 274.382L310.469 271.942L313.705 270.194L310.469 268.406L311.896 265.976L315.163 267.93V264.311H317.955L317.903 267.93L321.171 265.976L322.629 268.406L319.351 270.184Z" fill="#F26A7E"/>
<path d="M182.058 292.705H166.392C164.454 292.702 162.597 291.931 161.226 290.561C159.856 289.19 159.085 287.332 159.082 285.394V257.58C159.085 255.643 159.856 253.786 161.227 252.417C162.598 251.049 164.455 250.28 166.392 250.28H182.058C183.995 250.28 185.852 251.049 187.223 252.417C188.594 253.786 189.365 255.643 189.368 257.58V285.384C189.368 287.324 188.598 289.184 187.227 290.557C185.857 291.93 183.997 292.702 182.058 292.705ZM166.392 250.797C164.592 250.797 162.866 251.511 161.592 252.783C160.319 254.055 159.602 255.78 159.599 257.58V285.384C159.602 287.185 160.318 288.911 161.592 290.185C162.865 291.458 164.592 292.175 166.392 292.177H182.058C183.859 292.177 185.587 291.462 186.861 290.188C188.135 288.914 188.851 287.186 188.851 285.384V257.569C188.848 255.77 188.131 254.044 186.858 252.773C185.584 251.501 183.857 250.786 182.058 250.786L166.392 250.797Z" fill="#263238"/>
<path d="M218.445 292.705H202.779C201.815 292.709 200.86 292.522 199.968 292.156C199.077 291.79 198.266 291.252 197.583 290.571C196.9 289.891 196.358 289.083 195.988 288.193C195.618 287.302 195.428 286.348 195.428 285.384V257.569C195.43 255.632 196.202 253.776 197.573 252.407C198.943 251.038 200.801 250.269 202.738 250.269H218.403C220.34 250.269 222.198 251.038 223.569 252.407C224.939 253.776 225.711 255.632 225.714 257.569V285.384C225.714 287.317 224.949 289.171 223.588 290.542C222.226 291.914 220.377 292.691 218.445 292.705ZM202.779 250.797C200.98 250.797 199.253 251.511 197.979 252.783C196.706 254.054 195.989 255.78 195.986 257.58V285.384C195.989 287.185 196.705 288.911 197.979 290.185C199.252 291.458 200.979 292.175 202.779 292.177H218.445C220.246 292.177 221.974 291.462 223.248 290.188C224.522 288.914 225.238 287.186 225.238 285.384V257.569C225.235 255.769 224.518 254.044 223.245 252.772C221.971 251.501 220.244 250.786 218.445 250.786L202.779 250.797Z" fill="#263238"/>
<path d="M253.837 292.705H238.162C236.224 292.702 234.366 291.931 232.996 290.561C231.625 289.19 230.854 287.332 230.852 285.394V257.58C230.854 255.643 231.626 253.786 232.996 252.417C234.367 251.049 236.225 250.28 238.162 250.28H253.837C255.773 250.283 257.628 251.052 258.996 252.421C260.365 253.789 261.135 255.645 261.137 257.58V285.384C261.139 286.344 260.951 287.295 260.585 288.182C260.219 289.07 259.681 289.877 259.004 290.556C258.326 291.236 257.521 291.776 256.634 292.144C255.748 292.513 254.797 292.703 253.837 292.705ZM238.162 250.797C236.362 250.797 234.636 251.511 233.362 252.783C232.088 254.055 231.371 255.78 231.369 257.58V285.384C231.371 287.185 232.088 288.911 233.361 290.185C234.635 291.458 236.361 292.175 238.162 292.177H253.837C255.637 292.175 257.363 291.458 258.634 290.184C259.906 288.91 260.62 287.184 260.62 285.384V257.569C260.62 255.771 259.906 254.045 258.634 252.773C257.362 251.501 255.636 250.786 253.837 250.786L238.162 250.797Z" fill="#263238"/>
<path d="M289.625 292.705H273.949C272.011 292.702 270.153 291.931 268.783 290.561C267.412 289.19 266.641 287.332 266.639 285.394V257.58C266.641 255.643 267.413 253.786 268.783 252.417C270.154 251.049 272.012 250.28 273.949 250.28H289.625C291.56 250.283 293.415 251.052 294.783 252.421C296.152 253.789 296.922 255.645 296.925 257.58V285.384C296.926 286.344 296.738 287.295 296.372 288.182C296.006 289.07 295.469 289.877 294.791 290.556C294.113 291.236 293.308 291.776 292.421 292.144C291.535 292.513 290.585 292.703 289.625 292.705ZM273.949 250.797C272.149 250.797 270.423 251.511 269.149 252.783C267.875 254.055 267.158 255.78 267.156 257.58V285.384C267.158 287.185 267.875 288.911 269.148 290.185C270.422 291.458 272.148 292.175 273.949 292.177H289.625C291.424 292.175 293.15 291.458 294.421 290.184C295.693 288.91 296.408 287.184 296.408 285.384V257.569C296.408 255.771 295.693 254.045 294.421 252.773C293.149 251.501 291.423 250.786 289.625 250.786L273.949 250.797Z" fill="#263238"/>
<path d="M324.366 292.705H308.701C306.763 292.702 304.905 291.931 303.535 290.561C302.164 289.19 301.393 287.332 301.391 285.394V257.58C301.393 255.643 302.165 253.786 303.535 252.417C304.906 251.049 306.764 250.28 308.701 250.28H324.366C326.303 250.28 328.161 251.049 329.532 252.417C330.902 253.786 331.674 255.643 331.676 257.58V285.384C331.676 287.324 330.907 289.184 329.536 290.557C328.165 291.93 326.306 292.702 324.366 292.705ZM308.701 250.797C306.901 250.797 305.175 251.511 303.901 252.783C302.627 254.055 301.91 255.78 301.908 257.58V285.384C301.908 287.186 302.623 288.914 303.897 290.188C305.171 291.462 306.899 292.177 308.701 292.177H324.366C326.167 292.175 327.893 291.458 329.167 290.185C330.44 288.911 331.157 287.185 331.159 285.384V257.569C331.157 255.77 330.44 254.044 329.166 252.773C327.892 251.501 326.166 250.786 324.366 250.786L308.701 250.797Z" fill="#263238"/>
<path d="M323.219 326.289H171.004C164.557 326.289 159.33 331.516 159.33 337.963V345.366C159.33 351.814 164.557 357.04 171.004 357.04H323.219C329.666 357.04 334.893 351.814 334.893 345.366V337.963C334.893 331.516 329.666 326.289 323.219 326.289Z" fill="#F26A7E"/>
<path d="M224.947 335.481H229.673C233.074 335.481 235.411 337.549 235.411 340.651C235.411 343.753 233.074 345.821 229.673 345.821H224.947V335.481ZM229.549 343.909C230.404 343.909 231.225 343.569 231.83 342.964C232.435 342.359 232.775 341.538 232.775 340.682C232.775 339.827 232.435 339.006 231.83 338.401C231.225 337.796 230.404 337.456 229.549 337.456H227.346V343.909H229.549Z" fill="white"/>
<path d="M236.467 341.892C236.413 341.012 236.625 340.135 237.075 339.376C237.525 338.617 238.193 338.011 238.992 337.636C239.79 337.261 240.683 337.135 241.555 337.273C242.426 337.411 243.236 337.808 243.879 338.412C244.522 339.016 244.969 339.799 245.162 340.66C245.355 341.521 245.285 342.42 244.961 343.241C244.637 344.062 244.074 344.766 243.345 345.263C242.616 345.76 241.754 346.027 240.872 346.028C240.307 346.065 239.74 345.985 239.207 345.794C238.673 345.603 238.185 345.304 237.772 344.916C237.359 344.528 237.03 344.06 236.806 343.54C236.581 343.019 236.466 342.459 236.467 341.892ZM242.909 341.892C242.909 341.344 242.691 340.818 242.303 340.43C241.915 340.042 241.389 339.824 240.841 339.824C240.293 339.824 239.767 340.042 239.379 340.43C238.991 340.818 238.773 341.344 238.773 341.892C238.773 342.441 238.991 342.967 239.379 343.354C239.767 343.742 240.293 343.96 240.841 343.96C241.389 343.96 241.915 343.742 242.303 343.354C242.691 342.967 242.909 342.441 242.909 341.892Z" fill="white"/>
<path d="M254.975 341.313V345.883H252.659V341.665C252.659 340.372 252.059 339.783 251.036 339.783C250.012 339.783 249.123 340.465 249.123 341.933V345.883H246.807V337.891H249.019V338.831C249.364 338.484 249.778 338.212 250.233 338.034C250.689 337.856 251.177 337.775 251.666 337.797C253.548 337.777 254.975 338.873 254.975 341.313Z" fill="white"/>
<path d="M264.953 342.543H258.904C259.03 343.04 259.33 343.474 259.749 343.768C260.169 344.063 260.679 344.197 261.189 344.146C261.559 344.162 261.928 344.102 262.273 343.969C262.619 343.835 262.932 343.631 263.195 343.371L264.436 344.715C264.014 345.158 263.5 345.504 262.93 345.727C262.36 345.95 261.748 346.046 261.137 346.007C258.366 346.007 256.567 344.27 256.567 341.871C256.556 341.314 256.661 340.76 256.873 340.244C257.086 339.729 257.402 339.263 257.803 338.875C258.203 338.487 258.68 338.185 259.202 337.989C259.724 337.793 260.281 337.707 260.838 337.735C261.388 337.709 261.937 337.797 262.451 337.996C262.965 338.194 263.432 338.498 263.821 338.888C264.211 339.277 264.514 339.744 264.713 340.258C264.911 340.771 265 341.321 264.974 341.871C264.994 342.099 264.963 342.347 264.953 342.543ZM258.873 341.22H262.812C262.736 340.752 262.497 340.327 262.136 340.02C261.775 339.713 261.316 339.544 260.843 339.544C260.369 339.544 259.911 339.713 259.55 340.02C259.189 340.327 258.949 340.752 258.873 341.22Z" fill="white"/>
<path d="M245.38 179.471C262.541 179.471 276.452 165.56 276.452 148.4C276.452 131.239 262.541 117.328 245.38 117.328C228.22 117.328 214.309 131.239 214.309 148.4C214.309 165.56 228.22 179.471 245.38 179.471Z" fill="#F26A7E"/>
<path d="M239.888 142.744H239.371V139.849C239.371 138.242 240.009 136.7 241.146 135.564C242.282 134.428 243.823 133.789 245.43 133.789C247.037 133.789 248.579 134.428 249.715 135.564C250.851 136.7 251.49 138.242 251.49 139.849V142.206H250.973V139.849C250.973 138.379 250.389 136.969 249.349 135.93C248.31 134.89 246.9 134.306 245.43 134.306C243.96 134.306 242.551 134.89 241.511 135.93C240.472 136.969 239.888 138.379 239.888 139.849V142.744Z" fill="white"/>
<path d="M253.084 163.01H237.677C237.001 163.007 236.352 162.737 235.874 162.259C235.396 161.781 235.126 161.133 235.123 160.456V145.039C235.126 144.363 235.396 143.715 235.874 143.236C236.352 142.758 237.001 142.488 237.677 142.485H253.084C253.76 142.488 254.408 142.758 254.887 143.236C255.365 143.715 255.635 144.363 255.638 145.039V160.456C255.635 161.133 255.365 161.781 254.887 162.259C254.408 162.737 253.76 163.007 253.084 163.01ZM237.677 143.002C237.129 143.002 236.603 143.22 236.215 143.608C235.827 143.996 235.609 144.522 235.609 145.07V160.487C235.609 161.036 235.827 161.562 236.215 161.949C236.603 162.337 237.129 162.555 237.677 162.555H253.084C253.632 162.555 254.158 162.337 254.546 161.949C254.934 161.562 255.152 161.036 255.152 160.487V145.039C255.152 144.491 254.934 143.965 254.546 143.577C254.158 143.189 253.632 142.971 253.084 142.971L237.677 143.002Z" fill="white"/>
<path d="M245.451 153.249C244.972 153.249 244.504 153.107 244.107 152.841C243.709 152.575 243.399 152.198 243.215 151.755C243.032 151.313 242.984 150.827 243.078 150.357C243.171 149.888 243.402 149.457 243.74 149.119C244.078 148.78 244.509 148.55 244.979 148.456C245.448 148.363 245.935 148.411 246.377 148.594C246.819 148.777 247.197 149.087 247.463 149.485C247.728 149.883 247.87 150.351 247.87 150.829C247.87 151.471 247.615 152.087 247.162 152.54C246.708 152.994 246.093 153.249 245.451 153.249ZM245.451 148.937C245.074 148.937 244.706 149.049 244.393 149.259C244.08 149.468 243.836 149.766 243.692 150.114C243.548 150.462 243.511 150.845 243.586 151.215C243.66 151.584 243.842 151.923 244.109 152.189C244.376 152.454 244.716 152.635 245.086 152.707C245.456 152.779 245.839 152.74 246.186 152.595C246.534 152.449 246.83 152.204 247.038 151.889C247.246 151.575 247.355 151.206 247.353 150.829C247.357 150.577 247.311 150.326 247.218 150.092C247.124 149.857 246.984 149.644 246.807 149.464C246.63 149.284 246.419 149.141 246.186 149.044C245.953 148.946 245.703 148.896 245.451 148.896V148.937Z" fill="white"/>
<path d="M245.638 152.887H245.121V157.251H245.638V152.887Z" fill="white"/>
<path d="M476.674 496.496C476.674 496.651 376.2 496.765 252.296 496.765C128.392 496.765 27.918 496.651 27.918 496.496C27.918 496.341 128.371 496.227 252.296 496.227C376.221 496.227 476.674 496.32 476.674 496.496Z" fill="#263238"/>
<path d="M454.969 270.076C443.215 276.174 434.198 286.656 427.713 298.195C421.229 309.733 417.05 322.419 412.95 334.99L409.293 399.848C422.978 376.567 433.96 349.209 436.924 322.384L427.838 321.567C433.948 320.636 439.07 316.218 442.329 310.971C445.589 305.724 447.27 299.683 448.905 293.732L437.775 295.367C446.544 289.46 452.702 280.403 454.969 270.076Z" fill="#455A64"/>
<path d="M454.969 270.076C443.215 276.174 434.198 286.656 427.713 298.195C421.229 309.733 417.05 322.419 412.95 334.99L409.293 399.848C422.978 376.567 433.96 349.209 436.924 322.384L427.838 321.567C433.948 320.636 439.07 316.218 442.329 310.971C445.589 305.724 447.27 299.683 448.905 293.732L437.775 295.367C446.544 289.46 452.702 280.403 454.969 270.076Z" fill="#F26A7E"/>
<g opacity="0.3">
<path opacity="0.3" d="M454.969 270.076C443.215 276.174 434.198 286.656 427.713 298.195C421.229 309.733 417.05 322.419 412.95 334.99L409.293 399.848C422.978 376.567 433.96 349.209 436.924 322.384L427.838 321.567C433.948 320.636 439.07 316.218 442.329 310.971C445.589 305.724 447.27 299.683 448.905 293.732L437.775 295.367C446.544 289.46 452.702 280.403 454.969 270.076Z" fill="black"/>
</g>
<path d="M407.271 415.055C407.271 415.055 377.573 379.52 377.914 345.586H389.918C389.918 345.586 376.88 337.023 377.914 332.219C378.947 327.416 379.288 309.256 379.288 309.256L390.259 312.005C390.259 312.005 382.036 307.894 381.003 301.375C379.969 294.856 383.399 264.704 383.399 264.704C383.399 264.704 396.766 278.764 400.877 293.153C404.988 307.541 415.788 324.338 412.62 368.209C409.451 412.08 407.271 415.055 407.271 415.055Z" fill="#F26A7E"/>
<path d="M422.318 418.405C422.318 418.405 454.492 396.975 461.635 369.628L451.993 367.005C451.993 367.005 464.349 362.962 464.565 358.885C464.781 354.808 468.483 340.124 468.483 340.124L459.068 339.931C459.068 339.931 466.575 338.42 468.835 333.412C471.095 328.404 474.888 303.408 474.888 303.408C474.888 303.408 461.067 311.778 454.617 322.453C448.166 333.128 435.81 344.258 428.757 380.224C421.705 416.191 422.318 418.405 422.318 418.405Z" fill="#F26A7E"/>
<path d="M391.508 295.697C391.563 295.812 391.601 295.934 391.621 296.06C391.69 296.344 391.78 296.707 391.883 297.196C392.11 298.195 392.428 299.615 392.837 301.409C393.245 303.203 393.734 305.486 394.256 308.098C394.779 310.71 395.392 313.685 396.005 316.979C397.277 323.566 398.628 331.447 400.003 340.215C401.377 348.982 402.683 358.647 403.875 368.822C405.068 378.998 405.942 388.719 406.635 397.566C407.328 406.413 407.771 414.396 408.043 421.097C408.202 424.447 408.282 427.479 408.361 430.182C408.441 432.885 408.497 435.145 408.509 436.996C408.52 438.847 408.509 440.29 408.509 441.312V442.447C408.519 442.576 408.519 442.705 408.509 442.833C408.489 442.706 408.489 442.575 408.509 442.447C408.509 442.163 408.509 441.8 408.509 441.312C408.509 440.278 408.418 438.836 408.35 436.985C408.282 435.134 408.213 432.817 408.1 430.171C407.986 427.525 407.873 424.492 407.68 421.085C407.362 414.385 406.828 406.413 406.147 397.577C405.465 388.742 404.5 379.032 403.33 368.856C402.16 358.681 400.832 349.039 399.514 340.271C398.197 331.504 396.868 323.623 395.653 317.024C395.074 313.731 394.517 310.744 393.995 308.132C393.473 305.52 393.064 303.26 392.689 301.42C392.314 299.58 392.053 298.195 391.849 297.184C391.769 296.73 391.701 296.367 391.655 296.049C391.595 295.936 391.545 295.818 391.508 295.697Z" fill="#263238"/>
<path d="M403.148 436.814C403.148 436.814 375.972 405.992 367.545 387.356L373.905 384.642C369.294 385.403 364.558 383.415 360.981 380.406C357.404 377.396 354.769 373.433 352.191 369.526L360.584 368.107C352.876 365.901 346.312 360.814 342.254 353.899C352.157 355.535 361.117 360.975 368.499 367.766C374.356 373.402 379.679 379.568 384.399 386.186C386.769 389.369 388.834 392.768 390.565 396.339C395.131 405.777 403.16 425.492 403.148 436.814Z" fill="#F26A7E"/>
<path d="M462.068 321.351C462.039 321.462 461.997 321.569 461.943 321.669L461.534 322.566C461.136 323.384 460.58 324.531 459.887 325.973C458.433 328.937 456.367 333.242 453.879 338.591C448.882 349.277 442.307 364.189 435.811 380.974C429.315 397.759 424.159 413.227 420.661 424.492C418.912 430.171 417.538 434.713 416.618 437.871C416.164 439.415 415.801 440.63 415.539 441.505L415.233 442.447C415.207 442.557 415.169 442.664 415.119 442.765C415.125 442.654 415.144 442.543 415.176 442.436C415.233 442.186 415.312 441.868 415.414 441.471C415.642 440.585 415.971 439.358 416.38 437.802C417.231 434.611 418.537 430.012 420.23 424.368C423.637 413.011 428.724 397.554 435.209 380.747C441.694 363.939 448.371 349.039 453.471 338.398C456.014 333.071 458.138 328.79 459.66 325.905C460.409 324.474 460.989 323.339 461.42 322.498L461.886 321.624C461.999 321.487 462.056 321.34 462.068 321.351Z" fill="#263238"/>
<path d="M405.454 450.034C405.381 449.852 405.335 449.661 405.318 449.466C405.238 449.011 405.147 448.478 405.045 447.83C404.829 446.411 404.477 444.355 403.978 441.834C403.478 439.313 402.785 436.337 401.888 433.055C400.991 429.773 399.844 426.241 398.481 422.562C397.118 418.882 395.574 415.475 394.109 412.42C392.644 409.365 391.167 406.674 389.873 404.471C388.578 402.267 387.499 400.473 386.715 399.258L385.841 397.85C385.724 397.694 385.632 397.522 385.568 397.339C385.568 397.339 385.716 397.475 385.943 397.782L386.92 399.122C387.772 400.257 388.919 402.04 390.259 404.232C391.599 406.424 393.098 409.127 394.631 412.182C396.164 415.237 397.675 418.678 399.071 422.403C400.468 426.128 401.57 429.682 402.478 432.976C403.387 436.269 404 439.279 404.443 441.823C404.886 444.367 405.181 446.433 405.306 447.864C405.374 448.523 405.42 449.068 405.465 449.522C405.486 449.692 405.482 449.865 405.454 450.034Z" fill="#263238"/>
<path d="M441.319 442.777H381.844V454.906H441.319V442.777Z" fill="#455A64"/>
<path d="M387.51 454.906L393.938 495.71H429.87L435.866 454.906H387.51Z" fill="#455A64"/>
<path d="M437.661 454.905C437.661 455.087 426.407 455.223 412.54 455.223C398.674 455.223 387.408 455.087 387.408 454.905C387.408 454.724 398.663 454.587 412.54 454.587C426.418 454.587 437.661 454.735 437.661 454.905Z" fill="#263238"/>
</svg>
