<svg width="528" height="528" viewBox="0 0 528 528" fill="none" xmlns="http://www.w3.org/2000/svg">
<path d="M396.264 382.05C390.687 378.558 384.383 376.39 377.837 375.714C374.827 375.397 371.501 375.492 369.115 377.309C368.838 377.472 368.609 377.706 368.452 377.986C368.294 378.266 368.213 378.582 368.217 378.903C368.367 379.346 368.671 379.72 369.072 379.959C376.57 385.683 387.911 386.401 396.264 382.071" fill="#E0E0E0"/>
<path d="M395.788 381.533C391.52 378.398 387.537 374.893 383.887 371.057C380.219 367.199 377.643 362.436 376.421 357.255C376.104 355.692 376.009 353.887 377.012 352.641C386.516 360.033 393.908 369.632 395.788 381.533Z" fill="#E0E0E0"/>
<path d="M396.157 381.987C395.285 376.807 395.36 371.511 396.379 366.358C397.572 361.258 400.35 356.368 404.711 353.464C406.348 357.298 405.64 361.712 404.489 365.714C402.7 371.915 399.911 377.782 396.231 383.085" fill="#E0E0E0"/>
<path d="M405.504 398.651C399.864 399.337 394.943 402.304 390.719 406.127C386.484 409.984 383.535 415.049 382.271 420.636C387.815 420.299 392.515 416.413 395.915 412.009C399.315 407.605 401.681 402.832 405.419 398.735" fill="#E0E0E0"/>
<path d="M407.478 401.28C405.26 395.635 404.484 389.526 405.222 383.506C405.959 377.486 408.187 371.744 411.702 366.802C414.923 378.249 413.74 391.164 407.478 401.28Z" fill="#E0E0E0"/>
<path d="M419.77 415.948C414.613 415.633 409.476 416.84 404.997 419.417C400.518 421.994 396.894 425.829 394.574 430.447C394.257 431.07 393.983 431.862 394.405 432.421C394.622 432.634 394.887 432.79 395.178 432.877C395.469 432.964 395.776 432.977 396.074 432.918C401.037 432.59 405.44 429.612 409.073 426.202C412.706 422.791 415.874 418.873 419.887 415.927" fill="#E0E0E0"/>
<path d="M419.38 415.145C416.736 406.627 416.575 397.531 418.916 388.925C419.834 385.556 421.387 381.997 424.502 380.424C424.628 380.34 424.77 380.283 424.919 380.256C425.068 380.229 425.22 380.232 425.368 380.266C425.62 380.402 425.812 380.628 425.906 380.899C426.956 383.259 427.409 385.841 427.226 388.418C427.038 390.984 426.642 393.53 426.044 396.032C425.062 400.689 424.534 405.683 421.989 409.696C421.385 410.665 420.842 411.67 420.362 412.706C419.877 413.762 419.877 414.079 419.433 414.892" fill="#E0E0E0"/>
<path d="M451.905 419.992C449.497 410.826 452.052 399.717 457.829 392.199C458.262 391.649 458.821 391.048 459.518 391.143C460.574 391.238 460.859 392.653 460.807 393.719C460.374 403.147 457.288 412.262 451.905 420.014" fill="#E0E0E0"/>
<path d="M454.84 421.999C465.981 424.892 478.748 422.083 488.019 415.251C482.471 412.46 476.126 411.68 470.067 413.044C464.069 414.417 458.589 417.109 454.85 421.999" fill="#E0E0E0"/>
<path d="M457.311 415.895C463.552 405.726 475.505 399.084 487.417 398.482C486.044 403.329 482.063 407.099 477.575 409.369C473.087 411.639 468.071 412.643 463.119 413.593C461.197 413.963 458.557 414.374 457.311 415.885" fill="#E0E0E0"/>
<path d="M452.527 386.274C454.217 380.487 455.917 374.658 456.382 368.639C456.846 362.62 455.981 356.358 452.865 351.205C447.036 362.472 446.445 375.651 452.348 386.887" fill="#E0E0E0"/>
<path d="M472.137 376.359C478.958 363.982 492.855 354.087 506.921 352.704C501.494 366.21 486.699 376.654 472.137 376.359Z" fill="#E0E0E0"/>
<path d="M467.861 378.787C478.02 380.34 486.679 386.823 496.173 390.762C498.163 391.721 500.369 392.144 502.572 391.987C503.6 391.982 504.601 391.661 505.44 391.067C506.278 390.473 506.914 389.635 507.26 388.667C507.606 387.699 507.646 386.649 507.374 385.658C507.102 384.666 506.531 383.783 505.74 383.127C504.397 381.884 502.816 380.925 501.094 380.308C490.745 375.999 479.657 375.894 468.759 378.502" fill="#E0E0E0"/>
<path d="M461.979 385.915C464.281 386.57 465.062 387.763 466.889 389.316C473.1 394.598 480.447 398.374 488.357 400.351C489.17 400.551 490.248 400.636 490.659 399.886C491.071 399.136 490.564 398.461 490.1 397.88C486.65 393.836 482.174 390.798 477.143 389.083C472.179 387.235 467.892 385.018 461.979 385.493" fill="#E0E0E0"/>
<path d="M455.336 342.873C459.507 346.704 464.433 349.623 469.797 351.441C475.162 353.259 480.846 353.938 486.488 353.433C487.01 353.438 487.516 353.254 487.914 352.915C488.695 352.071 487.755 350.751 486.858 350.043C477.702 342.894 466.603 339.937 455.357 342.83" fill="#E0E0E0"/>
<path d="M463.203 340.032C468.721 335.975 475.119 333.28 481.876 332.166C488.633 331.052 495.557 331.551 502.085 333.622C497.185 338.448 490.395 341.014 483.552 341.753C476.721 342.375 469.833 341.793 463.203 340.032Z" fill="#E0E0E0"/>
<path d="M460.078 320.211C459.18 311.066 459.761 303.853 459.127 294.666C459.127 293.938 458.927 293.051 458.24 292.787C457.279 292.417 456.487 293.6 456.128 294.571C454.809 298.825 454.478 303.324 455.16 307.725C455.843 312.126 457.521 316.314 460.067 319.968" fill="#E0E0E0"/>
<path d="M459.424 321.225C465.623 317.392 470.269 312.386 474.567 306.504C477.555 302.417 480.079 297.507 479.403 292.491C475.179 292.407 471.209 294.719 468.474 297.908C465.868 301.22 463.973 305.035 462.909 309.112C461.694 313.136 460.849 317.275 459.424 321.225Z" fill="#E0E0E0"/>
<path d="M474.301 317.085C487.935 312.041 500.555 304.599 511.568 295.11C507.122 293.325 502.064 294.392 497.565 296.166C487.406 300.274 479.096 307.201 474.111 316.969" fill="#E0E0E0"/>
<path d="M463.584 326.22C470.469 326.98 477.449 327.466 484.282 326.325C491.114 325.185 497.334 322.545 503.596 319.905C504.143 319.748 504.614 319.395 504.916 318.912C505.012 318.62 505.019 318.306 504.934 318.01C504.849 317.714 504.677 317.451 504.441 317.254C503.958 316.874 503.394 316.611 502.793 316.483C495.982 314.582 488.622 315.427 481.916 317.729C475.529 319.901 469.385 322.732 463.584 326.177" fill="#E0E0E0"/>
<path d="M424.321 343.2C419.632 333.696 419.928 322.661 423.983 312.903C426.845 317.243 427.151 322.787 426.665 327.962C426.179 333.136 424.553 338.469 424.469 343.665" fill="#E0E0E0"/>
<path d="M405.567 333.696C399.691 333.62 393.864 334.77 388.458 337.074C383.052 339.378 378.186 342.784 374.172 347.075C380.022 347.994 386.041 346.484 391.364 343.907C396.686 341.331 401.417 337.666 406.095 334.044" fill="#E0E0E0"/>
<path d="M392.969 329.472C387.235 329.007 381.712 328.289 376.199 329.979C370.687 331.669 365.639 335.502 363.422 340.814C368.814 341.264 374.228 340.265 379.103 337.92C383.967 335.521 388.607 332.694 392.969 329.472Z" fill="#E0E0E0"/>
<path d="M411.628 329.704C406.475 326.325 401.174 322.883 395.176 321.489C389.178 320.095 382.208 321.119 378.016 325.649C382.884 328.501 388.776 328.817 394.415 328.817C400.054 328.817 406.961 328.754 412.272 330.634" fill="#E0E0E0"/>
<path d="M411.661 329.979C402.844 321.32 399.507 305.765 403.044 293.927C410.008 304.582 413.054 317.326 411.661 329.979Z" fill="#E0E0E0"/>
<path d="M435.906 305.448C437.564 301.583 438.736 297.518 440.225 293.589C441.586 289.596 443.678 285.89 446.392 282.66C449.146 279.411 453.069 277.377 457.311 277C455.956 282.965 453.371 288.582 449.722 293.491C446.073 298.401 441.439 302.495 436.117 305.512" fill="#E0E0E0"/>
<path d="M431.524 310.559C428.737 306.768 425.569 301.625 421.851 298.848C418.134 296.071 413.266 294.318 408.715 295.406C411.074 299.538 414.364 303.064 418.323 305.704C422.282 308.343 426.802 310.024 431.524 310.612" fill="#E0E0E0"/>
<path d="M432.4 305.765C430.595 301.182 428.778 296.546 428.05 291.678C427.321 286.81 427.764 281.604 430.257 277.348C435.093 286.503 436.645 296.356 432.643 305.86" fill="#E0E0E0"/>
<path d="M435.949 277.348C438.695 268.277 446.995 261.603 455.96 258.54C457.073 258.084 458.279 257.903 459.477 258.012C460.065 258.076 460.622 258.309 461.08 258.684C461.538 259.059 461.876 259.56 462.053 260.124C462.381 261.666 461.114 263.05 459.941 264.074C452.935 270.065 444.783 274.567 435.981 277.306" fill="#E0E0E0"/>
<path d="M436.054 269.935C436.403 264.084 436.762 258.15 438.662 252.616C440.563 247.083 444.238 241.877 449.571 239.448C450.468 245.351 447.871 251.233 444.724 256.344C441.577 261.455 437.796 266.228 435.906 271.888" fill="#E0E0E0"/>
<path d="M435.905 273.958C433.635 267.348 433.402 258.953 429.442 253.197C426.676 249.174 422.251 246.428 419.865 242.162C418.426 246.252 418.627 250.741 420.424 254.686C422.228 258.585 424.705 262.135 427.742 265.172C430.678 268.34 433.181 270.653 435.905 273.958Z" fill="#E0E0E0"/>
<path d="M435.948 468.611C435.779 468.611 435.621 424.523 435.61 370.139C435.599 315.755 435.726 271.656 435.906 271.656C436.085 271.656 436.233 315.744 436.244 370.139C436.254 424.533 436.127 468.611 435.948 468.611Z" fill="#E0E0E0"/>
<path d="M474.482 336.526C473.95 336.786 473.395 336.994 472.824 337.149L468.262 338.691C464.418 340 459.127 341.859 453.393 344.256C447.659 346.653 442.358 348.67 439.306 351.31C438.09 352.324 437.122 353.603 436.476 355.048C436.043 356.104 435.969 356.717 435.906 356.706C435.88 356.556 435.88 356.402 435.906 356.252C435.973 355.814 436.079 355.383 436.223 354.964C436.804 353.427 437.754 352.056 438.989 350.972C440.833 349.417 442.893 348.136 445.104 347.171C447.543 346.03 450.257 344.847 453.129 343.665C458.884 341.299 464.207 339.441 468.103 338.269C470.046 337.656 471.63 337.213 472.729 336.917C473.301 336.736 473.887 336.606 474.482 336.526Z" fill="#E0E0E0"/>
<path d="M487.112 305.511C486.976 305.693 486.82 305.86 486.648 306.008L485.233 307.296L479.953 312.101L462.37 327.783C455.506 333.897 449.582 339.726 445.474 344.129C443.426 346.315 441.799 348.142 440.69 349.409L439.413 350.867C439.273 351.046 439.114 351.209 438.938 351.352C439.042 351.148 439.169 350.957 439.318 350.782C439.582 350.434 439.972 349.906 440.5 349.251C441.556 347.931 443.13 346.083 445.147 343.823C450.453 338.043 456.061 332.548 461.948 327.36C468.833 321.267 475.105 315.797 479.657 311.847C481.885 309.926 483.722 308.352 485.074 307.201C485.676 306.694 486.13 306.293 486.563 305.955C486.725 305.782 486.909 305.633 487.112 305.511Z" fill="#E0E0E0"/>
<path d="M454.967 333.992C454.787 333.918 456.213 330.602 457.649 326.42C459.085 322.239 459.761 318.701 459.951 318.733C459.811 321.431 459.256 324.092 458.303 326.621C457.698 328.419 456.993 330.182 456.191 331.901C455.885 332.653 455.472 333.357 454.967 333.992Z" fill="#E0E0E0"/>
<path d="M435.991 360.687C435.598 360.312 435.245 359.898 434.935 359.452L432.221 355.988C429.95 353.042 426.804 348.976 423.276 344.541C419.749 340.106 416.508 336.093 414.163 333.221L411.386 329.799C411.024 329.398 410.705 328.959 410.436 328.49C410.853 328.831 411.235 329.213 411.576 329.63C412.284 330.401 413.287 331.531 414.501 332.936C416.94 335.745 420.246 339.694 423.773 344.14C427.3 348.586 430.394 352.704 432.58 355.756C433.636 357.266 434.544 358.491 435.135 359.357C435.463 359.771 435.75 360.217 435.991 360.687Z" fill="#E0E0E0"/>
<path d="M427.542 349.842C425.841 347.953 424.626 345.676 424.005 343.211C423.338 341.049 423.066 338.784 423.202 336.526H423.477C423.35 337.033 423.265 337.297 423.213 337.297C423.16 337.297 423.213 337.001 423.213 336.473H423.498C423.63 338.677 424.009 340.859 424.628 342.978C425.758 346.97 427.68 349.726 427.542 349.842Z" fill="#E0E0E0"/>
<path d="M416.635 336.114C415.872 335.537 415.042 335.055 414.164 334.678C411.938 334.022 409.6 333.839 407.3 334.139C404.971 334.322 402.662 334.692 400.393 335.248C399.463 335.539 398.514 335.768 397.553 335.935C398.396 335.427 399.311 335.049 400.267 334.815C402.541 334.117 404.885 333.674 407.257 333.495C409.643 333.181 412.07 333.445 414.333 334.266C415.29 334.598 416.103 335.251 416.635 336.114Z" fill="#E0E0E0"/>
<path d="M414.046 332.788C414.046 332.893 412.61 332.218 410.266 331.415C404.132 329.318 397.565 328.817 391.184 329.958C388.744 330.391 387.266 330.855 387.234 330.75C387.544 330.554 387.882 330.407 388.238 330.317C389.172 329.995 390.124 329.727 391.089 329.514C397.537 328.11 404.254 328.623 410.414 330.993C411.34 331.342 412.243 331.751 413.117 332.218C413.451 332.364 413.764 332.556 414.046 332.788Z" fill="#E0E0E0"/>
<path d="M435.907 318.732C434.788 315.597 433.867 312.395 433.151 309.144C431.789 303.801 430.828 299.429 431.039 299.387C431.25 299.344 432.443 303.611 433.795 308.986C435.147 314.361 436.129 318.69 435.907 318.732Z" fill="#E0E0E0"/>
<path d="M436.128 318.733C435.938 318.796 435.136 315.924 433.066 312.988C431.771 311.25 430.255 309.688 428.557 308.342C429.2 308.5 429.797 308.807 430.299 309.239C431.577 310.171 432.688 311.314 433.583 312.618C434.949 314.4 435.826 316.508 436.128 318.733Z" fill="#E0E0E0"/>
<path d="M435.949 445.104C435.885 445.104 435.748 444.048 435.252 442.179C434.526 439.542 433.539 436.984 432.305 434.544C429.264 428.314 423.72 420.425 416.677 412.516C413.181 408.524 409.802 404.765 406.919 401.164C404.344 397.995 402.014 394.634 399.95 391.111C398.565 388.728 397.388 386.23 396.433 383.645C396.106 382.726 395.873 382.008 395.736 381.533C395.651 381.286 395.59 381.031 395.557 380.772C395.62 380.772 395.937 381.776 396.665 383.581C397.705 386.11 398.933 388.556 400.34 390.9C402.446 394.371 404.8 397.685 407.384 400.815C410.267 404.385 413.656 408.123 417.152 412.115C424.216 420.045 429.75 428.039 432.717 434.364C433.92 436.848 434.851 439.454 435.495 442.137C435.67 442.867 435.8 443.608 435.885 444.354C435.933 444.601 435.954 444.852 435.949 445.104Z" fill="#E0E0E0"/>
<path d="M470.776 405.779C470.19 406.169 469.58 406.521 468.949 406.835C467.296 407.777 465.711 408.835 464.208 410.003C461.995 411.73 459.919 413.626 457.998 415.673C455.813 417.986 453.563 420.658 451.272 423.53C446.689 429.285 442.401 434.375 439.825 438.441C438.526 440.458 437.575 442.158 436.952 443.34C436.665 443.977 436.33 444.592 435.949 445.178C435.979 444.969 436.039 444.767 436.129 444.576C436.266 444.249 436.456 443.763 436.741 443.15C437.545 441.419 438.451 439.737 439.455 438.113C441.958 433.953 446.214 428.789 450.786 423.044C453.088 420.172 455.359 417.49 457.587 415.188C459.535 413.135 461.655 411.252 463.923 409.559C465.482 408.42 467.135 407.417 468.865 406.56C469.467 406.264 469.921 406.074 470.29 405.937C470.443 405.86 470.607 405.806 470.776 405.779Z" fill="#E0E0E0"/>
<path d="M471.451 418.535C470.182 418.82 468.894 419.007 467.597 419.095C464.499 419.415 461.438 420.019 458.452 420.901C455.497 421.859 452.726 423.313 450.257 425.199C448.367 426.656 447.48 427.86 447.385 427.796C447.53 427.471 447.726 427.172 447.966 426.909C448.565 426.158 449.237 425.469 449.972 424.85C452.428 422.804 455.257 421.255 458.304 420.288C461.331 419.38 464.453 418.827 467.607 418.641C468.882 418.487 470.169 418.451 471.451 418.535Z" fill="#E0E0E0"/>
<path d="M448.514 426.392C448.313 426.276 450.056 423.625 451.397 420.056C452.738 416.486 452.96 413.287 453.192 413.329C453.285 414.032 453.263 414.745 453.129 415.441C452.924 417.095 452.534 418.721 451.967 420.288C451.383 421.856 450.633 423.357 449.728 424.765C449.414 425.369 449.003 425.918 448.514 426.392Z" fill="#E0E0E0"/>
<path d="M482.042 371.522C481.854 371.66 481.648 371.77 481.43 371.849L479.613 372.673C478.821 373.021 477.86 373.454 476.773 374.025C475.685 374.595 474.407 375.165 473.087 375.957L470.975 377.15C470.247 377.573 469.518 378.069 468.758 378.555C467.205 379.495 465.653 380.667 463.985 381.839C460.46 384.504 457.139 387.426 454.048 390.583C450.984 393.786 448.161 397.209 445.6 400.826C444.47 402.526 443.371 404.11 442.484 405.694C442.03 406.486 441.555 407.215 441.164 407.965L440.034 410.077C439.285 411.428 438.746 412.717 438.229 413.825C437.711 414.934 437.289 415.937 436.983 416.708C436.676 417.479 436.423 418.07 436.222 418.556C436.141 418.773 436.038 418.982 435.916 419.179C435.948 418.951 436.009 418.728 436.096 418.514C436.265 418.007 436.486 417.384 436.75 416.624C437.084 415.623 437.469 414.64 437.901 413.677C438.398 412.558 438.905 411.249 439.633 409.876L440.689 407.701C441.069 406.94 441.534 406.19 441.988 405.398C442.854 403.793 443.952 402.178 445.072 400.456C450.102 393.08 456.351 386.612 463.552 381.332C465.241 380.16 466.815 379.009 468.388 378.08C469.169 377.605 469.898 377.108 470.637 376.696L472.749 375.535C474.09 374.753 475.379 374.204 476.498 373.666C477.617 373.127 478.61 372.726 479.392 372.42L481.261 371.701C481.512 371.606 481.775 371.545 482.042 371.522Z" fill="#E0E0E0"/>
<path d="M454.492 389.991C454.746 389.098 455.274 388.308 456.002 387.732C457.708 386.281 459.867 385.47 462.106 385.44C464.311 385.435 466.496 385.862 468.537 386.697C469.4 386.969 470.219 387.368 470.966 387.879C470.087 387.702 469.225 387.452 468.389 387.13C466.376 386.429 464.259 386.072 462.127 386.074C460.018 386.12 457.977 386.834 456.298 388.112C455.652 388.694 455.048 389.322 454.492 389.991Z" fill="#E0E0E0"/>
<path d="M450.374 394.236C450.194 394.141 451.747 391.86 452.106 388.597C452.465 385.334 451.525 382.768 451.715 382.716C451.905 382.663 452.137 383.286 452.433 384.352C452.801 385.761 452.905 387.225 452.739 388.671C452.576 390.117 452.138 391.518 451.451 392.8C450.912 393.782 450.437 394.279 450.374 394.236Z" fill="#E0E0E0"/>
<path d="M405.504 451.429C406.454 468.273 411.534 485.412 419.348 502.74H453.309C460.754 485.591 465.485 468.473 466.329 451.429H405.504Z" fill="#E0E0E0"/>
<path d="M460.806 478.695C460.806 478.875 449.623 479.012 435.832 479.012C422.04 479.012 410.857 478.875 410.857 478.695C410.857 478.516 422.04 478.379 435.832 478.379C449.623 478.379 460.806 478.516 460.806 478.695Z" fill="#FAFAFA"/>
<path d="M460.056 484.799C460.056 484.979 449.57 485.116 436.634 485.116C423.698 485.116 413.223 484.979 413.223 484.799C413.223 484.62 423.709 484.482 436.634 484.482C449.56 484.482 460.056 484.62 460.056 484.799Z" fill="#FAFAFA"/>
<path d="M419.886 462.528C420.308 467.736 420.308 472.97 419.886 478.178C419.706 478.178 419.559 474.683 419.559 470.353C419.559 466.023 419.706 462.528 419.886 462.528Z" fill="#FAFAFA"/>
<path d="M438.082 462.528C438.262 462.528 438.399 466.161 438.399 470.638C438.399 475.116 438.262 478.738 438.082 478.738C437.903 478.738 437.766 475.105 437.766 470.638C437.766 466.171 437.903 462.528 438.082 462.528Z" fill="#FAFAFA"/>
<path d="M455.135 462.349C455.558 467.853 455.558 473.381 455.135 478.886C454.956 478.886 454.818 475.179 454.818 470.617C454.818 466.055 454.987 462.349 455.135 462.349Z" fill="#FAFAFA"/>
<path d="M465.241 462.528C465.241 462.708 452.126 462.855 435.948 462.855C419.77 462.855 406.654 462.708 406.654 462.528C406.654 462.348 419.759 462.211 435.948 462.211C452.136 462.211 465.241 462.317 465.241 462.528Z" fill="#FAFAFA"/>
<path d="M483.711 63.2651H402.336V148.094H483.711V63.2651Z" fill="#E0E0E0"/>
<path d="M478.2 63.2651H396.824V148.094H478.2V63.2651Z" fill="#FAFAFA"/>
<path d="M478.231 148.125H396.803V63.2439H478.231V148.125ZM396.845 148.125H478.157V63.2861H396.845V148.125Z" fill="#E0E0E0"/>
<path d="M467.269 74.6699H407.764V136.689H467.269V74.6699Z" fill="white"/>
<path d="M407.764 137.111C407.338 137.73 406.846 138.3 406.296 138.811C405.346 139.867 404.005 141.177 402.516 142.645C401.027 144.112 399.643 145.432 398.629 146.372C398.116 146.916 397.538 147.394 396.908 147.798C397.323 147.174 397.813 146.603 398.365 146.098C399.316 145.094 400.657 143.732 402.157 142.254C403.656 140.775 405.039 139.466 406.053 138.526C406.562 137.985 407.137 137.509 407.764 137.111Z" fill="#E0E0E0"/>
<path d="M467.258 136.953C467.884 137.373 468.458 137.865 468.969 138.42C469.972 139.371 471.334 140.712 472.802 142.201C474.27 143.69 475.59 145.073 476.53 146.087C477.073 146.601 477.552 147.179 477.955 147.808C477.331 147.393 476.76 146.904 476.255 146.351C475.252 145.401 473.889 144.06 472.411 142.56C470.933 141.06 469.623 139.677 468.683 138.663C468.142 138.152 467.664 137.577 467.258 136.953Z" fill="#E0E0E0"/>
<path d="M467.1 74.8389C467.52 74.2128 468.012 73.6386 468.567 73.1282C469.518 72.0722 470.848 70.7627 472.348 69.2949C473.847 67.827 475.199 66.5282 476.255 65.5778C476.767 65.0296 477.345 64.5472 477.976 64.1416C477.561 64.7653 477.072 65.3362 476.519 65.8418C475.569 66.845 474.228 68.2072 472.728 69.6856C471.229 71.164 469.845 72.4734 468.831 73.4133C468.31 73.9529 467.729 74.4312 467.1 74.8389Z" fill="#E0E0E0"/>
<path d="M407.615 74.976C406.986 74.5601 406.411 74.0669 405.905 73.5082C404.901 72.5578 403.539 71.2272 402.071 69.7277C400.603 68.2282 399.283 66.8554 398.344 65.8416C397.8 65.3279 397.322 64.7499 396.918 64.1204C397.542 64.5354 398.113 65.0248 398.618 65.5776C399.621 66.528 400.984 67.8692 402.462 69.3687C403.94 70.8682 405.25 72.2516 406.19 73.2653C406.728 73.7798 407.206 74.3537 407.615 74.976Z" fill="#E0E0E0"/>
<path d="M467.099 136.689C467.099 136.689 467.099 136.583 467.099 136.393C467.099 136.203 467.099 135.897 467.099 135.527C467.099 134.746 467.099 133.626 467.099 132.179C467.099 129.244 467.099 124.967 467.036 119.507C467.036 108.641 466.973 93.1708 466.92 74.638L467.152 74.8704H407.826L408.09 74.6064C408.09 97.3737 408.09 118.673 408.09 136.625L407.868 136.403L450.837 136.52L462.896 136.583H466.064H467.173C467.086 136.593 466.997 136.593 466.909 136.583H466.107H462.939L450.921 136.646L407.816 136.763H407.594V136.53C407.594 118.578 407.594 97.2787 407.594 74.5113V74.2473H407.868H467.194H467.427V74.4796C467.374 93.0652 467.332 108.599 467.311 119.497C467.311 124.904 467.258 129.159 467.247 132.084C467.247 133.521 467.247 134.619 467.247 135.39C467.247 135.749 467.247 136.023 467.247 136.224C467.215 136.384 467.165 136.539 467.099 136.689Z" fill="#E0E0E0"/>
<path d="M447.437 95.7583H427.584V115.611H447.437V95.7583Z" fill="#EBEBEB"/>
<path d="M129.117 66.3484H36.1895V201.052H129.117V66.3484Z" fill="#E0E0E0"/>
<path d="M124.459 66.3484H31.5312V201.052H124.459V66.3484Z" fill="#F5F5F5"/>
<path d="M112.917 80.9319H43.084V186.447H112.917V80.9319Z" fill="white"/>
<path d="M112.918 186.458C112.918 186.458 112.918 186.278 112.918 185.94C112.918 185.603 112.918 185.096 112.918 184.441C112.918 183.121 112.918 181.178 112.918 178.654C112.918 173.596 112.918 166.225 112.854 156.922C112.854 138.315 112.791 111.968 112.738 80.8896L112.971 81.1219H43.1478L43.4013 80.8685C43.4013 120.68 43.4013 157.376 43.4013 186.395L43.2006 186.194L94.0365 186.3H108.081H111.767C112.601 186.3 113.034 186.3 113.034 186.3H111.809H108.155L94.1526 186.352L43.2006 186.458H43V186.257C43 157.238 43 120.542 43 80.7312V80.4778H43.264H113.087H113.319V80.7101C113.319 111.809 113.235 138.209 113.203 156.848C113.203 166.14 113.203 173.49 113.15 178.538C113.15 181.03 113.15 182.963 113.15 184.272C113.15 184.916 113.15 185.402 113.15 185.75C113.15 186.099 112.918 186.458 112.918 186.458Z" fill="#E0E0E0"/>
<path d="M124.723 66.3484C124.253 67.2023 123.701 68.0086 123.076 68.7561C122.02 70.1922 120.457 72.1564 118.715 74.2789C116.972 76.4015 115.325 78.2917 114.121 79.6223C113.503 80.3867 112.817 81.0936 112.072 81.7343C112.595 80.9097 113.188 80.1324 113.846 79.4111L118.324 73.9833L122.791 68.5554C123.375 67.7696 124.021 67.0315 124.723 66.3484Z" fill="#E0E0E0"/>
<path d="M113.277 186.12C116.748 191.642 120.837 196.751 125.464 201.348L113.277 186.12Z" fill="white"/>
<path d="M125.464 201.348C124.693 200.781 123.985 200.133 123.352 199.415C120.109 196.12 117.215 192.5 114.714 188.612C114.162 187.83 113.688 186.995 113.299 186.12C113.926 186.839 114.498 187.605 115.01 188.412C116.066 189.848 117.481 191.812 119.16 193.924C120.839 196.036 122.444 197.863 123.616 199.204C124.28 199.876 124.897 200.592 125.464 201.348Z" fill="#E0E0E0"/>
<path d="M31.5215 200.936L43.6972 185.919L31.5215 200.936Z" fill="white"/>
<path d="M43.6972 185.919C41.8627 188.572 39.8961 191.131 37.8047 193.586C35.8443 196.161 33.7469 198.628 31.5215 200.978C33.3542 198.304 35.3208 195.724 37.414 193.248C39.3794 190.698 41.4767 188.251 43.6972 185.919Z" fill="#E0E0E0"/>
<path d="M31.5312 66.3484C33.6324 68.5914 35.6066 70.95 37.4448 73.413C39.4165 75.7741 41.2567 78.2418 42.9572 80.805C40.8597 78.5588 38.8856 76.2005 37.0436 73.7404C35.076 71.3761 33.236 68.9086 31.5312 66.3484Z" fill="#E0E0E0"/>
<path d="M91.1533 102.358H67.7734V168.749H91.1533V102.358Z" fill="#E0E0E0"/>
<path d="M328.152 506.775L172.276 506.679C163.272 506.674 154.64 503.093 148.275 496.725C141.911 490.357 138.336 481.722 138.336 472.718L138.41 81.9245C138.411 77.4638 139.291 73.0471 141 68.9266C142.709 64.8061 145.212 61.0626 148.368 57.9099C151.524 54.7571 155.27 52.257 159.392 50.5522C163.514 48.8474 167.931 47.9714 172.392 47.9741L328.268 48.0586C337.271 48.0642 345.904 51.6447 352.268 58.013C358.633 64.3813 362.208 73.0162 362.208 82.0196L362.134 472.824C362.133 477.285 361.252 481.702 359.544 485.822C357.835 489.943 355.332 493.686 352.176 496.839C349.02 499.991 345.274 502.492 341.152 504.196C337.03 505.901 332.613 506.777 328.152 506.775Z" fill="#263238"/>
<path d="M328.089 61.8817H297.887C296.902 61.9023 295.93 62.117 295.028 62.5136C294.125 62.9102 293.31 63.4809 292.628 64.193C291.946 64.9051 291.412 65.7446 291.055 66.6635C290.698 67.5825 290.526 68.5627 290.548 69.5483V74.9761C290.591 76.9657 289.842 78.8908 288.465 80.3284C287.089 81.766 285.199 82.5984 283.209 82.6427H224.305C223.315 82.6262 222.338 82.4143 221.43 82.0192C220.522 81.624 219.701 81.0534 219.014 80.34C218.327 79.6267 217.788 78.7847 217.428 77.8624C217.067 76.94 216.892 75.9556 216.913 74.9656V69.4955C216.936 68.5094 216.764 67.5286 216.407 66.6091C216.05 65.6896 215.516 64.8493 214.834 64.1364C214.153 63.4234 213.337 62.8518 212.435 62.454C211.532 62.0563 210.56 61.8403 209.574 61.8184H172.54C166.241 61.8155 160.198 64.3108 155.736 68.7569C151.274 73.203 148.758 79.2372 148.738 85.5361L148.664 466.984C148.664 473.29 151.168 479.337 155.626 483.796C160.083 488.256 166.129 490.763 172.435 490.766L328.005 490.861C331.129 490.863 334.223 490.25 337.11 489.056C339.997 487.862 342.621 486.111 344.83 483.902C347.04 481.693 348.793 479.071 349.988 476.184C351.183 473.298 351.798 470.204 351.796 467.079L351.87 85.6417C351.865 79.3382 349.357 73.2948 344.897 68.8396C340.438 64.3843 334.393 61.8817 328.089 61.8817Z" fill="white"/>
<path d="M235.826 461.736C235.833 462.327 235.663 462.907 235.34 463.402C235.017 463.897 234.554 464.284 234.011 464.516C233.467 464.748 232.867 464.814 232.286 464.705C231.705 464.596 231.17 464.317 230.747 463.903C230.325 463.49 230.035 462.96 229.913 462.382C229.792 461.803 229.845 461.202 230.065 460.653C230.285 460.105 230.664 459.634 231.151 459.301C231.639 458.967 232.215 458.786 232.806 458.779C233.598 458.774 234.36 459.081 234.926 459.635C235.491 460.189 235.815 460.944 235.826 461.736Z" fill="#263238"/>
<path d="M252.553 461.599C252.559 462.19 252.39 462.77 252.066 463.265C251.743 463.76 251.279 464.148 250.735 464.38C250.191 464.612 249.59 464.677 249.009 464.567C248.428 464.457 247.892 464.177 247.47 463.762C247.048 463.348 246.759 462.817 246.639 462.238C246.518 461.659 246.573 461.057 246.795 460.509C247.017 459.961 247.396 459.49 247.886 459.158C248.375 458.826 248.952 458.646 249.543 458.642C250.334 458.636 251.095 458.944 251.659 459.499C252.223 460.053 252.545 460.808 252.553 461.599Z" fill="#263238"/>
<path d="M269.291 461.472C269.297 462.063 269.128 462.643 268.804 463.139C268.481 463.634 268.018 464.022 267.473 464.253C266.929 464.485 266.328 464.55 265.747 464.44C265.166 464.33 264.63 464.05 264.209 463.635C263.787 463.221 263.497 462.69 263.377 462.111C263.257 461.532 263.311 460.93 263.533 460.382C263.755 459.834 264.135 459.364 264.624 459.031C265.113 458.699 265.69 458.519 266.282 458.515C267.072 458.51 267.833 458.818 268.397 459.372C268.961 459.926 269.283 460.681 269.291 461.472Z" fill="#263238"/>
<path d="M329.018 100.405C329.018 100.489 325.079 100.595 320.232 100.637C315.385 100.679 311.457 100.637 311.457 100.542C311.457 100.447 315.417 100.32 320.232 100.32C325.048 100.32 329.008 100.32 329.018 100.405Z" fill="#263238"/>
<path d="M329.05 104.892C329.05 104.987 325.121 105.093 320.274 105.135C315.427 105.178 311.488 105.135 311.488 105.04C311.488 104.945 315.417 104.84 320.274 104.797C325.132 104.755 329.05 104.797 329.05 104.892Z" fill="#263238"/>
<path d="M329.145 109.381C329.145 109.476 325.206 109.581 320.359 109.623C315.512 109.666 311.584 109.623 311.584 109.528C311.584 109.433 315.512 109.338 320.359 109.296C325.206 109.254 329.082 109.296 329.145 109.381Z" fill="#263238"/>
<path d="M169.318 114.513H169.677H170.733L174.493 114.428L174.398 114.523C174.398 113.699 174.398 112.791 174.398 111.809C174.372 111.289 174.372 110.767 174.398 110.246C174.453 109.948 174.603 109.676 174.826 109.471C175.049 109.265 175.332 109.137 175.633 109.106C176.235 109.106 176.774 109.106 177.428 109.106C177.769 109.157 178.079 109.329 178.303 109.591C178.526 109.853 178.647 110.187 178.643 110.531C178.643 111.799 178.643 113.129 178.643 114.502L178.484 114.344H183.215L183.057 114.502C183.057 112.601 183.057 110.627 183.057 108.61C183.057 108.113 183.057 107.554 183.057 107.11C183.049 106.893 182.983 106.681 182.867 106.498C182.719 106.312 182.557 106.139 182.381 105.98C181.684 105.294 180.998 104.607 180.269 103.942L178.273 101.978C177.956 101.651 177.629 101.334 177.312 101.017C176.995 100.7 176.721 100.362 176.32 100.288C176.139 100.244 175.951 100.241 175.768 100.277C175.586 100.314 175.414 100.39 175.264 100.499C174.979 100.742 174.672 101.08 174.387 101.365L172.687 103.076C171.631 104.132 170.512 105.188 169.699 106.16C169.464 106.72 169.383 107.332 169.466 107.934C169.466 108.525 169.466 109.074 169.466 109.602C169.466 110.658 169.466 111.524 169.466 112.284C169.466 113.045 169.466 113.552 169.466 114.006C169.466 114.46 169.466 114.618 169.466 114.618C169.466 114.618 169.466 114.428 169.466 114.048C169.466 113.668 169.466 112.992 169.466 112.358C169.466 111.725 169.466 110.69 169.413 109.655C169.413 109.116 169.413 108.599 169.413 107.955C169.413 107.649 169.413 107.342 169.413 107.026C169.412 106.68 169.503 106.341 169.677 106.043C170.554 104.987 171.599 104.027 172.676 102.875L174.355 101.154C174.662 100.859 174.915 100.552 175.264 100.246C175.456 100.102 175.679 100.004 175.915 99.9581C176.15 99.9124 176.394 99.9206 176.626 99.982C177.066 100.14 177.454 100.418 177.745 100.785L178.717 101.735L180.723 103.699L182.835 105.737C183.029 105.91 183.206 106.101 183.363 106.307C183.511 106.542 183.595 106.812 183.606 107.089C183.606 107.596 183.606 108.145 183.606 108.599C183.606 110.616 183.606 112.591 183.606 114.491V114.65H183.437H178.706H178.558V114.491C178.558 113.119 178.558 111.799 178.558 110.531C178.562 110.252 178.467 109.981 178.289 109.766C178.111 109.551 177.862 109.407 177.587 109.359C177.038 109.359 176.394 109.359 175.866 109.359C175.613 109.379 175.373 109.48 175.183 109.648C174.992 109.815 174.861 110.04 174.81 110.289C174.81 110.774 174.81 111.345 174.81 111.799C174.81 112.781 174.81 113.689 174.81 114.523V114.618H174.715H170.902H169.688C169.561 114.597 169.437 114.561 169.318 114.513Z" fill="#263238"/>
<path d="M486.816 507.059C486.816 507.218 384.204 507.334 257.664 507.334C131.123 507.334 28.5117 507.218 28.5117 507.059C28.5117 506.901 131.102 506.785 257.664 506.785C384.225 506.785 486.816 506.88 486.816 507.059Z" fill="#263238"/>
<path d="M346.047 129.072H155.232V253.691H346.047V129.072Z" fill="#F5F5F5"/>
<path d="M201.848 271.294V274.066H205.923V275.063H201.848V278.353H200.684V270.222H206.431V271.294H201.848Z" fill="#263238"/>
<path d="M207.134 275.304C207.123 274.667 207.302 274.042 207.647 273.508C207.993 272.973 208.49 272.553 209.074 272.302C209.659 272.051 210.306 271.98 210.931 272.097C211.557 272.214 212.133 272.515 212.587 272.961C213.041 273.408 213.352 273.979 213.48 274.602C213.609 275.225 213.548 275.873 213.307 276.462C213.066 277.051 212.656 277.555 212.127 277.91C211.599 278.265 210.977 278.454 210.34 278.455C209.919 278.474 209.498 278.406 209.104 278.255C208.71 278.104 208.351 277.874 208.05 277.578C207.749 277.282 207.513 276.928 207.355 276.536C207.197 276.145 207.122 275.725 207.134 275.304ZM212.41 275.304C212.392 274.897 212.255 274.504 212.015 274.174C211.775 273.844 211.444 273.592 211.063 273.449C210.681 273.306 210.266 273.279 209.868 273.37C209.471 273.461 209.109 273.667 208.828 273.962C208.547 274.257 208.359 274.628 208.287 275.029C208.215 275.43 208.262 275.844 208.423 276.218C208.585 276.592 208.852 276.911 209.193 277.135C209.534 277.358 209.933 277.476 210.34 277.475C210.623 277.482 210.904 277.43 211.165 277.322C211.426 277.214 211.662 277.053 211.857 276.848C212.052 276.644 212.202 276.401 212.297 276.135C212.392 275.869 212.431 275.586 212.41 275.304Z" fill="#263238"/>
<path d="M218.397 272.162V273.243H218.139C217.867 273.227 217.596 273.272 217.344 273.373C217.092 273.473 216.865 273.629 216.68 273.827C216.495 274.026 216.356 274.263 216.272 274.521C216.189 274.779 216.164 275.053 216.198 275.322V278.39H215.08V272.218H216.152V273.243C216.389 272.873 216.725 272.575 217.121 272.385C217.518 272.194 217.96 272.117 218.397 272.162Z" fill="#263238"/>
<path d="M225.594 272.218V277.531C225.594 279.711 224.495 280.691 222.406 280.691C221.349 280.737 220.309 280.41 219.468 279.767L219.995 278.907C220.671 279.438 221.509 279.722 222.369 279.711C223.82 279.711 224.485 279.037 224.485 277.641V277.152C224.206 277.459 223.863 277.701 223.479 277.861C223.096 278.021 222.683 278.094 222.268 278.076C221.862 278.098 221.457 278.038 221.076 277.898C220.694 277.759 220.346 277.543 220.051 277.264C219.756 276.985 219.521 276.649 219.361 276.276C219.2 275.903 219.117 275.502 219.117 275.096C219.117 274.69 219.2 274.288 219.361 273.915C219.521 273.543 219.756 273.206 220.051 272.928C220.346 272.649 220.694 272.433 221.076 272.293C221.457 272.154 221.862 272.093 222.268 272.116C222.7 272.096 223.13 272.178 223.525 272.355C223.919 272.531 224.267 272.797 224.541 273.132V272.208L225.594 272.218ZM224.504 275.128C224.468 274.59 224.229 274.085 223.836 273.717C223.442 273.348 222.923 273.143 222.383 273.143C221.844 273.143 221.325 273.348 220.931 273.717C220.537 274.085 220.298 274.59 220.263 275.128C220.298 275.666 220.537 276.171 220.931 276.54C221.325 276.908 221.844 277.113 222.383 277.113C222.923 277.113 223.442 276.908 223.836 276.54C224.229 276.171 224.468 275.666 224.504 275.128Z" fill="#263238"/>
<path d="M227.156 275.304C227.145 274.667 227.323 274.042 227.669 273.508C228.014 272.973 228.511 272.553 229.096 272.302C229.681 272.051 230.327 271.98 230.953 272.097C231.578 272.214 232.155 272.515 232.609 272.961C233.063 273.408 233.373 273.979 233.502 274.602C233.63 275.225 233.57 275.873 233.329 276.462C233.088 277.051 232.677 277.555 232.149 277.91C231.62 278.265 230.998 278.454 230.362 278.455C229.94 278.474 229.519 278.406 229.125 278.255C228.731 278.104 228.373 277.874 228.072 277.578C227.771 277.282 227.534 276.928 227.377 276.536C227.219 276.145 227.144 275.725 227.156 275.304ZM232.432 275.304C232.413 274.897 232.276 274.504 232.036 274.174C231.797 273.844 231.466 273.592 231.084 273.449C230.702 273.306 230.287 273.279 229.89 273.37C229.493 273.461 229.131 273.667 228.85 273.962C228.569 274.257 228.38 274.628 228.308 275.029C228.236 275.43 228.284 275.844 228.445 276.218C228.606 276.592 228.874 276.911 229.214 277.135C229.555 277.358 229.954 277.476 230.362 277.475C230.644 277.482 230.925 277.43 231.186 277.322C231.448 277.214 231.683 277.053 231.878 276.848C232.073 276.644 232.223 276.401 232.318 276.135C232.414 275.869 232.452 275.586 232.432 275.304Z" fill="#263238"/>
<path d="M238.567 278.02C238.179 278.314 237.704 278.467 237.218 278.455C236.956 278.485 236.691 278.457 236.441 278.371C236.192 278.285 235.966 278.144 235.778 277.958C235.591 277.773 235.448 277.547 235.36 277.299C235.271 277.051 235.24 276.786 235.268 276.524V273.142H234.215V272.218H235.305V270.869H236.414V272.218H238.179V273.142H236.414V276.477C236.398 276.608 236.41 276.74 236.45 276.865C236.489 276.99 236.555 277.106 236.642 277.204C236.729 277.302 236.837 277.38 236.957 277.433C237.077 277.486 237.207 277.513 237.338 277.512C237.652 277.514 237.958 277.41 238.207 277.217L238.567 278.02Z" fill="#263238"/>
<path d="M249.415 275.304C249.437 275.72 249.372 276.137 249.224 276.527C249.076 276.917 248.848 277.271 248.554 277.568C248.261 277.864 247.909 278.097 247.521 278.249C247.133 278.402 246.717 278.472 246.301 278.455C245.889 278.467 245.481 278.383 245.108 278.208C244.736 278.033 244.41 277.772 244.157 277.447V280.635H243.039V272.218H244.111V273.188C244.365 272.852 244.697 272.582 245.079 272.402C245.46 272.221 245.879 272.136 246.301 272.153C246.717 272.136 247.133 272.206 247.521 272.358C247.909 272.511 248.261 272.743 248.554 273.04C248.848 273.336 249.076 273.691 249.224 274.081C249.372 274.471 249.437 274.887 249.415 275.304ZM248.287 275.304C248.269 274.897 248.132 274.505 247.893 274.175C247.654 273.846 247.323 273.593 246.942 273.45C246.561 273.307 246.146 273.279 245.749 273.369C245.352 273.459 244.99 273.664 244.709 273.958C244.427 274.253 244.238 274.623 244.165 275.023C244.092 275.424 244.138 275.837 244.298 276.212C244.458 276.586 244.724 276.906 245.064 277.13C245.403 277.355 245.801 277.475 246.208 277.475C246.491 277.482 246.772 277.43 247.034 277.322C247.296 277.215 247.532 277.053 247.728 276.849C247.923 276.644 248.074 276.401 248.171 276.135C248.267 275.869 248.307 275.586 248.287 275.304Z" fill="#263238"/>
<path d="M255.782 274.666V278.362H254.711V277.549C254.479 277.861 254.172 278.11 253.818 278.272C253.464 278.433 253.075 278.502 252.687 278.473C251.292 278.473 250.414 277.724 250.414 276.625C250.414 275.525 251.052 274.823 252.881 274.823H254.711V274.611C254.711 273.687 254.156 273.123 253.057 273.123C252.351 273.113 251.663 273.344 251.107 273.779L250.645 272.947C251.378 272.403 252.274 272.123 253.186 272.153C254.831 272.162 255.782 272.975 255.782 274.666ZM254.674 276.514V275.655H252.955C251.846 275.655 251.532 276.089 251.532 276.579C251.532 277.068 252.04 277.577 252.89 277.577C253.269 277.613 253.65 277.528 253.977 277.333C254.304 277.139 254.561 276.846 254.711 276.496L254.674 276.514Z" fill="#263238"/>
<path d="M257.074 277.762L257.536 276.838C258.18 277.254 258.931 277.475 259.698 277.475C260.733 277.475 261.158 277.161 261.158 276.644C261.158 275.258 257.268 276.459 257.268 274.001C257.268 272.901 258.257 272.153 259.837 272.153C260.622 272.14 261.396 272.334 262.082 272.717L261.602 273.594C261.071 273.261 260.454 273.091 259.828 273.105C258.848 273.105 258.377 273.465 258.377 273.955C258.377 275.405 262.276 274.223 262.276 276.616C262.276 277.734 261.26 278.464 259.615 278.464C258.717 278.492 257.831 278.247 257.074 277.762Z" fill="#263238"/>
<path d="M262.896 277.762L263.358 276.838C264.003 277.254 264.754 277.475 265.521 277.475C266.556 277.475 266.981 277.161 266.981 276.644C266.981 275.258 263.091 276.459 263.091 274.001C263.091 272.901 264.079 272.153 265.659 272.153C266.444 272.14 267.219 272.334 267.905 272.717L267.424 273.594C266.893 273.261 266.277 273.091 265.65 273.105C264.671 273.105 264.199 273.465 264.199 273.955C264.199 275.405 268.099 274.223 268.099 276.616C268.099 277.734 267.082 278.464 265.437 278.464C264.539 278.492 263.653 278.247 262.896 277.762Z" fill="#263238"/>
<path d="M278.734 272.218L276.433 278.371H275.361L273.587 273.751L271.786 278.371H270.714L268.395 272.218H269.494L271.287 277.115L273.135 272.218H274.059L275.907 277.142L277.755 272.218H278.734Z" fill="#263238"/>
<path d="M279.085 275.304C279.076 274.67 279.256 274.048 279.601 273.516C279.946 272.985 280.442 272.568 281.024 272.318C281.607 272.069 282.251 271.998 282.874 272.116C283.497 272.233 284.071 272.533 284.523 272.977C284.975 273.422 285.285 273.99 285.413 274.611C285.541 275.232 285.482 275.877 285.243 276.464C285.004 277.051 284.595 277.553 284.07 277.908C283.544 278.262 282.925 278.453 282.291 278.455C281.87 278.474 281.449 278.406 281.055 278.255C280.661 278.104 280.302 277.874 280.001 277.578C279.701 277.282 279.464 276.928 279.306 276.536C279.149 276.145 279.073 275.725 279.085 275.304ZM284.352 275.304C284.332 274.899 284.194 274.509 283.954 274.182C283.715 273.855 283.384 273.606 283.004 273.465C282.624 273.324 282.211 273.298 281.816 273.389C281.422 273.481 281.062 273.687 280.783 273.981C280.504 274.275 280.318 274.644 280.247 275.043C280.176 275.442 280.224 275.853 280.384 276.226C280.545 276.598 280.811 276.914 281.15 277.137C281.489 277.359 281.886 277.476 282.291 277.475C282.574 277.482 282.854 277.43 283.115 277.322C283.376 277.214 283.611 277.053 283.805 276.848C283.999 276.643 284.148 276.4 284.243 276.134C284.337 275.868 284.374 275.585 284.352 275.304Z" fill="#263238"/>
<path d="M290.338 272.162V273.243H290.08C289.808 273.227 289.537 273.272 289.285 273.373C289.033 273.473 288.807 273.629 288.621 273.827C288.436 274.026 288.297 274.263 288.213 274.521C288.13 274.779 288.105 275.053 288.139 275.322V278.39H287.049V272.218H288.111V273.243C288.347 272.876 288.68 272.58 289.073 272.39C289.466 272.199 289.904 272.12 290.338 272.162Z" fill="#263238"/>
<path d="M297.462 269.76V278.381H296.39V277.401C296.138 277.743 295.805 278.018 295.422 278.202C295.039 278.386 294.616 278.472 294.191 278.455C293.386 278.411 292.629 278.06 292.074 277.475C291.52 276.89 291.211 276.114 291.211 275.308C291.211 274.502 291.52 273.727 292.074 273.142C292.629 272.556 293.386 272.206 294.191 272.162C294.602 272.147 295.011 272.229 295.385 272.401C295.759 272.572 296.087 272.829 296.344 273.151V269.76H297.462ZM296.353 275.304C296.335 274.897 296.198 274.504 295.958 274.174C295.719 273.844 295.387 273.592 295.006 273.449C294.624 273.306 294.209 273.279 293.812 273.37C293.414 273.461 293.053 273.667 292.772 273.962C292.49 274.257 292.302 274.628 292.23 275.029C292.158 275.43 292.206 275.844 292.367 276.218C292.528 276.592 292.795 276.911 293.136 277.135C293.477 277.358 293.876 277.477 294.284 277.475C294.566 277.482 294.847 277.43 295.108 277.322C295.369 277.214 295.605 277.053 295.8 276.848C295.995 276.644 296.145 276.401 296.24 276.135C296.336 275.869 296.374 275.586 296.353 275.304Z" fill="#263238"/>
<path d="M303.21 272.393C303.21 271.654 302.6 271.146 301.547 271.146C301.152 271.124 300.757 271.196 300.396 271.357C300.034 271.518 299.716 271.762 299.468 272.07L298.627 271.469C298.988 271.029 299.449 270.682 299.971 270.455C300.493 270.229 301.062 270.13 301.63 270.166C303.302 270.166 304.402 270.943 304.402 272.236C304.402 274.177 302.351 274.297 302.351 275.821H301.186C301.168 273.992 303.21 273.733 303.21 272.393ZM301.002 277.706C301.022 277.521 301.11 277.35 301.249 277.225C301.388 277.101 301.568 277.032 301.755 277.032C301.941 277.032 302.121 277.101 302.26 277.225C302.399 277.35 302.487 277.521 302.508 277.706C302.487 277.892 302.399 278.063 302.26 278.187C302.121 278.312 301.941 278.38 301.755 278.38C301.568 278.38 301.388 278.312 301.249 278.187C301.11 278.063 301.022 277.892 301.002 277.706Z" fill="#263238"/>
<path d="M326.421 295.068C326.421 295.206 293.73 295.308 253.425 295.308C213.121 295.308 180.43 295.206 180.43 295.068C180.43 294.929 213.111 294.828 253.425 294.828C293.739 294.828 326.421 294.939 326.421 295.068Z" fill="black"/>
<path d="M295.255 302.876C295.255 303.005 276.525 303.116 253.416 303.116C230.307 303.116 211.568 303.005 211.568 302.876C211.568 302.746 230.307 302.635 253.416 302.635C276.525 302.635 295.255 302.709 295.255 302.876Z" fill="black"/>
<path d="M282.06 203.925C285.116 201.074 287.308 197.421 288.383 193.382C289.459 189.344 289.376 185.084 288.143 181.09C286.91 177.097 284.577 173.532 281.412 170.803C278.246 168.074 274.376 166.292 270.245 165.66C266.114 165.029 261.888 165.574 258.052 167.233C254.216 168.892 250.925 171.597 248.555 175.04C246.186 178.483 244.834 182.523 244.654 186.699C244.474 190.874 245.474 195.016 247.54 198.649L243.012 202.872L244.102 210.384L237.071 208.462L231.407 213.747L232.534 221.213L225.512 219.245L220.642 223.782L221.307 228.402L217.02 227.201L214.193 229.843L213.768 236.801L224.144 239.416L257.824 208C261.817 209.775 266.245 210.335 270.555 209.611C274.865 208.886 278.866 206.909 282.06 203.925ZM278.734 176.566C279.596 177.489 280.165 178.647 280.368 179.894C280.572 181.14 280.402 182.419 279.878 183.569C279.355 184.718 278.502 185.687 277.428 186.352C276.354 187.017 275.107 187.348 273.845 187.304C272.583 187.26 271.362 186.843 270.337 186.105C269.312 185.367 268.528 184.341 268.086 183.158C267.644 181.975 267.563 180.687 267.853 179.458C268.143 178.228 268.791 177.112 269.715 176.251C270.954 175.098 272.599 174.484 274.29 174.542C275.98 174.601 277.579 175.329 278.734 176.566Z" fill="#263238"/>
<path d="M278.733 176.566C278.733 176.566 278.317 176.178 277.467 175.642C276.259 174.919 274.847 174.611 273.448 174.764C272.313 174.886 271.235 175.322 270.335 176.023C269.434 176.723 268.746 177.661 268.348 178.73C267.95 179.8 267.858 180.959 268.082 182.078C268.305 183.196 268.836 184.231 269.615 185.065C270.393 185.899 271.389 186.5 272.489 186.801C273.59 187.101 274.753 187.089 275.847 186.766C276.941 186.443 277.924 185.822 278.685 184.971C279.446 184.121 279.956 183.076 280.156 181.953C280.413 180.568 280.202 179.138 279.555 177.887C279.093 176.963 278.687 176.593 278.733 176.556C278.779 176.52 278.853 176.64 279.038 176.834C279.31 177.114 279.548 177.424 279.75 177.758C280.501 179.032 280.782 180.529 280.544 181.99C280.406 182.858 280.095 183.69 279.63 184.437C279.164 185.183 278.554 185.828 277.834 186.334C277.114 186.84 276.301 187.196 275.441 187.381C274.581 187.567 273.693 187.578 272.829 187.413C271.437 187.158 270.164 186.461 269.198 185.426C268.233 184.391 267.627 183.073 267.47 181.666C267.366 180.793 267.439 179.909 267.683 179.064C267.928 178.22 268.339 177.433 268.893 176.751C269.447 176.069 270.132 175.504 270.908 175.092C271.684 174.679 272.535 174.426 273.411 174.348C274.888 174.212 276.366 174.598 277.587 175.438C277.925 175.656 278.236 175.913 278.511 176.205C278.733 176.446 278.789 176.556 278.733 176.566Z" fill="#263238"/>
<path d="M282.059 203.925C282.059 203.925 281.958 204.036 281.736 204.23L280.756 205.154C279.429 206.235 277.984 207.165 276.451 207.926C273.531 209.325 270.343 210.073 267.106 210.119C263.869 210.165 260.661 209.509 257.703 208.194H257.888L224.263 239.665L224.171 239.767H224.032L213.656 237.161L213.443 237.115V236.893C213.573 234.722 213.711 232.347 213.859 229.936V229.714L213.933 229.64L216.825 226.942L216.927 226.84H217.075L221.362 228.042L221.02 228.337C220.808 226.905 220.586 225.334 220.355 223.717V223.579L220.456 223.486L225.326 218.94L225.437 218.829H225.585L232.607 220.797L232.265 221.102C231.923 218.718 231.554 216.168 231.184 213.59V213.442L231.295 213.35L232.792 211.946L236.959 208.065L237.07 207.954H237.218L244.249 209.922L243.898 210.227C243.535 207.695 243.174 205.191 242.817 202.715V202.576L242.919 202.475L247.446 198.252L247.4 198.585C245.648 195.472 244.657 191.989 244.508 188.421C244.422 186.696 244.546 184.968 244.878 183.274C245.18 181.608 245.677 179.983 246.356 178.432C248.07 174.51 250.869 171.159 254.424 168.775C257.979 166.39 262.142 165.072 266.421 164.975C270.701 164.878 274.919 166.006 278.578 168.227C282.238 170.447 285.186 173.668 287.077 177.508C288.849 181.132 289.606 185.168 289.266 189.188C289.032 192.184 288.183 195.1 286.772 197.753C286.633 198.03 286.494 198.289 286.356 198.548L285.903 199.25C285.598 199.703 285.349 200.174 285.053 200.516C284.452 201.236 283.99 201.883 283.538 202.364L282.429 203.593L282.068 203.925C282.068 203.925 282.17 203.796 282.392 203.556L283.39 202.493C283.824 202.031 284.314 201.375 284.859 200.645C285.136 200.266 285.376 199.823 285.672 199.379C285.82 199.148 285.968 198.917 286.116 198.668L286.522 197.882C287.887 195.256 288.709 192.382 288.94 189.432C289.171 186.481 288.806 183.514 287.866 180.708C286.927 177.901 285.432 175.313 283.471 173.096C281.51 170.879 279.123 169.08 276.451 167.805C273.78 166.531 270.88 165.807 267.923 165.676C264.967 165.546 262.014 166.012 259.241 167.047C256.468 168.081 253.932 169.663 251.783 171.699C249.635 173.734 247.918 176.181 246.735 178.894C246.076 180.411 245.592 181.998 245.293 183.625C244.978 185.281 244.86 186.968 244.942 188.652C245.1 192.124 246.072 195.511 247.779 198.538L247.881 198.723L247.724 198.871L243.205 203.094L243.288 202.853C243.646 205.317 244.006 207.825 244.369 210.375L244.434 210.791L244.018 210.68L236.996 208.712L237.264 208.647L233.097 212.528L231.609 213.904L231.692 213.655C232.062 216.233 232.431 218.792 232.773 221.167L232.838 221.592L232.422 221.481L225.4 219.504L225.659 219.439C223.986 221.01 222.323 222.553 220.789 223.985L220.882 223.745C221.103 225.325 221.325 226.896 221.538 228.365L221.593 228.771L221.196 228.661L216.918 227.459L217.167 227.395L214.33 230.037L214.414 229.862C214.266 232.273 214.118 234.648 213.989 236.819L213.794 236.551L224.171 239.166L223.94 239.231L257.666 207.871L257.749 207.797H257.851C260.768 209.109 263.934 209.777 267.132 209.755C270.331 209.733 273.487 209.021 276.386 207.667C277.915 206.939 279.364 206.053 280.71 205.025L281.717 204.184L282.059 203.925Z" fill="#263238"/>
<path d="M281.312 201.403C284.367 198.554 286.558 194.902 287.633 190.866C288.709 186.829 288.626 182.572 287.395 178.58C286.163 174.589 283.832 171.025 280.669 168.297C277.506 165.569 273.639 163.786 269.51 163.154C265.381 162.522 261.157 163.065 257.323 164.722C253.488 166.378 250.197 169.081 247.828 172.521C245.458 175.961 244.105 179.998 243.923 184.172C243.742 188.345 244.739 192.485 246.801 196.117L242.283 200.331L243.364 207.852L236.342 205.875L230.687 211.169L231.768 218.681L224.745 216.713L219.876 221.259L220.532 225.879L216.254 224.687L213.417 227.33L212.992 234.288L223.369 236.893L257.048 205.477C261.045 207.262 265.479 207.828 269.795 207.103C274.112 206.378 278.118 204.395 281.312 201.403ZM278.023 174.043C278.885 174.966 279.454 176.124 279.658 177.371C279.862 178.618 279.691 179.897 279.168 181.046C278.644 182.196 277.792 183.165 276.718 183.829C275.644 184.494 274.397 184.826 273.134 184.782C271.872 184.738 270.651 184.32 269.626 183.582C268.601 182.844 267.818 181.819 267.376 180.636C266.933 179.452 266.852 178.164 267.142 176.935C267.432 175.706 268.08 174.59 269.005 173.729C269.617 173.157 270.336 172.711 271.121 172.417C271.906 172.123 272.741 171.987 273.579 172.016C274.417 172.045 275.24 172.239 276.003 172.587C276.765 172.935 277.452 173.43 278.023 174.043Z" fill="#F26A7E"/>
<path d="M278.022 174.043C278.022 174.043 277.606 173.655 276.756 173.119C275.56 172.373 274.148 172.048 272.746 172.195C271.614 172.319 270.54 172.756 269.642 173.456C268.745 174.157 268.06 175.093 267.664 176.16C267.268 177.227 267.177 178.383 267.401 179.499C267.624 180.615 268.154 181.647 268.931 182.479C269.707 183.312 270.7 183.911 271.798 184.212C272.896 184.512 274.056 184.501 275.148 184.18C276.24 183.858 277.221 183.24 277.981 182.393C278.742 181.546 279.252 180.504 279.454 179.384C279.709 177.998 279.494 176.568 278.844 175.318C278.382 174.394 277.985 174.025 278.022 173.988C278.059 173.951 278.142 174.071 278.336 174.265C278.604 174.545 278.84 174.855 279.038 175.189C279.792 176.466 280.074 177.967 279.833 179.43C279.694 180.297 279.382 181.128 278.917 181.873C278.452 182.617 277.842 183.262 277.124 183.767C276.406 184.273 275.593 184.629 274.735 184.816C273.877 185.002 272.99 185.015 272.127 184.854C270.735 184.612 269.458 183.929 268.485 182.906C267.511 181.883 266.893 180.573 266.721 179.171C266.62 178.299 266.695 177.415 266.94 176.572C267.186 175.729 267.598 174.943 268.151 174.261C268.705 173.579 269.389 173.015 270.164 172.602C270.939 172.188 271.788 171.934 272.663 171.853C274.141 171.719 275.619 172.108 276.839 172.953C277.179 173.167 277.49 173.425 277.763 173.72C277.957 173.923 278.04 174.034 278.022 174.043Z" fill="#263238"/>
<path d="M281.312 201.403C281.312 201.403 281.21 201.513 280.998 201.707L280.018 202.576C278.688 203.654 277.244 204.584 275.712 205.348C272.791 206.746 269.601 207.494 266.363 207.54C263.125 207.587 259.915 206.93 256.955 205.616H257.14L223.525 237.087L223.423 237.18H223.294L212.908 234.574L212.705 234.519V234.306C212.834 232.135 212.982 229.76 213.121 227.348V227.237L213.195 227.173L216.031 224.521L216.142 224.419H216.29L220.568 225.611L220.226 225.916C220.023 224.484 219.792 222.913 219.561 221.296V221.158L219.672 221.056L224.532 216.519L224.643 216.408L224.8 216.454L231.823 218.423L231.471 218.727L230.39 211.234V211.086L230.492 210.984L231.998 209.589L236.156 205.708L236.267 205.598L236.424 205.644L243.446 207.612L243.095 207.917C242.732 205.385 242.371 202.881 242.014 200.405V200.257L242.125 200.164L246.653 195.942L246.597 196.274C244.845 193.162 243.854 189.679 243.705 186.11C243.623 184.386 243.747 182.659 244.075 180.964C244.379 179.298 244.875 177.674 245.553 176.122C247.655 171.234 251.429 167.254 256.197 164.894C260.966 162.534 266.419 161.948 271.58 163.24C276.741 164.533 281.274 167.62 284.368 171.949C287.461 176.278 288.913 181.566 288.463 186.868C288.228 189.864 287.379 192.78 285.969 195.434L285.553 196.228L285.1 196.93C284.795 197.383 284.546 197.854 284.259 198.196C283.659 198.917 283.197 199.564 282.744 200.044L281.672 201.07C281.441 201.301 281.312 201.412 281.312 201.412C281.312 201.412 281.423 201.273 281.644 201.033L282.633 199.98C283.067 199.518 283.557 198.862 284.102 198.132C284.379 197.762 284.629 197.319 284.925 196.866L285.368 196.164L285.765 195.369C287.131 192.73 287.945 189.841 288.159 186.877C288.551 181.688 287.095 176.527 284.049 172.308C281.003 168.089 276.562 165.084 271.513 163.824C266.464 162.563 261.132 163.13 256.46 165.423C251.789 167.716 248.079 171.588 245.987 176.353C245.331 177.87 244.851 179.458 244.555 181.084C244.234 182.739 244.116 184.427 244.204 186.11C244.359 189.582 245.327 192.969 247.031 195.997L247.142 196.182L246.985 196.33L242.458 200.553L242.541 200.312C242.904 202.776 243.265 205.28 243.622 207.824L243.687 208.249L243.28 208.129L236.23 206.152L236.489 206.087L232.331 209.977L230.825 211.372L230.908 211.132C231.287 213.71 231.647 216.26 231.989 218.644L232.054 219.069L231.647 218.949L224.615 216.981L224.883 216.916L220.014 221.453L220.097 221.222C220.319 222.802 220.55 224.364 220.753 225.796L220.809 226.212L220.411 226.101L216.133 224.9L216.383 224.835L213.555 227.478L213.638 227.293C213.49 229.705 213.343 232.088 213.204 234.251L213.01 233.983L223.386 236.607L223.155 236.671L256.881 205.311L256.964 205.237L257.066 205.283C259.985 206.589 263.15 207.254 266.348 207.232C269.545 207.209 272.701 206.501 275.601 205.154C277.133 204.424 278.585 203.538 279.935 202.511L280.933 201.671L281.312 201.403Z" fill="#263238"/>
<path d="M279.27 199.666C280.368 198.491 281.369 197.23 282.264 195.896C283.278 194.314 284.047 192.588 284.546 190.777C285.229 188.376 285.446 185.867 285.184 183.385C284.88 180.385 283.877 177.499 282.255 174.958C280.386 172.049 277.778 169.689 274.697 168.12C273.046 167.261 271.273 166.663 269.439 166.346C268.496 166.17 267.542 166.059 266.584 166.014C265.605 165.999 264.627 166.048 263.655 166.161C259.573 166.63 255.748 168.394 252.743 171.197C249.738 173.999 247.71 177.691 246.958 181.731C246.777 182.692 246.66 183.664 246.607 184.641C246.588 185.601 246.634 186.561 246.746 187.515C246.932 189.367 247.406 191.178 248.15 192.883C249.499 196.068 251.675 198.833 254.452 200.894C256.869 202.694 259.677 203.897 262.648 204.406C265.097 204.84 267.606 204.799 270.04 204.285C271.882 203.908 273.657 203.257 275.306 202.354C276.7 201.558 278.025 200.65 279.27 199.638C279.27 199.638 279.206 199.721 279.049 199.86L278.356 200.488C277.984 200.828 277.586 201.137 277.164 201.412C276.608 201.832 276.021 202.209 275.408 202.539C273.755 203.486 271.966 204.175 270.104 204.581C265.611 205.585 260.909 204.984 256.812 202.882C252.716 200.781 249.485 197.312 247.679 193.077C246.908 191.316 246.416 189.446 246.219 187.533C245.954 185.581 246.014 183.599 246.395 181.666C247.162 177.509 249.245 173.709 252.336 170.826C255.427 167.943 259.362 166.13 263.562 165.653C265.541 165.399 267.547 165.467 269.504 165.857C271.386 166.195 273.206 166.818 274.9 167.705C278.055 169.323 280.719 171.758 282.615 174.755C284.112 177.134 285.086 179.805 285.471 182.59C285.857 185.374 285.645 188.209 284.851 190.906C284.318 192.739 283.505 194.478 282.44 196.062C282.074 196.65 281.659 197.206 281.202 197.725C280.894 198.128 280.554 198.505 280.185 198.852L279.511 199.499C279.363 199.601 279.28 199.675 279.27 199.666Z" fill="#263238"/>
<path d="M278.374 183.875C278.327 183.875 278.836 183.394 279.455 182.405C280.325 180.994 280.696 179.331 280.508 177.684C280.38 176.477 279.95 175.322 279.257 174.325C278.564 173.329 277.631 172.523 276.544 171.983C275.274 171.333 273.839 171.079 272.423 171.253C271.311 171.387 270.246 171.777 269.311 172.393C268.375 173.009 267.596 173.833 267.033 174.801C266.471 175.77 266.141 176.855 266.069 177.973C265.997 179.09 266.186 180.209 266.62 181.241C267.129 182.429 267.938 183.464 268.967 184.244C269.874 184.919 270.923 185.378 272.035 185.584C273.667 185.885 275.353 185.628 276.821 184.854C277.856 184.309 278.327 183.828 278.374 183.875C278.42 183.921 278.272 184.013 278.041 184.226C277.704 184.545 277.329 184.822 276.923 185.048C275.658 185.781 274.207 186.13 272.747 186.053C271.287 185.976 269.88 185.476 268.699 184.614C267.518 183.759 266.604 182.586 266.064 181.231C265.524 179.876 265.38 178.396 265.65 176.963C265.948 175.339 266.762 173.854 267.97 172.729C269.178 171.604 270.717 170.898 272.358 170.717C273.881 170.533 275.424 170.813 276.784 171.521C278.012 172.161 279.046 173.118 279.778 174.293C280.55 175.533 280.948 176.969 280.923 178.43C280.898 179.89 280.453 181.312 279.64 182.525C279.375 182.913 279.065 183.266 278.716 183.579C278.512 183.791 278.383 183.893 278.374 183.875Z" fill="#263238"/>
<path d="M220.632 235.618C220.53 235.507 228.107 228.226 237.569 219.439C247.03 210.652 254.783 203.555 254.884 203.666C254.986 203.777 247.409 211.058 237.948 219.845C228.486 228.633 220.734 235.729 220.632 235.618Z" fill="#263238"/>
<path d="M224.809 191.525L225.123 190.842L225.53 191.47C225.862 191.972 226.33 192.369 226.879 192.616L227.572 192.921L226.944 193.336C226.437 193.666 226.036 194.134 225.789 194.685L225.484 195.369L225.068 194.741C224.737 194.237 224.269 193.84 223.719 193.595L223.035 193.29L223.663 192.874C224.17 192.547 224.568 192.078 224.809 191.525Z" fill="#F26A7E"/>
<path d="M204.195 186.388L204.371 185.99L204.611 186.351C204.801 186.645 205.074 186.877 205.396 187.016L205.794 187.201L205.424 187.441C205.134 187.632 204.903 187.901 204.759 188.217L204.583 188.624L204.343 188.254C204.153 187.96 203.879 187.728 203.557 187.589L203.16 187.404L203.521 187.173C203.813 186.978 204.047 186.707 204.195 186.388Z" fill="#F26A7E"/>
<path d="M269.125 221.527L269.3 221.13L269.541 221.499C269.738 221.787 270.009 222.017 270.326 222.165L270.723 222.34L270.363 222.581C270.068 222.771 269.837 223.044 269.698 223.366L269.513 223.763L269.273 223.403C269.083 223.109 268.814 222.875 268.496 222.728L268.09 222.553L268.459 222.313C268.754 222.122 268.985 221.849 269.125 221.527Z" fill="#F26A7E"/>
<path d="M300.91 203.509L301.215 202.826L301.631 203.454C301.961 203.958 302.43 204.355 302.98 204.6L303.664 204.905L303.035 205.32C302.531 205.65 302.134 206.119 301.89 206.67L301.576 207.353L301.169 206.725C300.834 206.225 300.367 205.829 299.82 205.579L299.127 205.274L299.755 204.858C300.262 204.529 300.663 204.061 300.91 203.509Z" fill="#F26A7E"/>
<path d="M296.779 178.266L297.296 177.111L297.989 178.173C298.546 179.018 299.331 179.688 300.253 180.105L301.408 180.613L300.346 181.306C299.502 181.868 298.833 182.656 298.414 183.579L297.897 184.734L297.204 183.671C296.647 182.826 295.862 182.157 294.94 181.74L293.785 181.223L294.848 180.53C295.693 179.973 296.362 179.188 296.779 178.266Z" fill="#F26A7E"/>
<path d="M218.406 170.486L218.924 169.331L219.617 170.384C220.171 171.231 220.957 171.902 221.881 172.315L223.036 172.833L221.982 173.526C221.133 174.077 220.462 174.864 220.051 175.79L219.534 176.945L218.841 175.891C218.285 175.042 217.496 174.371 216.568 173.96L215.422 173.443L216.475 172.75C217.322 172.196 217.993 171.41 218.406 170.486Z" fill="#F26A7E"/>
<path d="M316.507 346.424C316.507 346.424 316.803 346.424 317.375 346.35C317.736 346.344 318.095 346.304 318.447 346.23L319.122 346.119L319.889 345.915C321.23 345.569 322.505 345.001 323.659 344.234C326.195 342.574 328.086 340.096 329.018 337.211C329.391 336.033 329.596 334.807 329.628 333.571C329.628 332.924 329.628 332.25 329.628 331.584L329.572 330.568C329.572 330.226 329.471 329.884 329.415 329.542C329.147 328.114 328.651 326.738 327.946 325.467C326.347 322.64 323.756 320.506 320.674 319.48C319.001 318.946 317.245 318.714 315.491 318.796H309.891L190.335 318.87C187.461 318.872 184.667 319.824 182.389 321.577C181.276 322.446 180.304 323.481 179.506 324.645C178.73 325.813 178.147 327.099 177.778 328.452C177.596 329.125 177.463 329.811 177.381 330.503C177.381 331.196 177.289 331.889 177.307 332.601C177.267 333.985 177.436 335.368 177.806 336.703C178.187 338.014 178.763 339.26 179.515 340.399C180.291 341.517 181.225 342.516 182.287 343.365C183.345 344.205 184.531 344.869 185.799 345.333C186.422 345.566 187.061 345.754 187.711 345.897C188.367 346.019 189.031 346.097 189.698 346.128C192.368 346.193 195.066 346.128 197.709 346.128H213.241L266.99 346.174L303.229 346.257L313.079 346.303H315.648H316.516C316.516 346.303 316.22 346.303 315.648 346.303H313.079L303.229 346.35L266.99 346.424L213.241 346.479H197.7C195.048 346.479 192.387 346.479 189.661 346.479C188.973 346.448 188.287 346.371 187.61 346.248C186.934 346.097 186.271 345.9 185.623 345.657C184.311 345.18 183.084 344.493 181.992 343.624C179.751 341.871 178.132 339.445 177.372 336.703C176.993 335.326 176.818 333.9 176.854 332.471C176.854 331.769 176.854 331.039 176.928 330.328C177.016 329.61 177.155 328.9 177.344 328.202C177.728 326.798 178.333 325.463 179.137 324.248C179.962 323.038 180.972 321.965 182.13 321.069C184.494 319.263 187.388 318.289 190.363 318.297L309.919 318.362H315.518C317.308 318.291 319.096 318.532 320.803 319.073C323.94 320.141 326.573 322.329 328.195 325.218C328.914 326.517 329.417 327.925 329.683 329.385L329.84 330.429C329.84 330.78 329.84 331.122 329.84 331.464C329.84 332.148 329.84 332.804 329.84 333.469C329.8 334.725 329.585 335.969 329.203 337.165C328.841 338.244 328.347 339.274 327.733 340.233C326.705 341.846 325.336 343.215 323.723 344.243C322.548 345.004 321.256 345.566 319.898 345.906L319.122 346.091L318.438 346.193C318.084 346.257 317.726 346.291 317.366 346.294L316.507 346.424Z" fill="#263238"/>
<path d="M316.506 352.365H190.326C183.003 352.365 177.066 358.301 177.066 365.624V366.89C177.066 374.213 183.003 380.15 190.326 380.15H316.506C323.829 380.15 329.766 374.213 329.766 366.89V365.624C329.766 358.301 323.829 352.365 316.506 352.365Z" fill="#F26A7E"/>
<path d="M207.725 338.071C207.707 337.797 207.707 337.522 207.725 337.248C207.725 336.676 207.725 335.927 207.679 335.003C207.679 333.026 207.623 330.291 207.577 326.992L207.771 327.177L191.259 327.232L191.5 326.992V329.893C191.5 330.817 191.5 331.797 191.5 332.721C191.5 334.569 191.5 336.361 191.5 338.052L191.278 337.831L203.114 337.941L206.533 337.997H207.457H207.79C207.403 338.041 207.014 338.059 206.626 338.052L203.253 338.108L191.241 338.219H190.955V337.997C190.955 336.306 190.955 334.523 190.955 332.665C190.955 331.741 190.955 330.817 190.955 329.838V327.011C190.742 327.223 191.25 326.715 191.195 326.761L207.707 326.816H207.901V327.011C207.854 330.365 207.817 333.137 207.799 335.142C207.799 336.066 207.799 336.786 207.744 337.35C207.754 337.59 207.748 337.831 207.725 338.071Z" fill="#263238"/>
<path d="M207.725 326.992C207.01 327.787 206.238 328.528 205.415 329.21C203.955 330.54 201.904 332.342 199.631 334.319H199.271L199.215 334.273L199.104 334.181L198.892 333.996L198.476 333.635L197.663 332.924L196.12 331.566L193.533 329.256C192.709 328.574 191.937 327.833 191.223 327.038C192.106 327.61 192.943 328.249 193.727 328.951L196.379 331.187L197.94 332.517L198.762 333.22L199.187 333.589L199.391 333.774L199.502 333.857L199.557 333.903H199.271C201.553 331.935 203.632 330.207 205.156 328.905C205.961 328.2 206.82 327.561 207.725 326.992Z" fill="#263238"/>
<path d="M197.173 332.148C196.375 333.297 195.445 334.349 194.401 335.28C193.458 336.32 192.401 337.25 191.25 338.052C192.054 336.908 192.984 335.857 194.022 334.92C194.967 333.883 196.024 332.953 197.173 332.148Z" fill="#263238"/>
<path d="M207.724 338.071C206.623 337.197 205.628 336.199 204.758 335.095C203.77 334.099 202.896 332.996 202.152 331.806C203.25 332.682 204.245 333.681 205.118 334.781C206.11 335.775 206.984 336.878 207.724 338.071Z" fill="#263238"/>
<path d="M217.694 334.744V335.114H213.859V329.57H217.555V329.94H214.247V332.13H217.204V332.49H214.247V334.763L217.694 334.744Z" fill="#263238"/>
<path d="M225.853 332.693V335.114H225.455V332.721C225.455 331.797 224.966 331.288 224.162 331.288C223.952 331.279 223.742 331.316 223.547 331.395C223.352 331.474 223.177 331.595 223.033 331.749C222.889 331.902 222.78 332.085 222.713 332.285C222.646 332.484 222.624 332.696 222.647 332.905V335.114H222.249V332.721C222.249 331.797 221.76 331.288 220.956 331.288C220.745 331.279 220.536 331.316 220.341 331.395C220.146 331.474 219.97 331.595 219.826 331.749C219.682 331.902 219.573 332.085 219.507 332.285C219.44 332.484 219.417 332.696 219.44 332.905V335.114H219.043V330.965H219.422V331.889C219.565 331.594 219.792 331.349 220.075 331.184C220.358 331.02 220.684 330.943 221.011 330.965C221.339 330.938 221.666 331.021 221.941 331.202C222.216 331.383 222.422 331.651 222.526 331.963C222.675 331.649 222.913 331.387 223.211 331.209C223.508 331.032 223.853 330.946 224.199 330.965C224.427 330.949 224.655 330.983 224.869 331.065C225.082 331.147 225.274 331.275 225.432 331.44C225.59 331.605 225.71 331.803 225.783 332.019C225.855 332.236 225.879 332.466 225.853 332.693Z" fill="#263238"/>
<path d="M230.473 332.481V335.114H230.094V334.375C229.939 334.628 229.717 334.833 229.453 334.968C229.189 335.103 228.893 335.163 228.597 335.142C227.673 335.142 227.109 334.67 227.109 333.959C227.109 333.248 227.507 332.804 228.652 332.804H230.075V332.471C230.093 332.308 230.072 332.142 230.016 331.988C229.959 331.833 229.868 331.694 229.75 331.58C229.631 331.466 229.488 331.38 229.332 331.33C229.175 331.279 229.009 331.265 228.846 331.289C228.322 331.283 227.814 331.467 227.414 331.806L227.22 331.52C227.685 331.135 228.271 330.928 228.874 330.938C229.086 330.907 229.303 330.925 229.507 330.99C229.711 331.056 229.898 331.168 230.052 331.317C230.206 331.466 230.325 331.648 230.397 331.85C230.47 332.052 230.496 332.267 230.473 332.481ZM230.075 333.885V333.109H228.662C227.802 333.109 227.507 333.469 227.507 333.941C227.507 334.412 227.922 334.818 228.652 334.818C228.958 334.837 229.262 334.756 229.519 334.588C229.775 334.42 229.97 334.173 230.075 333.885Z" fill="#263238"/>
<path d="M231.98 329.644C231.98 329.601 231.989 329.559 232.005 329.52C232.021 329.481 232.045 329.445 232.075 329.415C232.105 329.385 232.141 329.361 232.18 329.345C232.219 329.329 232.261 329.321 232.304 329.321C232.368 329.321 232.43 329.34 232.484 329.375C232.537 329.411 232.578 329.461 232.603 329.52C232.627 329.579 232.634 329.644 232.621 329.707C232.609 329.77 232.578 329.827 232.533 329.873C232.487 329.918 232.43 329.949 232.367 329.961C232.304 329.974 232.239 329.967 232.18 329.943C232.121 329.918 232.071 329.877 232.035 329.824C231.999 329.77 231.98 329.708 231.98 329.644ZM232.101 330.965H232.535V335.114H232.138L232.101 330.965Z" fill="#263238"/>
<path d="M234.17 329.219H234.567V335.114H234.17V329.219Z" fill="#263238"/>
<path d="M222.989 369.986L221.492 367.888C221.289 367.902 221.085 367.902 220.882 367.888H219.09V369.939H218.674V363.693H220.919C222.49 363.693 223.442 364.479 223.442 365.809C223.463 366.255 223.328 366.695 223.059 367.053C222.791 367.41 222.407 367.663 221.973 367.768L223.543 369.958L222.989 369.986ZM220.882 367.537C222.222 367.537 222.943 366.909 222.943 365.837C222.943 364.765 222.222 364.127 220.882 364.127H219.09V367.537H220.882Z" fill="white"/>
<path d="M228.884 367.759H224.865C224.864 368.013 224.916 368.264 225.017 368.497C225.117 368.73 225.265 368.94 225.451 369.113C225.636 369.287 225.856 369.42 226.095 369.505C226.334 369.59 226.589 369.624 226.842 369.607C227.124 369.616 227.404 369.564 227.663 369.452C227.922 369.34 228.153 369.172 228.339 368.96L228.598 369.256C228.379 369.506 228.106 369.703 227.801 369.834C227.496 369.966 227.165 370.027 226.833 370.013C226.516 370.029 226.198 369.978 225.902 369.865C225.605 369.751 225.335 369.578 225.109 369.354C224.883 369.131 224.706 368.863 224.59 368.568C224.473 368.272 224.418 367.956 224.43 367.639C224.411 367.333 224.454 367.028 224.557 366.74C224.66 366.452 224.822 366.188 225.031 365.965C225.24 365.742 225.492 365.565 225.773 365.443C226.054 365.321 226.356 365.259 226.662 365.259C226.968 365.259 227.27 365.321 227.551 365.443C227.831 365.565 228.084 365.742 228.293 365.965C228.502 366.188 228.663 366.452 228.767 366.74C228.87 367.028 228.913 367.333 228.893 367.639C228.893 367.639 228.884 367.712 228.884 367.759ZM224.874 367.408H228.459C228.459 366.932 228.27 366.476 227.934 366.14C227.598 365.804 227.142 365.615 226.666 365.615C226.191 365.615 225.735 365.804 225.399 366.14C225.063 366.476 224.874 366.932 224.874 367.408Z" fill="white"/>
<path d="M229.596 369.422L229.799 369.061C230.283 369.428 230.873 369.626 231.481 369.625C232.469 369.625 232.867 369.283 232.867 368.747C232.867 367.389 229.762 368.396 229.762 366.557C229.762 365.855 230.353 365.282 231.536 365.282C232.105 365.272 232.664 365.429 233.144 365.735L232.931 366.095C232.519 365.811 232.028 365.662 231.527 365.67C230.603 365.67 230.215 366.049 230.215 366.548C230.215 367.953 233.31 366.964 233.31 368.747C233.31 369.505 232.654 370.022 231.462 370.022C230.789 370.043 230.13 369.831 229.596 369.422Z" fill="white"/>
<path d="M238.512 367.759H234.492C234.492 368.013 234.543 368.264 234.644 368.497C234.745 368.73 234.893 368.94 235.078 369.113C235.264 369.287 235.483 369.42 235.723 369.505C235.962 369.59 236.216 369.624 236.47 369.607C236.751 369.616 237.032 369.564 237.291 369.452C237.55 369.34 237.78 369.172 237.966 368.96L238.225 369.256C238.005 369.504 237.733 369.702 237.428 369.833C237.123 369.964 236.792 370.025 236.46 370.013C236.143 370.029 235.825 369.978 235.528 369.865C235.231 369.751 234.96 369.578 234.734 369.355C234.507 369.131 234.329 368.864 234.211 368.568C234.093 368.273 234.038 367.956 234.049 367.639C234.031 367.333 234.076 367.028 234.181 366.741C234.286 366.454 234.449 366.191 234.659 365.97C234.87 365.748 235.123 365.572 235.404 365.452C235.686 365.332 235.988 365.271 236.294 365.273C236.598 365.27 236.899 365.329 237.178 365.448C237.458 365.566 237.71 365.741 237.919 365.961C238.128 366.182 238.289 366.443 238.393 366.728C238.496 367.013 238.54 367.317 238.521 367.62C238.521 367.62 238.512 367.712 238.512 367.759ZM234.501 367.408H238.077C238.045 366.956 237.842 366.533 237.511 366.224C237.179 365.915 236.743 365.744 236.289 365.744C235.836 365.744 235.4 365.915 235.068 366.224C234.736 366.533 234.534 366.956 234.501 367.408Z" fill="white"/>
<path d="M242.227 369.69C241.968 369.906 241.641 370.024 241.303 370.022C241.132 370.04 240.958 370.019 240.796 369.961C240.634 369.903 240.487 369.809 240.365 369.687C240.244 369.565 240.152 369.417 240.095 369.254C240.038 369.092 240.018 368.919 240.037 368.747V365.698H239.178V365.31H240.037V364.294H240.481V365.31H241.968V365.698H240.481V368.71C240.481 369.311 240.776 369.634 241.349 369.634C241.616 369.642 241.877 369.55 242.079 369.376L242.227 369.69Z" fill="white"/>
<path d="M250.69 365.837C250.69 367.149 249.766 367.934 248.168 367.934H246.394V369.986H245.932V363.693H248.186C249.739 363.693 250.69 364.506 250.69 365.837ZM250.228 365.837C250.228 364.746 249.508 364.127 248.168 364.127H246.394V367.528H248.186C249.508 367.528 250.228 366.909 250.228 365.837Z" fill="white"/>
<path d="M255.421 367.019V369.985H254.986V369.154C254.815 369.441 254.567 369.675 254.27 369.828C253.972 369.982 253.638 370.049 253.305 370.022C252.261 370.022 251.623 369.487 251.623 368.692C251.623 367.897 252.067 367.38 253.369 367.38H254.968V367.01C254.988 366.825 254.966 366.638 254.903 366.463C254.839 366.288 254.737 366.13 254.603 366.001C254.469 365.871 254.308 365.774 254.131 365.717C253.954 365.66 253.766 365.644 253.582 365.67C252.989 365.664 252.414 365.874 251.965 366.262L251.743 365.938C252.264 365.511 252.918 365.279 253.591 365.282C253.832 365.244 254.079 365.262 254.312 365.334C254.544 365.407 254.758 365.531 254.935 365.699C255.111 365.867 255.247 366.074 255.332 366.303C255.416 366.532 255.446 366.777 255.421 367.019ZM254.968 368.609V367.731H253.379C252.408 367.731 252.067 368.137 252.067 368.655C252.067 369.172 252.538 369.634 253.369 369.634C253.711 369.658 254.051 369.571 254.339 369.387C254.627 369.202 254.847 368.929 254.968 368.609Z" fill="white"/>
<path d="M256.559 369.422L256.762 369.062C257.243 369.433 257.836 369.631 258.444 369.625C259.432 369.625 259.82 369.283 259.82 368.747C259.82 367.389 256.725 368.396 256.725 366.557C256.725 365.855 257.316 365.282 258.499 365.282C259.065 365.27 259.622 365.428 260.097 365.735L259.894 366.095C259.481 365.812 258.991 365.663 258.49 365.67C257.566 365.67 257.168 366.049 257.168 366.548C257.168 367.953 260.273 366.964 260.273 368.747C260.273 369.505 259.617 370.022 258.425 370.022C257.752 370.045 257.092 369.833 256.559 369.422Z" fill="white"/>
<path d="M260.854 369.422L261.057 369.061C261.54 369.428 262.131 369.626 262.738 369.625C263.727 369.625 264.124 369.283 264.124 368.747C264.124 367.389 261.02 368.396 261.02 366.557C261.02 365.855 261.611 365.282 262.794 365.282C263.363 365.272 263.922 365.429 264.402 365.735L264.189 366.095C263.777 365.811 263.286 365.662 262.785 365.67C261.861 365.67 261.473 366.049 261.473 366.548C261.473 367.953 264.568 366.964 264.568 368.747C264.568 369.505 263.912 370.022 262.72 370.022C262.047 370.043 261.388 369.831 260.854 369.422Z" fill="white"/>
<path d="M272.413 365.31L270.639 369.985H270.214L268.643 365.929L267.054 369.985H266.647L264.873 365.31H265.298L266.86 369.487L268.458 365.31H268.837L270.426 369.477L271.997 365.31H272.413Z" fill="white"/>
<path d="M272.811 367.648C272.819 367.187 272.962 366.738 273.224 366.358C273.486 365.978 273.854 365.685 274.282 365.514C274.71 365.343 275.18 365.302 275.631 365.397C276.082 365.492 276.495 365.719 276.818 366.048C277.141 366.377 277.359 366.795 277.445 367.248C277.531 367.701 277.482 368.169 277.302 368.594C277.123 369.019 276.822 369.381 276.437 369.635C276.052 369.889 275.601 370.024 275.14 370.022C274.828 370.032 274.517 369.976 274.227 369.86C273.937 369.743 273.675 369.568 273.456 369.345C273.237 369.121 273.067 368.856 272.956 368.564C272.845 368.272 272.796 367.96 272.811 367.648ZM277.025 367.648C277.001 367.288 276.873 366.943 276.657 366.656C276.44 366.368 276.144 366.15 275.805 366.028C275.466 365.907 275.098 365.887 274.748 365.971C274.398 366.055 274.08 366.24 273.834 366.503C273.587 366.765 273.422 367.094 273.36 367.449C273.298 367.804 273.341 368.169 273.484 368.5C273.627 368.831 273.863 369.113 274.164 369.311C274.464 369.509 274.817 369.615 275.177 369.616C275.43 369.616 275.68 369.565 275.913 369.465C276.145 369.364 276.355 369.217 276.528 369.033C276.701 368.848 276.835 368.63 276.92 368.392C277.006 368.154 277.041 367.9 277.025 367.648Z" fill="white"/>
<path d="M281.081 365.282V365.717H280.971C279.936 365.717 279.317 366.41 279.317 367.565V369.995H278.873V365.319H279.298V366.345C279.446 366.003 279.698 365.716 280.018 365.526C280.338 365.335 280.71 365.25 281.081 365.282Z" fill="white"/>
<path d="M286.421 363.342V369.986H285.987V368.886C285.809 369.237 285.534 369.53 285.195 369.732C284.857 369.933 284.468 370.034 284.074 370.022C283.471 369.985 282.905 369.719 282.492 369.278C282.078 368.838 281.848 368.257 281.848 367.652C281.848 367.048 282.078 366.467 282.492 366.027C282.905 365.586 283.471 365.32 284.074 365.282C284.464 365.272 284.849 365.372 285.186 365.569C285.522 365.767 285.797 366.055 285.978 366.4V363.342H286.421ZM285.978 367.648C285.954 367.288 285.826 366.944 285.61 366.656C285.393 366.368 285.097 366.15 284.758 366.029C284.419 365.907 284.051 365.887 283.701 365.971C283.351 366.056 283.033 366.24 282.786 366.503C282.54 366.766 282.375 367.095 282.313 367.449C282.251 367.804 282.294 368.169 282.437 368.5C282.58 368.831 282.816 369.113 283.117 369.311C283.417 369.509 283.769 369.615 284.13 369.616C284.383 369.616 284.633 369.565 284.866 369.465C285.098 369.364 285.308 369.217 285.481 369.033C285.654 368.848 285.788 368.63 285.873 368.392C285.959 368.154 285.994 367.9 285.978 367.648Z" fill="white"/>
<path d="M346.037 129.072C346.037 129.202 303.321 129.313 250.635 129.313C197.949 129.313 155.232 129.202 155.232 129.072C155.232 128.943 197.939 128.832 250.635 128.832C303.33 128.832 346.037 128.943 346.037 129.072Z" fill="#263238"/>
<path d="M72.8961 330.606C76.6007 333.487 81.042 335.267 85.7113 335.741C90.3806 336.215 95.0891 335.365 99.2974 333.287C103.506 331.209 107.044 327.988 109.506 323.993C111.968 319.997 113.256 315.389 113.22 310.696C113.185 306.003 111.828 301.414 109.306 297.456C106.784 293.498 103.197 290.331 98.9583 288.317C94.7191 286.303 89.9983 285.523 85.3367 286.068C80.6751 286.613 76.2611 288.459 72.6004 291.396L67.1303 287.172L58.9886 289.717L59.9179 281.575L53.0539 276.243L44.9227 278.777L45.8519 270.635L39.9489 266.052L34.9857 267.594L35.5559 262.631L32.0817 259.927L24.2884 260.688L23.2324 272.663L64.0574 304.396C62.7888 309.149 62.9507 314.172 64.5229 318.834C66.0951 323.496 69.0077 327.591 72.8961 330.606ZM102.644 322.084C101.775 323.201 100.594 324.036 99.2511 324.483C97.9079 324.93 96.4623 324.969 95.0971 324.594C93.7319 324.22 92.5083 323.449 91.581 322.38C90.6537 321.31 90.0643 319.99 89.8873 318.585C89.7103 317.181 89.9535 315.755 90.5864 314.489C91.2193 313.223 92.2133 312.172 93.4429 311.471C94.6725 310.769 96.0824 310.448 97.4945 310.548C98.9066 310.647 100.257 311.163 101.376 312.031C102.874 313.198 103.848 314.911 104.086 316.795C104.323 318.68 103.805 320.581 102.644 322.084Z" fill="#EBEBEB"/>
<path d="M105.8 243.612C107.392 241.667 108.404 239.313 108.719 236.82C109.035 234.326 108.642 231.794 107.585 229.514C106.528 227.233 104.85 225.297 102.744 223.926C100.637 222.555 98.1874 221.805 95.6744 221.762C93.1614 221.719 90.6871 222.385 88.535 223.683C86.3828 224.981 84.6399 226.859 83.5057 229.102C82.3716 231.345 81.8921 233.862 82.1223 236.365C82.3525 238.868 83.2829 241.255 84.8071 243.253L82.4522 246.126L83.7089 250.519L79.3582 249.917L76.433 253.528L77.6897 257.921L73.3495 257.309L70.8151 260.413L71.5754 263.085L68.9249 262.715L67.457 264.521L67.7633 268.745L74.1626 269.463L91.6711 248.016C94.1983 248.752 96.8864 248.727 99.3994 247.944C101.912 247.16 104.139 245.654 105.8 243.612ZM101.576 227.582C102.163 228.063 102.594 228.706 102.814 229.431C103.035 230.156 103.036 230.931 102.817 231.656C102.598 232.382 102.168 233.026 101.583 233.508C100.997 233.99 100.282 234.287 99.5281 234.362C98.7738 234.437 98.0141 234.287 97.3451 233.931C96.6761 233.575 96.1277 233.028 95.7694 232.36C95.4111 231.692 95.2589 230.933 95.332 230.178C95.4051 229.424 95.7003 228.708 96.1802 228.121C96.4986 227.724 96.8932 227.394 97.3406 227.151C97.7881 226.909 98.2796 226.758 98.7862 226.708C99.2927 226.658 99.8042 226.709 100.291 226.859C100.777 227.01 101.229 227.255 101.619 227.582H101.576Z" fill="#EBEBEB"/>
<path d="M481.545 275.822C469.541 282.05 460.332 292.755 453.709 304.539C447.086 316.323 442.818 329.278 438.631 342.118L434.896 408.356C448.872 384.579 460.088 356.639 463.115 329.244L453.837 328.408C460.076 327.457 465.307 322.946 468.636 317.587C471.965 312.229 473.681 306.059 475.351 299.981L463.985 301.651C472.94 295.618 479.229 286.368 481.545 275.822Z" fill="#455A64"/>
<path d="M481.545 275.822C469.541 282.05 460.332 292.755 453.709 304.539C447.086 316.323 442.818 329.278 438.631 342.118L434.896 408.356C448.872 384.579 460.088 356.639 463.115 329.244L453.837 328.408C460.076 327.457 465.307 322.946 468.636 317.587C471.965 312.229 473.681 306.059 475.351 299.981L463.985 301.651C472.94 295.618 479.229 286.368 481.545 275.822Z" fill="#F26A7E"/>
<g opacity="0.3">
<path opacity="0.3" d="M481.545 275.822C469.541 282.05 460.332 292.755 453.709 304.539C447.086 316.323 442.818 329.278 438.631 342.118L434.896 408.356C448.872 384.579 460.088 356.639 463.115 329.244L453.837 328.408C460.076 327.457 465.307 322.946 468.636 317.587C471.965 312.229 473.681 306.059 475.351 299.981L463.985 301.651C472.94 295.618 479.229 286.368 481.545 275.822Z" fill="black"/>
</g>
<path d="M432.832 423.886C432.832 423.886 402.503 387.595 402.851 352.939H415.11C415.11 352.939 401.795 344.194 402.851 339.288C403.906 334.382 404.254 315.836 404.254 315.836L415.458 318.643C415.458 318.643 407.061 314.444 406.005 307.787C404.95 301.129 408.453 270.336 408.453 270.336C408.453 270.336 422.104 284.695 426.302 299.39C430.501 314.085 441.531 331.239 438.295 376.043C435.059 420.847 432.832 423.886 432.832 423.886Z" fill="#F26A7E"/>
<path d="M448.199 427.307C448.199 427.307 481.057 405.421 488.353 377.493L478.506 374.813C478.506 374.813 491.125 370.685 491.345 366.521C491.565 362.357 495.346 347.36 495.346 347.36L485.731 347.163C485.731 347.163 493.398 345.621 495.706 340.506C498.014 335.391 501.888 309.863 501.888 309.863C501.888 309.863 487.773 318.411 481.185 329.313C474.597 340.216 461.978 351.582 454.776 388.314C447.573 425.046 448.199 427.307 448.199 427.307Z" fill="#F26A7E"/>
<path d="M416.734 301.988C416.79 302.105 416.829 302.23 416.85 302.359C416.92 302.649 417.013 303.02 417.117 303.519C417.349 304.539 417.674 305.989 418.091 307.822C418.509 309.654 419.008 311.986 419.541 314.653C420.075 317.321 420.701 320.359 421.327 323.723C422.626 330.45 424.007 338.499 425.41 347.453C426.813 356.407 428.147 366.277 429.365 376.669C430.583 387.061 431.476 396.989 432.183 406.024C432.891 415.06 433.343 423.213 433.622 430.056C433.784 433.478 433.865 436.574 433.946 439.335C434.027 442.095 434.085 444.403 434.097 446.294C434.109 448.184 434.097 449.657 434.097 450.701V451.861C434.107 451.992 434.107 452.124 434.097 452.255C434.077 452.125 434.077 451.992 434.097 451.861C434.097 451.571 434.097 451.2 434.097 450.701C434.097 449.646 434.004 448.173 433.935 446.282C433.865 444.392 433.795 442.026 433.679 439.323C433.564 436.621 433.448 433.524 433.25 430.045C432.926 423.202 432.38 415.06 431.685 406.036C430.989 397.013 430.003 387.096 428.808 376.704C427.614 366.312 426.257 356.465 424.911 347.511C423.566 338.557 422.209 330.508 420.968 323.769C420.376 320.406 419.808 317.356 419.274 314.688C418.741 312.02 418.323 309.712 417.941 307.833C417.558 305.954 417.291 304.539 417.082 303.507C417.001 303.043 416.932 302.672 416.885 302.347C416.823 302.233 416.773 302.112 416.734 301.988Z" fill="#263238"/>
<path d="M428.622 446.108C428.622 446.108 400.867 414.63 392.261 395.598L398.756 392.826C394.047 393.603 389.211 391.573 385.557 388.499C381.904 385.426 379.213 381.378 376.58 377.388L385.151 375.938C377.279 373.686 370.576 368.49 366.432 361.429C376.545 363.099 385.696 368.655 393.235 375.59C399.217 381.346 404.653 387.644 409.473 394.403C411.894 397.653 414.003 401.125 415.771 404.772C420.433 414.41 428.633 434.545 428.622 446.108Z" fill="#F26A7E"/>
<path d="M488.793 328.188C488.764 328.301 488.721 328.41 488.666 328.513L488.248 329.429C487.842 330.264 487.274 331.436 486.566 332.909C485.082 335.936 482.971 340.332 480.431 345.794C475.327 356.708 468.612 371.937 461.978 389.079C455.344 406.221 450.078 422.018 446.506 433.524C444.72 439.323 443.316 443.962 442.377 447.187C441.913 448.764 441.542 450.005 441.275 450.898L440.962 451.861C440.935 451.973 440.896 452.082 440.846 452.186C440.852 452.072 440.872 451.959 440.904 451.849C440.962 451.594 441.043 451.269 441.147 450.863C441.379 449.959 441.716 448.706 442.133 447.117C443.003 443.858 444.337 439.161 446.065 433.396C449.544 421.798 454.74 406.013 461.363 388.847C467.986 371.682 474.806 356.465 480.013 345.597C482.611 340.158 484.78 335.785 486.334 332.839C487.1 331.378 487.691 330.218 488.132 329.36L488.608 328.466C488.723 328.327 488.781 328.177 488.793 328.188Z" fill="#263238"/>
<path d="M430.977 459.609C430.902 459.423 430.856 459.228 430.837 459.029C430.756 458.565 430.663 458.02 430.559 457.358C430.339 455.909 429.979 453.809 429.469 451.235C428.958 448.66 428.251 445.621 427.335 442.269C426.418 438.917 425.247 435.31 423.855 431.552C422.463 427.794 420.886 424.315 419.39 421.195C417.894 418.075 416.386 415.326 415.064 413.076C413.742 410.826 412.64 408.994 411.839 407.753L410.946 406.314C410.827 406.156 410.733 405.98 410.668 405.792C410.668 405.792 410.819 405.932 411.051 406.245L412.048 407.613C412.918 408.773 414.089 410.594 415.458 412.833C416.827 415.071 418.358 417.831 419.923 420.951C421.489 424.071 423.032 427.586 424.458 431.39C425.885 435.194 427.01 438.824 427.938 442.188C428.866 445.551 429.492 448.625 429.944 451.223C430.397 453.821 430.698 455.932 430.826 457.393C430.895 458.066 430.942 458.623 430.988 459.087C431.01 459.26 431.006 459.436 430.977 459.609Z" fill="#263238"/>
<path d="M467.604 452.197H406.863V464.584H467.604V452.197Z" fill="#455A64"/>
<path d="M412.65 464.584L419.215 506.257H455.912L462.036 464.584H412.65Z" fill="#455A64"/>
<path d="M463.869 464.584C463.869 464.77 452.375 464.909 438.214 464.909C424.052 464.909 412.547 464.77 412.547 464.584C412.547 464.399 424.041 464.26 438.214 464.26C452.387 464.26 463.869 464.41 463.869 464.584Z" fill="#263238"/>
</svg>
