<svg width="73" height="67" viewBox="0 0 73 67" fill="none" xmlns="http://www.w3.org/2000/svg">
<rect x="21.25" y="44.75" width="30.5" height="16.5" fill="#1A2544" stroke="#1A2544" stroke-width="0.5"/>
<path d="M11.0001 27C9.80006 28.6 10.1667 30.3333 11 31H20.5001C21.0001 30.8333 22.1102 29.1466 20.5001 27C19 25 17.0001 23.8333 16.0001 23.5C14.5 24 12.5 25 11.0001 27Z" fill="#1A2544" stroke="#1A2544" stroke-width="0.5"/>
<path d="M51.7686 27C50.5686 28.6 50.9352 30.3333 51.7686 31H61.2687C61.7687 30.8333 62.8787 29.1466 61.2687 27C59.7686 25 57.7687 23.8333 56.7687 23.5C55.2686 24 53.2686 25 51.7686 27Z" fill="#1A2544" stroke="#1A2544" stroke-width="0.5"/>
<path d="M28.3146 16.0333C26.2622 19.02 26.8893 22.2556 28.3145 23.5H44.5631C45.4183 23.1889 47.3168 20.0402 44.5631 16.0333C41.9973 12.3 38.5768 10.1222 36.8665 9.5C34.3008 10.4333 30.8801 12.3 28.3146 16.0333Z" fill="#1A2544" stroke="#1A2544" stroke-width="0.5"/>
<path d="M34.5 8.50003C33.3 8.90003 33 10 33 10.5L40 10.5C40 9.5 39 8.50003 38.5 8.50003V5.00003C38.5 5.00003 40.25 4.5 39.5 3C39.2197 2.43935 36.5 1 36.5 1C36.5 1 34 2 33.5 3C33 4 34.5 5.00003 34.5 5.00003C34.5 5.00003 34.6206 8.45984 34.5 8.50003Z" fill="#E87883" stroke="#1A2544" stroke-width="0.5"/>
<rect x="17.25" y="62.75" width="38.5" height="3.5" fill="white" stroke="#1A2544" stroke-width="0.5"/>
<rect x="19.25" y="41.75" width="34.5" height="3.5" fill="white" stroke="#1A2544" stroke-width="0.5"/>
<rect x="27.25" y="30.75" width="18.5" height="6.5" fill="white" stroke="#1A2544" stroke-width="0.5"/>
<rect x="25.25" y="26.75" width="22.5" height="4.5" rx="0.75" fill="#E87883" stroke="#1A2544" stroke-width="0.5"/>
<rect x="29.25" y="23.75" width="14.5" height="3.5" fill="white" stroke="#1A2544" stroke-width="0.5"/>
<rect x="30.25" y="9.75" width="12.5" height="3.5" fill="white" stroke="#1A2544" stroke-width="0.5"/>
<rect x="50.25" y="30.75" width="13.5" height="2.5" fill="white" stroke="#1A2544" stroke-width="0.5"/>
<rect x="62.25" y="34.75" width="7.5" height="8.5" fill="white" stroke="#1A2544" stroke-width="0.5"/>
<rect x="3.25" y="34.75" width="7.5" height="8.5" fill="white" stroke="#1A2544" stroke-width="0.5"/>
<path d="M8.75 37.5045V41.25H5.25V37.5045C5.25016 37.5025 5.25054 37.4984 5.25139 37.4924C5.25342 37.4782 5.25806 37.4539 5.26842 37.4228C5.28886 37.3615 5.33232 37.2713 5.42678 37.1768C5.61336 36.9902 6.03854 36.75 7 36.75C7.96147 36.75 8.38664 36.9902 8.57322 37.1768C8.66768 37.2713 8.71114 37.3615 8.73158 37.4228C8.74194 37.4539 8.74658 37.4782 8.74861 37.4924C8.74946 37.4984 8.74984 37.5025 8.75 37.5045Z" stroke="#1A2544" stroke-width="0.5"/>
<path d="M67.75 37.5045V41.25H64.25V37.5045C64.2502 37.5025 64.2505 37.4984 64.2514 37.4924C64.2534 37.4782 64.2581 37.4539 64.2684 37.4228C64.2889 37.3615 64.3323 37.2712 64.4268 37.1768C64.6134 36.9902 65.0385 36.75 66 36.75C66.9615 36.75 67.3866 36.9902 67.5732 37.1768C67.6677 37.2712 67.7111 37.3615 67.7316 37.4228C67.7419 37.4539 67.7466 37.4782 67.7486 37.4924C67.7495 37.4984 67.7498 37.5025 67.75 37.5045Z" stroke="#1A2544" stroke-width="0.5"/>
<rect x="9.25" y="30.75" width="13.5" height="2.5" fill="white" stroke="#1A2544" stroke-width="0.5"/>
<rect x="10.25" y="32.75" width="11.5" height="29.5" fill="white" stroke="#1A2544" stroke-width="0.5"/>
<rect x="51.25" y="32.75" width="11.5" height="29.5" fill="white" stroke="#1A2544" stroke-width="0.5"/>
<rect x="62.25" y="46.75" width="9.5" height="15.5" fill="white" stroke="#1A2544" stroke-width="0.5"/>
<rect x="1.25" y="46.75" width="9.5" height="15.5" fill="white" stroke="#1A2544" stroke-width="0.5"/>
<rect x="62.25" y="42.75" width="10.5" height="4.5" rx="0.75" fill="#1A2544" stroke="#1A2544" stroke-width="0.5"/>
<path d="M7.75 52.5002L7.75 52.5005L7.75 60.25H4.25V52.5005L4.25 52.5002L4.25003 52.4983L4.25035 52.4859C4.25074 52.4742 4.25156 52.4559 4.25327 52.4319C4.2567 52.3838 4.26369 52.3136 4.27785 52.2286C4.30637 52.0575 4.36295 51.8331 4.47361 51.6118C4.58378 51.3915 4.74511 51.1788 4.98243 51.0205C5.21818 50.8634 5.54375 50.75 6.00001 50.75C6.45626 50.75 6.78183 50.8633 7.01758 51.0205C7.25489 51.1787 7.41622 51.3914 7.52639 51.6118C7.63705 51.8331 7.69363 52.0575 7.72215 52.2286C7.73631 52.3136 7.7433 52.3838 7.74673 52.4319C7.74844 52.4559 7.74926 52.4742 7.74965 52.4859L7.74997 52.4983L7.75 52.5004L7.75 52.5002ZM7.75 52.5002V52.5H8C7.75 52.5 7.75 52.5001 7.75 52.5002Z" fill="#1A2544" stroke="#1A2544" stroke-width="0.5"/>
<path d="M68.75 52.5002L68.75 52.5005L68.75 60.25H65.25V52.5005L65.25 52.5002L65.25 52.4983L65.2503 52.4859C65.2507 52.4742 65.2516 52.4559 65.2533 52.4319C65.2567 52.3838 65.2637 52.3136 65.2778 52.2286C65.3064 52.0575 65.3629 51.8331 65.4736 51.6118C65.5838 51.3915 65.7451 51.1788 65.9824 51.0205C66.2182 50.8634 66.5438 50.75 67 50.75C67.4563 50.75 67.7818 50.8633 68.0176 51.0205C68.2549 51.1787 68.4162 51.3914 68.5264 51.6118C68.6371 51.8331 68.6936 52.0575 68.7222 52.2286C68.7363 52.3136 68.7433 52.3838 68.7467 52.4319C68.7484 52.4559 68.7493 52.4742 68.7497 52.4859L68.75 52.4983L68.75 52.5004L68.75 52.5002ZM68.75 52.5002V52.5H69C68.75 52.5 68.75 52.5001 68.75 52.5002Z" fill="#1A2544" stroke="#1A2544" stroke-width="0.5"/>
<path d="M17.4353 42.25L20.6436 36.75H51.8662L55.5329 42.25H17.4353Z" fill="#E87883" stroke="#1A2544" stroke-width="0.5"/>
<rect x="0.25" y="42.75" width="10.5" height="4.5" rx="0.75" fill="#1A2544" stroke="#1A2544" stroke-width="0.5"/>
<rect x="13.25" y="46.75" width="5.5" height="8.5" fill="#E87883" stroke="#1A2544" stroke-width="0.5"/>
<rect x="12.25" y="34.75" width="0.5" height="1.5" fill="white" stroke="#1A2544" stroke-width="0.5"/>
<rect x="54.25" y="34.75" width="0.5" height="1.5" fill="white" stroke="#1A2544" stroke-width="0.5"/>
<rect x="15.25" y="34.75" width="0.5" height="1.5" fill="white" stroke="#1A2544" stroke-width="0.5"/>
<rect x="57.25" y="34.75" width="0.5" height="1.5" fill="white" stroke="#1A2544" stroke-width="0.5"/>
<rect x="18.25" y="34.75" width="0.5" height="1.5" fill="white" stroke="#1A2544" stroke-width="0.5"/>
<rect x="60.25" y="34.75" width="0.5" height="1.5" fill="white" stroke="#1A2544" stroke-width="0.5"/>
<rect x="54.25" y="46.75" width="5.5" height="8.5" fill="#E87883" stroke="#1A2544" stroke-width="0.5"/>
<rect x="33.25" y="46.75" width="6.5" height="12.5" fill="white" stroke="#1A2544" stroke-width="0.5"/>
<rect x="44.25" y="46.75" width="3.5" height="12.5" fill="white" stroke="#1A2544" stroke-width="0.5"/>
<rect x="24.25" y="47.25" width="3.5" height="12.5" fill="white" stroke="#1A2544" stroke-width="0.5"/>
<rect x="19.25" y="60.75" width="34.5" height="2.5" fill="white" stroke="#1A2544" stroke-width="0.5"/>
</svg>
