<svg width="48" height="65" viewBox="0 0 48 65" fill="none" xmlns="http://www.w3.org/2000/svg">
<path d="M12.5002 28.2609C10.0001 27.3189 11.9999 22.6087 12.5 21.6667C19.6667 13.6594 30.5 4.71014 38.5005 6.12319C39.0048 6.21227 39 11.7753 38.5005 13.1884" stroke="#1A2544" stroke-width="0.5"/>
<path d="M12.5002 28.2609C11.8335 27.9469 11.7 26 12.5 24.4927C13.5 22.6087 28.0002 10.8333 31.0002 11.3043C31.5001 10.8333 31.5 13.6594 31.5 13.6594" stroke="#1A2544" stroke-width="0.5"/>
<path d="M36 0C36 5.60507 36 11.1277 36 13.1884" stroke="#1A2544"/>
<rect x="35.25" y="19.0906" width="4.5" height="45.6594" fill="#1A2544" stroke="#1A2544" stroke-width="0.5"/>
<path d="M12.75 64.7499V25.0383L13.75 23.509V64.7499H12.75Z" fill="#1A2544" stroke="#1A2544" stroke-width="0.5"/>
<rect x="31.25" y="30.3949" width="3.5" height="34.3551" fill="white" stroke="#1A2544" stroke-width="0.5"/>
<rect x="28.25" y="33.221" width="3.5" height="31.529" fill="white" stroke="#1A2544" stroke-width="0.5"/>
<rect x="25.25" y="36.0471" width="3.5" height="28.7029" fill="white" stroke="#1A2544" stroke-width="0.5"/>
<rect x="22.25" y="41.6993" width="3.5" height="23.0507" fill="white" stroke="#1A2544" stroke-width="0.5"/>
<rect x="19.25" y="48.2935" width="3.5" height="16.4565" fill="white" stroke="#1A2544" stroke-width="0.5"/>
<rect x="16.25" y="52.0616" width="3.5" height="12.6884" fill="white" stroke="#1A2544" stroke-width="0.5"/>
<rect x="13.25" y="55.8297" width="3.5" height="8.92029" fill="white" stroke="#1A2544" stroke-width="0.5"/>
<rect x="39.25" y="49.2355" width="8.5" height="15.5145" fill="white" stroke="#1A2544" stroke-width="0.5"/>
<rect x="0.25" y="58.6558" width="13.5" height="6.0942" fill="#E87883" stroke="#1A2544" stroke-width="0.5"/>
<rect x="31.25" y="13.4384" width="7.5" height="3.26812" fill="#1A2544" stroke="#1A2544" stroke-width="0.5"/>
<rect x="31.25" y="17.2065" width="7.5" height="1.38406" fill="#E87883" stroke="#1A2544" stroke-width="0.5"/>
<rect x="43.2355" y="52.9891" width="4.52899" height="0.471014" fill="#1A2544" stroke="#1A2544" stroke-width="0.471014"/>
<rect x="44.2355" y="55.8152" width="3.52899" height="0.471014" fill="#1A2544" stroke="#1A2544" stroke-width="0.471014"/>
<path d="M35.5 17.4275H41.5C41.1667 18.8406 40 20.7246 39 20.7246C38 20.7246 35.8333 18.2126 35.5 17.4275Z" fill="white" stroke="#1A2544" stroke-width="0.5"/>
</svg>
