<svg width="71" height="64" viewBox="0 0 71 64" fill="none" xmlns="http://www.w3.org/2000/svg">
<path d="M35.9355 18C27.2258 18 23.1613 24.3889 22 28H49C48.129 25.2222 44.6452 18 35.9355 18Z" fill="black" stroke="#1A2544" stroke-width="0.5"/>
<rect x="20.25" y="16.25" width="31.5" height="4.5" fill="#E87883" stroke="#1A2544" stroke-width="0.5"/>
<rect x="30.25" y="24.25" width="10.5" height="3.5" fill="white" stroke="#1A2544" stroke-width="0.5"/>
<rect x="22.25" y="31.25" width="26.5" height="3.5" fill="#E87883" stroke="#1A2544" stroke-width="0.5"/>
<rect x="28.25" y="27.25" width="14.5" height="4.5" fill="white" stroke="#1A2544" stroke-width="0.5"/>
<rect x="8.25" y="25.25" width="13.5" height="10.5" fill="white" stroke="#1A2544" stroke-width="0.5"/>
<rect x="49.25" y="25.25" width="13.5" height="10.5" fill="white" stroke="#1A2544" stroke-width="0.5"/>
<rect x="13.25" y="26.25" width="3.5" height="2.5" fill="white" stroke="#1A2544" stroke-width="0.5"/>
<rect x="54.25" y="26.25" width="3.5" height="2.5" fill="white" stroke="#1A2544" stroke-width="0.5"/>
<path d="M35.8387 8C29.0645 7.99998 25.9032 13.1111 25 16H46C45.3226 13.7778 42.6129 8.00002 35.8387 8Z" fill="black" stroke="#1A2544" stroke-width="0.5"/>
<path d="M15.5 29C10.5 29 8.16667 32.8333 7.5 35H23C22.5 33.3333 20.5 29 15.5 29Z" fill="black" stroke="#1A2544" stroke-width="0.5"/>
<path d="M35.0968 11C33.1613 11 32.2581 14.1944 32 16H38C37.8065 14.6111 37.0323 11 35.0968 11Z" fill="white" stroke="#1A2544" stroke-width="0.5"/>
<path d="M35.0968 1C33.1613 0.999984 32.2581 6.11111 32 9H38C37.8065 6.77777 37.0323 1.00002 35.0968 1Z" fill="#E87883" stroke="#1A2544" stroke-width="0.5"/>
<path d="M55 29C50 29 47.6667 32.8333 47 35H62.5C62 33.3333 60 29 55 29Z" fill="black" stroke="#1A2544" stroke-width="0.5"/>
<path d="M57 15C52 15 49.6667 18.8333 49 21H64.5C64 19.3333 62 15 57 15Z" fill="black" stroke="#1A2544" stroke-width="0.5"/>
<path d="M15 15C10 15 7.66667 18.8333 7 21H22.5C22 19.3333 20 15 15 15Z" fill="black" stroke="#1A2544" stroke-width="0.5"/>
<rect x="7.25" y="40.25" width="14.5" height="4.5" fill="white" stroke="#1A2544" stroke-width="0.5"/>
<rect x="49.25" y="40.25" width="13.5" height="4.5" fill="white" stroke="#1A2544" stroke-width="0.5"/>
<rect x="49.25" y="44.25" width="3.5" height="5.5" fill="white" stroke="#1A2544" stroke-width="0.5"/>
<rect x="44.25" y="40.25" width="5.5" height="18.5" fill="white" stroke="#1A2544" stroke-width="0.5"/>
<rect x="18.25" y="44.25" width="3.5" height="5.5" fill="white" stroke="#1A2544" stroke-width="0.5"/>
<rect x="21.25" y="40.25" width="5.5" height="18.5" fill="white" stroke="#1A2544" stroke-width="0.5"/>
<rect x="4.25" y="44.25" width="7.5" height="5.5" fill="white" stroke="#1A2544" stroke-width="0.5"/>
<rect x="59.25" y="44.25" width="7.5" height="5.5" fill="white" stroke="#1A2544" stroke-width="0.5"/>
<rect x="11.25" y="42.25" width="7.5" height="7.5" fill="#1A2544" stroke="#1A2544" stroke-width="0.5"/>
<rect x="5.25" y="21.25" width="16.5" height="4.5" fill="#E87883" stroke="#1A2544" stroke-width="0.5"/>
<rect x="49.25" y="21.25" width="16.5" height="4.5" fill="#E87883" stroke="#1A2544" stroke-width="0.5"/>
<rect x="52.25" y="42.25" width="7.5" height="7.5" fill="black" stroke="#1A2544" stroke-width="0.5"/>
<path d="M44.25 42.2652V58.75H47.75V58.7189V58.6841V58.6495V58.6149V58.5803V58.5459V58.5115V58.4772V58.443V58.4089V58.3748V58.3409V58.307V58.2731V58.2394V58.2057V58.1721V58.1386V58.1052V58.0718V58.0385V58.0053V57.9722V57.9391V57.9061V57.8732V57.8404V57.8076V57.7749V57.7423V57.7097V57.6772V57.6448V57.6125V57.5802V57.548V57.5159V57.4838V57.4518V57.4199V57.388V57.3562V57.3245V57.2928V57.2613V57.2297V57.1983V57.1669V57.1356V57.1043V57.0731V57.042V57.0109V56.9799V56.949V56.9181V56.8873V56.8566V56.8259V56.7953V56.7647V56.7342V56.7038V56.6734V56.6431V56.6128V56.5826V56.5525V56.5224V56.4924V56.4624V56.4325V56.4027V56.3729V56.3432V56.3135V56.2839V56.2543V56.2248V56.1954V56.166V56.1367V56.1074V56.0782V56.049V56.0199V55.9908V55.9618V55.9328V55.9039V55.8751V55.8463V55.8175V55.7888V55.7601V55.7315V55.703V55.6745V55.646V55.6176V55.5893V55.561V55.5327V55.5045V55.4763V55.4482V55.4202V55.3921V55.3642V55.3362V55.3084V55.2805V55.2527V55.225V55.1973V55.1696V55.142V55.1144V55.0869V55.0594V55.0319V55.0045V54.9772V54.9498V54.9226V54.8953V54.8681V54.841V54.8138V54.7867V54.7597V54.7327V54.7057V54.6788V54.6519V54.6251V54.5982V54.5715V54.5447V54.518V54.4913V54.4647V54.4381V54.4115V54.385V54.3585V54.332V54.3056V54.2792V54.2528V54.2265V54.2002V54.1739V54.1477V54.1215V54.0953V54.0692V54.043V54.017V53.9909V53.9649V53.9389V53.9129V53.887V53.861V53.8352V53.8093V53.7835V53.7577V53.7319V53.7061V53.6804V53.6547V53.629V53.6034V53.5777V53.5521V53.5265V53.501V53.4754V53.4499V53.4244V53.399V53.3735V53.3481V53.3227V53.2973V53.2719V53.2466V53.2213V53.1959V53.1707V53.1454V53.1201V53.0949V53.0697V53.0445V53.0193V52.9942V52.969V52.9439V52.9188V52.8937V52.8686V52.8435V52.8184V52.7934V52.7684V52.7434V52.7184V52.6934V52.6684V52.6434V52.6185V52.5935V52.5686V52.5437V52.5188V52.4939V52.469V52.4441V52.4192V52.3944V52.3695V52.3447V52.3198V52.295V52.2702V52.2454V52.2206V52.1958V52.171V52.1462V52.1214V52.0966V52.0718V52.0471V52.0223V51.9975V51.9728V51.948V51.9232V51.8985V51.8737V51.849V51.8242V51.7995V51.7747V51.75V51.7253V51.7005V51.6758V51.651V51.6263V51.6015V51.5768V51.552V51.5272V51.5025V51.4777V51.4529V51.4282V51.4034V51.3786V51.3538V51.329V51.3042V51.2794V51.2546V51.2298V51.205V51.1802V51.1553V51.1305V51.1056V51.0808V51.0559V51.031V51.0061V50.9812V50.9563V50.9314V50.9065V50.8815V50.8566V50.8316V50.8066V50.7816V50.7566V50.7316V50.7066V50.6816V50.6565V50.6314V50.6063V50.5812V50.5561V50.531V50.5058V50.4807V50.4555V50.4303V50.4051V50.3799V50.3546V50.3293V50.3041V50.2787V50.2534V50.2281V50.2027V50.1773V50.1519V50.1265V50.101V50.0756V50.0501V50.0246V49.999V49.9735V49.9479V49.9223V49.8966V49.871V49.8453V49.8196V49.7939V49.7681V49.7423V49.7165V49.6907V49.6648V49.639V49.613V49.5871V49.5611V49.5351V49.5091V49.483V49.457V49.4308V49.4047V49.3785V49.3523V49.3261V49.2998V49.2735V49.2472V49.2208V49.1944V49.168V49.1415V49.115V49.0885V49.0619V49.0353V49.0087V48.982V48.9553V48.9285V48.9018V48.8749V48.8481V48.8212V48.7943V48.7673V48.7403V48.7133V48.6862V48.659V48.6319V48.6047V48.5774V48.5502V48.5228V48.4955V48.4681V48.4406V48.4131V48.3856V48.358V48.3304V48.3027V48.275V48.2473V48.2195V48.1916V48.1638V48.1358V48.1079V48.0798V48.0518V48.0237V47.9955V47.9673V47.939V47.9107V47.8824V47.854V47.8255V47.797V47.7685V47.7399V47.7112V47.6825V47.6537V47.6249V47.5961V47.5672V47.5382V47.5092V47.4801V47.451V47.4218V47.3926V47.3633V47.334V47.3046V47.2752V47.2457V47.2161V47.1865V47.1568V47.1271V47.0973V47.0675V47.0376V47.0076V46.9776V46.9475V46.9174V46.8872V46.8569V46.8266V46.7962V46.7658V46.7353V46.7047V46.6741V46.6434V46.6127V46.5819V46.551V46.5201V46.4891V46.458V46.4269V46.3957V46.3644V46.3331V46.3017V46.2703V46.2387V46.2072V46.1755V46.1438V46.112V46.0801V46.0482V46.0162V45.9841V45.952V45.9198V45.8875V45.8552V45.8228V45.7903V45.7577V45.7251V45.6924V45.6596V45.6268V45.5939V45.5609V45.5278V45.4947V45.4615V45.4282V45.3948V45.3614V45.3279V45.2943V45.2606V45.2269V45.193V45.1591V45.1252V45.0911V45.057V45.0228V44.9885V44.9541V44.9197V44.8851V44.8505V44.8159V44.7811V44.7462V44.7113V44.6763V44.6412V44.606V44.5775C47.7218 44.5371 47.6801 44.4784 47.6269 44.4061C47.5202 44.2613 47.3678 44.0632 47.1852 43.8502C46.8137 43.4168 46.3408 42.9499 45.8882 42.7236C45.4169 42.4879 44.9425 42.3689 44.5839 42.3091C44.4549 42.2876 44.3416 42.2739 44.25 42.2652Z" fill="white" stroke="#1A2544" stroke-width="0.5"/>
<rect x="41.25" y="40.25" width="3.5" height="17.5" fill="white" stroke="#1A2544" stroke-width="0.5"/>
<path d="M26.25 42.2652V58.75H22.75V58.7189V58.6841V58.6495V58.6149V58.5803V58.5459V58.5115V58.4772V58.443V58.4089V58.3748V58.3409V58.307V58.2731V58.2394V58.2057V58.1721V58.1386V58.1052V58.0718V58.0385V58.0053V57.9722V57.9391V57.9061V57.8732V57.8404V57.8076V57.7749V57.7423V57.7097V57.6772V57.6448V57.6125V57.5802V57.548V57.5159V57.4838V57.4518V57.4199V57.388V57.3562V57.3245V57.2928V57.2613V57.2297V57.1983V57.1669V57.1356V57.1043V57.0731V57.042V57.0109V56.9799V56.949V56.9181V56.8873V56.8566V56.8259V56.7953V56.7647V56.7342V56.7038V56.6734V56.6431V56.6128V56.5826V56.5525V56.5224V56.4924V56.4624V56.4325V56.4027V56.3729V56.3432V56.3135V56.2839V56.2543V56.2248V56.1954V56.166V56.1367V56.1074V56.0782V56.049V56.0199V55.9908V55.9618V55.9328V55.9039V55.8751V55.8463V55.8175V55.7888V55.7601V55.7315V55.703V55.6745V55.646V55.6176V55.5893V55.561V55.5327V55.5045V55.4763V55.4482V55.4202V55.3921V55.3642V55.3362V55.3084V55.2805V55.2527V55.225V55.1973V55.1696V55.142V55.1144V55.0869V55.0594V55.0319V55.0045V54.9772V54.9498V54.9226V54.8953V54.8681V54.841V54.8138V54.7867V54.7597V54.7327V54.7057V54.6788V54.6519V54.6251V54.5982V54.5715V54.5447V54.518V54.4913V54.4647V54.4381V54.4115V54.385V54.3585V54.332V54.3056V54.2792V54.2528V54.2265V54.2002V54.1739V54.1477V54.1215V54.0953V54.0692V54.043V54.017V53.9909V53.9649V53.9389V53.9129V53.887V53.861V53.8352V53.8093V53.7835V53.7577V53.7319V53.7061V53.6804V53.6547V53.629V53.6034V53.5777V53.5521V53.5265V53.501V53.4754V53.4499V53.4244V53.399V53.3735V53.3481V53.3227V53.2973V53.2719V53.2466V53.2213V53.1959V53.1707V53.1454V53.1201V53.0949V53.0697V53.0445V53.0193V52.9942V52.969V52.9439V52.9188V52.8937V52.8686V52.8435V52.8184V52.7934V52.7684V52.7434V52.7184V52.6934V52.6684V52.6434V52.6185V52.5935V52.5686V52.5437V52.5188V52.4939V52.469V52.4441V52.4192V52.3944V52.3695V52.3447V52.3198V52.295V52.2702V52.2454V52.2206V52.1958V52.171V52.1462V52.1214V52.0966V52.0718V52.0471V52.0223V51.9975V51.9728V51.948V51.9232V51.8985V51.8737V51.849V51.8242V51.7995V51.7747V51.75V51.7253V51.7005V51.6758V51.651V51.6263V51.6015V51.5768V51.552V51.5272V51.5025V51.4777V51.4529V51.4282V51.4034V51.3786V51.3538V51.329V51.3042V51.2794V51.2546V51.2298V51.205V51.1802V51.1553V51.1305V51.1056V51.0808V51.0559V51.031V51.0061V50.9812V50.9563V50.9314V50.9065V50.8815V50.8566V50.8316V50.8066V50.7816V50.7566V50.7316V50.7066V50.6816V50.6565V50.6314V50.6063V50.5812V50.5561V50.531V50.5058V50.4807V50.4555V50.4303V50.4051V50.3799V50.3546V50.3293V50.3041V50.2787V50.2534V50.2281V50.2027V50.1773V50.1519V50.1265V50.101V50.0756V50.0501V50.0246V49.999V49.9735V49.9479V49.9223V49.8966V49.871V49.8453V49.8196V49.7939V49.7681V49.7423V49.7165V49.6907V49.6648V49.639V49.613V49.5871V49.5611V49.5351V49.5091V49.483V49.457V49.4308V49.4047V49.3785V49.3523V49.3261V49.2998V49.2735V49.2472V49.2208V49.1944V49.168V49.1415V49.115V49.0885V49.0619V49.0353V49.0087V48.982V48.9553V48.9285V48.9018V48.8749V48.8481V48.8212V48.7943V48.7673V48.7403V48.7133V48.6862V48.659V48.6319V48.6047V48.5774V48.5502V48.5228V48.4955V48.4681V48.4406V48.4131V48.3856V48.358V48.3304V48.3027V48.275V48.2473V48.2195V48.1916V48.1638V48.1358V48.1079V48.0798V48.0518V48.0237V47.9955V47.9673V47.939V47.9107V47.8824V47.854V47.8255V47.797V47.7685V47.7399V47.7112V47.6825V47.6537V47.6249V47.5961V47.5672V47.5382V47.5092V47.4801V47.451V47.4218V47.3926V47.3633V47.334V47.3046V47.2752V47.2457V47.2161V47.1865V47.1568V47.1271V47.0973V47.0675V47.0376V47.0076V46.9776V46.9475V46.9174V46.8872V46.8569V46.8266V46.7962V46.7658V46.7353V46.7047V46.6741V46.6434V46.6127V46.5819V46.551V46.5201V46.4891V46.458V46.4269V46.3957V46.3644V46.3331V46.3017V46.2703V46.2387V46.2072V46.1755V46.1438V46.112V46.0801V46.0482V46.0162V45.9841V45.952V45.9198V45.8875V45.8552V45.8228V45.7903V45.7577V45.7251V45.6924V45.6596V45.6268V45.5939V45.5609V45.5278V45.4947V45.4615V45.4282V45.3948V45.3614V45.3279V45.2943V45.2606V45.2269V45.193V45.1591V45.1252V45.0911V45.057V45.0228V44.9885V44.9541V44.9197V44.8851V44.8505V44.8159V44.7811V44.7462V44.7113V44.6763V44.6412V44.606V44.5775C22.7782 44.5371 22.8199 44.4784 22.8731 44.4061C22.9798 44.2613 23.1322 44.0632 23.3148 43.8502C23.6863 43.4168 24.1592 42.9499 24.6118 42.7236C25.0831 42.4879 25.5575 42.3689 25.9161 42.3091C26.0451 42.2876 26.1584 42.2739 26.25 42.2652Z" fill="white" stroke="#1A2544" stroke-width="0.5"/>
<rect x="26.25" y="40.25" width="3.5" height="17.5" fill="white" stroke="#1A2544" stroke-width="0.5"/>
<rect x="29.25" y="43.25" width="12.5" height="15.5" fill="black" stroke="#1A2544" stroke-width="0.5"/>
<path d="M38.25 58.75V56.3498C38.3912 56.3388 38.5923 56.3241 38.8364 56.3095C39.3332 56.2797 40.0065 56.25 40.7143 56.25C41.4234 56.25 42.1604 56.2799 42.7868 56.3677C43.1 56.4115 43.38 56.4691 43.6124 56.5423C43.8478 56.6164 44.0179 56.7016 44.1249 56.7915C44.667 57.2469 45.0788 57.8212 45.3566 58.2879C45.4606 58.4627 45.545 58.6209 45.6097 58.75H38.25Z" fill="white" stroke="#1A2544" stroke-width="0.5"/>
<path d="M32.75 58.75V56.3498C32.6088 56.3388 32.4077 56.3241 32.1636 56.3095C31.6668 56.2797 30.9935 56.25 30.2857 56.25C29.5766 56.25 28.8396 56.2799 28.2132 56.3677C27.9 56.4115 27.62 56.4691 27.3876 56.5423C27.1522 56.6164 26.9821 56.7016 26.8751 56.7915C26.333 57.2469 25.9212 57.8212 25.6434 58.2879C25.5394 58.4627 25.455 58.6209 25.3903 58.75H32.75Z" fill="white" stroke="#1A2544" stroke-width="0.5"/>
<rect x="32.25" y="47.25" width="6.5" height="11.5" fill="white" stroke="#1A2544" stroke-width="0.5"/>
<rect x="66.25" y="51.25" width="3.5" height="8.5" fill="white" stroke="#1A2544" stroke-width="0.5"/>
<rect x="1.25" y="51.25" width="3.5" height="8.5" fill="white" stroke="#1A2544" stroke-width="0.5"/>
<rect x="61.25" y="51.25" width="5.5" height="8.5" fill="white" stroke="#1A2544" stroke-width="0.5"/>
<rect x="4.25" y="51.25" width="5.5" height="8.5" fill="white" stroke="#1A2544" stroke-width="0.5"/>
<rect x="61.25" y="48.25" width="9.5" height="3.5" fill="#E87883" stroke="#1A2544" stroke-width="0.5"/>
<rect x="0.25" y="48.25" width="9.5" height="3.5" fill="#E87883" stroke="#1A2544" stroke-width="0.5"/>
<path d="M3.5 37.8125C3.50001 37.0863 3.71194 36.4057 4.16968 35.25H66.8154C67.1386 36.3218 67.2806 37.163 67.2724 37.9976C67.2642 38.8325 67.1057 39.6745 66.8102 40.75H4.18051C3.71723 39.35 3.49999 38.5483 3.5 37.8125Z" fill="white" stroke="#1A2544" stroke-width="0.5"/>
<rect x="20.25" y="58.25" width="30.5" height="3.5" fill="white" stroke="#1A2544" stroke-width="0.5"/>
<rect x="18.25" y="61.25" width="34.5" height="2.5" fill="white" stroke="#1A2544" stroke-width="0.5"/>
<rect x="61.25" y="59.25" width="9.5" height="4.5" fill="white" stroke="#1A2544" stroke-width="0.5"/>
<rect x="0.25" y="59.25" width="9.5" height="4.5" fill="white" stroke="#1A2544" stroke-width="0.5"/>
<line x1="8.5" y1="35" x2="8.5" y2="41" stroke="black"/>
<line x1="31.5" y1="27" x2="31.5" y2="32" stroke="black"/>
<line x1="35.5" y1="27" x2="35.5" y2="32" stroke="black"/>
<line x1="39.5" y1="27" x2="39.5" y2="32" stroke="black"/>
<line x1="13.5" y1="35" x2="13.5" y2="41" stroke="black"/>
<line x1="18.5" y1="35" x2="18.5" y2="41" stroke="black"/>
<line x1="23.5" y1="35" x2="23.5" y2="41" stroke="black"/>
<line x1="28.5" y1="35" x2="28.5" y2="41" stroke="black"/>
<line x1="33.5" y1="35" x2="33.5" y2="41" stroke="black"/>
<line x1="38.5" y1="35" x2="38.5" y2="41" stroke="black"/>
<line x1="43.5" y1="35" x2="43.5" y2="41" stroke="black"/>
<line x1="48.5" y1="35" x2="48.5" y2="41" stroke="black"/>
<line x1="53.5" y1="35" x2="53.5" y2="41" stroke="black"/>
<line x1="58.5" y1="35" x2="58.5" y2="41" stroke="black"/>
<line x1="63.5" y1="35" x2="63.5" y2="41" stroke="black"/>
</svg>
